<svg width="34" height="34" viewBox="0 0 34 34" fill="none" xmlns="http://www.w3.org/2000/svg">
<path d="M21 17H33M21 25H33M21 33H33M1 3C1 2.46957 1.21071 1.96086 1.58579 1.58579C1.96086 1.21071 2.46957 1 3 1H31C31.5304 1 32.0391 1.21071 32.4142 1.58579C32.7893 1.96086 33 2.46957 33 3V7C33 7.53043 32.7893 8.03914 32.4142 8.41421C32.0391 8.78929 31.5304 9 31 9H3C2.46957 9 1.96086 8.78929 1.58579 8.41421C1.21071 8.03914 1 7.53043 1 7V3ZM1 19C1 18.4696 1.21071 17.9609 1.58579 17.5858C1.96086 17.2107 2.46957 17 3 17H11C11.5304 17 12.0391 17.2107 12.4142 17.5858C12.7893 17.9609 13 18.4696 13 19V31C13 31.5304 12.7893 32.0391 12.4142 32.4142C12.0391 32.7893 11.5304 33 11 33H3C2.46957 33 1.96086 32.7893 1.58579 32.4142C1.21071 32.0391 1 31.5304 1 31V19Z" stroke="#20AC69" stroke-width="2" stroke-linecap="round" stroke-linejoin="round"/>
</svg>
