<svg width="48" height="48" viewBox="0 0 48 48" fill="none" xmlns="http://www.w3.org/2000/svg">
<path fill-rule="evenodd" clip-rule="evenodd" d="M28.801 6.40008H25.6009V0H22.4008V6.40008H19.2007C14.1083 6.40008 9.22457 8.42295 5.62375 12.0237C2.02292 15.6244 0 20.5081 0 25.6003C0 30.6925 2.02292 35.5762 5.62375 39.1769C9.22457 42.7777 14.1083 44.8005 19.2007 44.8005H28.801C29.217 44.8005 29.633 44.7878 30.0458 44.7589L42.8143 47.9526C43.0822 48.0193 43.3627 48.0156 43.6287 47.9417C43.8947 47.8679 44.1371 47.7266 44.3323 47.5314C44.5275 47.3362 44.6689 47.0938 44.7427 46.8278C44.8165 46.5618 44.8203 46.2812 44.7536 46.0134L42.9071 38.6245C45.4387 35.8823 47.1163 32.4618 47.7346 28.7813C48.353 25.1008 47.8852 21.3199 46.3886 17.901C44.892 14.4821 42.4315 11.5735 39.3079 9.53097C36.1843 7.48839 32.5332 6.40041 28.801 6.40008ZM16.0006 20.8003C16.0006 18.6785 16.8434 16.6436 18.3438 15.1433C19.8441 13.643 21.879 12.8002 24.0008 12.8002C26.1226 12.8002 28.1575 13.643 29.6579 15.1433C31.1582 16.6436 32.0011 18.6785 32.0011 20.8003C32.0011 22.922 31.1582 24.9569 29.6579 26.4572C28.1575 27.9575 26.1226 28.8004 24.0008 28.8004C21.879 28.8004 19.8441 27.9575 18.3438 26.4572C16.8434 24.9569 16.0006 22.922 16.0006 20.8003ZM24.0008 38.4005C20.7277 38.4054 17.5514 37.2909 14.9989 35.242L17.0022 32.746C18.9191 34.282 21.3511 35.2004 24.0008 35.2004C26.6505 35.2004 29.0826 34.282 30.9995 32.746L33.0027 35.242C30.4503 37.2909 27.2739 38.4054 24.0008 38.4005Z" fill="#161616"/>
</svg>
