<svg width="182" height="168" viewBox="0 0 182 168" fill="none" xmlns="http://www.w3.org/2000/svg">
<path d="M133.628 8.20286C133.628 8.20286 107.355 -6.49378 77.2106 4.67486C47.0664 15.8435 27.8539 44.8941 11.6906 68.0327C-4.47264 91.1713 -2.01312 117.929 16.9474 133.17C35.9078 148.411 53.0942 133.623 82.6337 137.786C112.173 141.949 119.365 147.493 146.586 135.039C173.807 122.586 184.89 84.1355 170.607 51.8795C156.324 19.6235 133.628 8.20286 133.628 8.20286Z" fill="#20AC69"/>
<path opacity="0.8" d="M133.628 8.20286C133.628 8.20286 107.355 -6.49378 77.2106 4.67486C47.0664 15.8435 27.8539 44.8941 11.6906 68.0327C-4.47264 91.1713 -2.01312 117.929 16.9474 133.17C35.9078 148.411 53.0942 133.623 82.6337 137.786C112.173 141.949 119.365 147.493 146.586 135.039C173.807 122.586 184.89 84.1355 170.607 51.8795C156.324 19.6235 133.628 8.20286 133.628 8.20286Z" fill="white"/>
<path d="M178.53 163.989C178.53 165.965 139.263 167.568 90.8337 167.568C42.4043 167.568 3.1377 165.965 3.1377 163.989C3.1377 162.014 42.3993 160.406 90.8337 160.406C139.268 160.406 178.53 162.008 178.53 163.989Z" fill="#20AC69"/>
<path opacity="0.5" d="M178.53 163.989C178.53 165.965 139.263 167.568 90.8337 167.568C42.4043 167.568 3.1377 165.965 3.1377 163.989C3.1377 162.014 42.3993 160.406 90.8337 160.406C139.268 160.406 178.53 162.008 178.53 163.989Z" fill="white"/>
<path d="M166.555 127.877C165.335 129.291 164.511 131.002 164.166 132.837L159.378 135.523V122.827L159.468 122.958L167.104 117.369C168.067 117.52 171.771 117.944 175.168 116.124C179.059 114.012 181.922 106.76 181.922 106.76C181.922 106.76 172.582 105.706 169.417 109.623C167.681 111.656 166.757 114.258 166.822 116.931L159.378 122.384V113.009C160.771 112.36 162.003 111.409 162.983 110.226C163.964 109.042 164.669 107.655 165.048 106.165C166.403 100.888 159.171 90.4907 159.171 90.4907C159.171 90.4907 151.636 101.191 153.123 106.619C154.398 111.215 157.83 112.667 158.853 113.009V133.346L153.496 128.875C153.617 127.807 153.713 124.455 150.729 121.094C147.11 117.026 137.469 117.329 137.469 117.329C137.469 117.329 141.536 125.463 145.029 128.18C148.053 130.549 152.236 129.581 153.239 129.299L158.894 134.011V140.19H150.472L153.899 161.61H164.181L167.608 140.19H159.378V136.103L164.639 133.154C165.92 133.507 169.498 134.243 172.885 132.55C177.103 130.448 180.566 125.912 180.566 125.912C180.566 125.912 170.471 123.357 166.555 127.877Z" fill="#20AC69"/>
<path opacity="0.5" d="M166.555 127.877C165.335 129.291 164.511 131.002 164.166 132.837L159.378 135.523V122.827L159.468 122.958L167.104 117.369C168.067 117.52 171.771 117.944 175.168 116.124C179.059 114.012 181.922 106.76 181.922 106.76C181.922 106.76 172.582 105.706 169.417 109.623C167.681 111.656 166.757 114.258 166.822 116.931L159.378 122.384V113.009C160.771 112.36 162.003 111.409 162.983 110.226C163.964 109.042 164.669 107.655 165.048 106.165C166.403 100.888 159.171 90.4907 159.171 90.4907C159.171 90.4907 151.636 101.191 153.123 106.619C154.398 111.215 157.83 112.667 158.853 113.009V133.346L153.496 128.875C153.617 127.807 153.713 124.455 150.729 121.094C147.11 117.026 137.469 117.329 137.469 117.329C137.469 117.329 141.536 125.463 145.029 128.18C148.053 130.549 152.236 129.581 153.239 129.299L158.894 134.011V140.19H150.472L153.899 161.61H164.181L167.608 140.19H159.378V136.103L164.639 133.154C165.92 133.507 169.498 134.243 172.885 132.55C177.103 130.448 180.566 125.912 180.566 125.912C180.566 125.912 170.471 123.357 166.555 127.877Z" fill="white"/>
<path d="M145.674 6.46924H30.3437C27.0981 6.46924 24.467 9.1003 24.467 12.3459V85.0277C24.467 88.2733 27.0981 90.9044 30.3437 90.9044H145.674C148.92 90.9044 151.551 88.2733 151.551 85.0277V12.3459C151.551 9.1003 148.92 6.46924 145.674 6.46924Z" fill="#20AC69" stroke="#263238" stroke-miterlimit="10" stroke-linecap="round"/>
<path opacity="0.7" d="M145.674 6.46924H30.3437C27.0981 6.46924 24.467 9.1003 24.467 12.3459V85.0277C24.467 88.2733 27.0981 90.9044 30.3437 90.9044H145.674C148.92 90.9044 151.551 88.2733 151.551 85.0277V12.3459C151.551 9.1003 148.92 6.46924 145.674 6.46924Z" fill="#20AC69" stroke="#263238" stroke-miterlimit="10" stroke-linecap="round"/>
<path d="M78.0675 53.6738H63.1995V62.015H78.0675V53.6738Z" fill="white"/>
<path d="M78.0675 63.522H63.1995V71.8632H78.0675V63.522Z" fill="white"/>
<path d="M94.4473 53.6738H79.5793V62.015H94.4473V53.6738Z" fill="white"/>
<path d="M110.833 43.8203H95.9646V52.1615H110.833V43.8203Z" fill="white"/>
<path d="M110.833 33.9673H95.9646V42.3085H110.833V33.9673Z" fill="white"/>
<path d="M110.833 15.7578H95.9646V22.6021H110.833V15.7578Z" fill="#263238"/>
<path d="M94.4473 15.7578H79.5793V22.6021H94.4473V15.7578Z" fill="#263238"/>
<path d="M94.4473 63.522H79.5793V71.8632H94.4473V63.522Z" fill="white"/>
<path d="M94.4473 24.1143H79.5793V32.4555H94.4473V24.1143Z" fill="white"/>
<path d="M94.4473 33.9673H79.5793V42.3085H94.4473V33.9673Z" fill="white"/>
<path d="M94.4473 43.8203H79.5793V52.1615H94.4473V43.8203Z" fill="white"/>
<path d="M110.833 63.522H95.9646V71.8632H110.833V63.522Z" fill="white"/>
<path d="M45.3025 24.1143H29.4517V32.4555H45.3025V24.1143Z" fill="white"/>
<path d="M45.3025 43.8203H29.4517V52.1615H45.3025V43.8203Z" fill="white"/>
<path d="M45.3025 53.6738H29.4517V62.015H45.3025V53.6738Z" fill="white"/>
<path d="M45.3025 33.9673H29.4517V42.3085H45.3025V33.9673Z" fill="white"/>
<path d="M144.58 15.7578H128.729V22.6021H144.58V15.7578Z" fill="#263238"/>
<path d="M45.3025 63.522H29.4517V71.8632H45.3025V63.522Z" fill="white"/>
<path d="M127.212 24.1143H112.344V32.4555H127.212V24.1143Z" fill="white"/>
<path d="M110.833 53.6738H95.9646V62.015H110.833V53.6738Z" fill="white"/>
<path d="M127.212 53.6738H112.344V62.015H127.212V53.6738Z" fill="white"/>
<path d="M127.212 33.9673H112.344V42.3085H127.212V33.9673Z" fill="white"/>
<path d="M127.212 43.8203H112.344V52.1615H127.212V43.8203Z" fill="white"/>
<path d="M127.212 63.522H112.344V71.8632H127.212V63.522Z" fill="white"/>
<path d="M110.833 24.1143H95.9646V32.4555H110.833V24.1143Z" fill="white"/>
<path d="M144.58 63.522H128.729V71.8632H144.58V63.522Z" fill="white"/>
<path d="M127.212 15.7578H112.344V22.6021H127.212V15.7578Z" fill="#263238"/>
<path d="M144.58 53.6738H128.729V62.015H144.58V53.6738Z" fill="white"/>
<path d="M127.212 73.375H112.344V82.19H127.212V73.375Z" fill="white"/>
<path d="M144.58 43.8203H128.729V52.1615H144.58V43.8203Z" fill="white"/>
<path d="M94.4473 73.375H79.5793V82.19H94.4473V73.375Z" fill="white"/>
<path d="M110.833 73.375H95.9646V82.19H110.833V73.375Z" fill="white"/>
<path d="M144.58 33.9673H128.729V42.3085H144.58V33.9673Z" fill="white"/>
<path d="M144.58 73.375H128.729V82.19H144.58V73.375Z" fill="white"/>
<path d="M45.3025 73.375H29.4517V82.19H45.3025V73.375Z" fill="white"/>
<path d="M144.58 24.1143H128.729V32.4555H144.58V24.1143Z" fill="white"/>
<path d="M45.3025 15.7578H29.4517V22.6021H45.3025V15.7578Z" fill="#263238"/>
<path d="M61.6825 15.7578H46.8145V22.6021H61.6825V15.7578Z" fill="#263238"/>
<path d="M61.6825 53.6738H46.8145V62.015H61.6825V53.6738Z" fill="white"/>
<path d="M78.0675 15.7578H63.1995V22.6021H78.0675V15.7578Z" fill="#263238"/>
<path d="M78.0675 33.9673H63.1995V42.3085H78.0675V33.9673Z" fill="white"/>
<path d="M61.6825 63.522H46.8145V71.8632H61.6825V63.522Z" fill="white"/>
<path d="M78.0675 24.1143H63.1995V32.4555H78.0675V24.1143Z" fill="white"/>
<path d="M61.6825 24.1143H46.8145V32.4555H61.6825V24.1143Z" fill="white"/>
<path d="M78.0675 43.8203H63.1995V52.1615H78.0675V43.8203Z" fill="white"/>
<path d="M61.6825 43.8203H46.8145V52.1615H61.6825V43.8203Z" fill="white"/>
<path d="M61.6825 73.375H46.8145V82.19H61.6825V73.375Z" fill="white"/>
<path d="M61.6825 33.9673H46.8145V42.3085H61.6825V33.9673Z" fill="white"/>
<path d="M78.0675 73.375H63.1995V82.19H78.0675V73.375Z" fill="white"/>
<path d="M36.4472 11.1561C37.6302 11.1561 38.5892 10.1971 38.5892 9.01407C38.5892 7.83108 37.6302 6.87207 36.4472 6.87207C35.2642 6.87207 34.3052 7.83108 34.3052 9.01407C34.3052 10.1971 35.2642 11.1561 36.4472 11.1561Z" fill="white" stroke="#263238" stroke-miterlimit="10" stroke-linecap="round"/>
<path d="M45.8417 9.01438C45.8427 8.58931 45.7175 8.1735 45.4819 7.81965C45.2464 7.4658 44.9111 7.18983 44.5186 7.0267C44.1261 6.86357 43.694 6.82063 43.277 6.90332C42.8601 6.986 42.477 7.19059 42.1765 7.49116C41.8759 7.79173 41.6713 8.17476 41.5886 8.59171C41.5059 9.00867 41.5489 9.44078 41.712 9.8333C41.8751 10.2258 42.1511 10.5611 42.505 10.7966C42.8588 11.0322 43.2746 11.1574 43.6997 11.1564C44.2678 11.1564 44.8126 10.9307 45.2143 10.529C45.616 10.1273 45.8417 9.58247 45.8417 9.01438Z" fill="white" stroke="#263238" stroke-miterlimit="10" stroke-linecap="round"/>
<path d="M36.4875 10.4103C36.1894 10.4103 35.9035 10.2919 35.6927 10.0811C35.4819 9.87037 35.3635 9.58449 35.3635 9.28641V1.68609C35.3629 1.53807 35.3915 1.39138 35.4476 1.25444C35.5038 1.11749 35.5865 0.992998 35.6909 0.888098C35.7954 0.783198 35.9195 0.699959 36.0562 0.643162C36.1929 0.586365 36.3394 0.557127 36.4875 0.557129C36.7869 0.557129 37.074 0.676073 37.2858 0.887794C37.4975 1.09952 37.6164 1.38667 37.6164 1.68609V9.28641C37.6164 9.43443 37.5872 9.58099 37.5304 9.71768C37.4736 9.85437 37.3903 9.9785 37.2854 10.0829C37.1805 10.1874 37.0561 10.27 36.9191 10.3262C36.7822 10.3824 36.6355 10.411 36.4875 10.4103Z" fill="white" stroke="#263238" stroke-miterlimit="10" stroke-linecap="round"/>
<path d="M43.8056 10.4103C43.5075 10.4103 43.2216 10.2919 43.0108 10.0811C42.8001 9.87037 42.6817 9.58449 42.6817 9.28641V1.68609C42.681 1.53807 42.7096 1.39138 42.7658 1.25444C42.8219 1.11749 42.9046 0.992998 43.009 0.888098C43.1135 0.783198 43.2376 0.699959 43.3743 0.643162C43.511 0.586365 43.6575 0.557127 43.8056 0.557129C44.105 0.557129 44.3921 0.676073 44.6039 0.887794C44.8156 1.09952 44.9345 1.38667 44.9345 1.68609V9.28641C44.9345 9.43443 44.9053 9.58099 44.8485 9.71768C44.7917 9.85437 44.7085 9.9785 44.6036 10.0829C44.4987 10.1874 44.3742 10.27 44.2372 10.3262C44.1003 10.3824 43.9536 10.411 43.8056 10.4103Z" fill="white" stroke="#263238" stroke-miterlimit="10" stroke-linecap="round"/>
<path d="M135.312 9.01438C135.313 8.58931 135.187 8.1735 134.952 7.81965C134.716 7.4658 134.381 7.18983 133.989 7.0267C133.596 6.86357 133.164 6.82063 132.747 6.90332C132.33 6.986 131.947 7.19059 131.646 7.49116C131.346 7.79173 131.141 8.17476 131.059 8.59171C130.976 9.00867 131.019 9.44078 131.182 9.8333C131.345 10.2258 131.621 10.5611 131.975 10.7966C132.329 11.0322 132.745 11.1574 133.17 11.1564C133.738 11.1564 134.283 10.9307 134.684 10.529C135.086 10.1273 135.312 9.58247 135.312 9.01438Z" fill="white" stroke="#263238" stroke-miterlimit="10" stroke-linecap="round"/>
<path d="M140.417 11.1561C141.6 11.1561 142.559 10.1971 142.559 9.01407C142.559 7.83108 141.6 6.87207 140.417 6.87207C139.234 6.87207 138.275 7.83108 138.275 9.01407C138.275 10.1971 139.234 11.1561 140.417 11.1561Z" fill="white" stroke="#263238" stroke-miterlimit="10" stroke-linecap="round"/>
<path d="M133.205 10.4103C132.907 10.4103 132.621 10.2919 132.41 10.0811C132.199 9.87037 132.081 9.58449 132.081 9.28641V1.68609C132.08 1.53807 132.109 1.39138 132.165 1.25444C132.221 1.11749 132.304 0.992998 132.408 0.888098C132.513 0.783198 132.637 0.699959 132.774 0.643162C132.91 0.586365 133.057 0.557127 133.205 0.557129C133.504 0.557129 133.792 0.676073 134.003 0.887794C134.215 1.09952 134.334 1.38667 134.334 1.68609V9.28641C134.334 9.43443 134.305 9.58099 134.248 9.71768C134.191 9.85437 134.108 9.9785 134.003 10.0829C133.898 10.1874 133.774 10.27 133.637 10.3262C133.5 10.3824 133.353 10.411 133.205 10.4103Z" fill="white" stroke="#263238" stroke-miterlimit="10" stroke-linecap="round"/>
<path d="M140.528 10.4103C140.379 10.413 140.231 10.3859 140.092 10.3306C139.953 10.2754 139.827 10.193 139.72 10.0884C139.614 9.98372 139.529 9.85891 139.471 9.72122C139.414 9.58353 139.384 9.43572 139.384 9.28641V1.68609C139.384 1.38667 139.503 1.09952 139.715 0.887794C139.926 0.676073 140.214 0.557129 140.513 0.557129C140.661 0.557127 140.808 0.586365 140.944 0.643162C141.081 0.699959 141.205 0.783198 141.31 0.888098C141.414 0.992998 141.497 1.11749 141.553 1.25444C141.609 1.39138 141.638 1.53807 141.637 1.68609V9.28641C141.637 9.58189 141.521 9.8655 141.313 10.0758C141.106 10.2862 140.824 10.4064 140.528 10.4103Z" fill="white" stroke="#263238" stroke-miterlimit="10" stroke-linecap="round"/>
<path d="M84.8109 11.1561C85.9939 11.1561 86.9529 10.1971 86.9529 9.01407C86.9529 7.83108 85.9939 6.87207 84.8109 6.87207C83.628 6.87207 82.6689 7.83108 82.6689 9.01407C82.6689 10.1971 83.628 11.1561 84.8109 11.1561Z" fill="white" stroke="#263238" stroke-miterlimit="10" stroke-linecap="round"/>
<path d="M92.0585 11.1561C93.2415 11.1561 94.2005 10.1971 94.2005 9.01407C94.2005 7.83108 93.2415 6.87207 92.0585 6.87207C90.8755 6.87207 89.9165 7.83108 89.9165 9.01407C89.9165 10.1971 90.8755 11.1561 92.0585 11.1561Z" fill="white" stroke="#263238" stroke-miterlimit="10" stroke-linecap="round"/>
<path d="M84.8463 10.4103C84.5483 10.4103 84.2624 10.2919 84.0516 10.0811C83.8408 9.87037 83.7224 9.58449 83.7224 9.28641V1.68609C83.7218 1.53807 83.7503 1.39138 83.8065 1.25444C83.8627 1.11749 83.9454 0.992998 84.0498 0.888098C84.1543 0.783198 84.2784 0.699959 84.4151 0.643162C84.5518 0.586365 84.6983 0.557127 84.8463 0.557129C85.1458 0.557129 85.4329 0.676073 85.6446 0.887794C85.8564 1.09952 85.9753 1.38667 85.9753 1.68609V9.28641C85.9753 9.43443 85.9461 9.58099 85.8893 9.71768C85.8325 9.85437 85.7492 9.9785 85.6443 10.0829C85.5394 10.1874 85.4149 10.27 85.278 10.3262C85.1411 10.3824 84.9944 10.411 84.8463 10.4103Z" fill="white" stroke="#263238" stroke-miterlimit="10" stroke-linecap="round"/>
<path d="M92.1642 10.4103C91.8661 10.4103 91.5803 10.2919 91.3695 10.0811C91.1587 9.87037 91.0403 9.58449 91.0403 9.28641V1.68609C91.0396 1.53807 91.0682 1.39138 91.1244 1.25444C91.1806 1.11749 91.2633 0.992998 91.3677 0.888098C91.4721 0.783198 91.5963 0.699959 91.7329 0.643162C91.8696 0.586365 92.0162 0.557127 92.1642 0.557129C92.3125 0.557129 92.4593 0.58633 92.5962 0.643066C92.7332 0.699801 92.8577 0.782961 92.9625 0.887794C93.0673 0.992628 93.1505 1.11708 93.2072 1.25405C93.264 1.39103 93.2932 1.53783 93.2932 1.68609V9.28641C93.2932 9.43443 93.2639 9.58099 93.2071 9.71768C93.1503 9.85437 93.0671 9.9785 92.9622 10.0829C92.8573 10.1874 92.7328 10.27 92.5959 10.3262C92.4589 10.3824 92.3122 10.411 92.1642 10.4103Z" fill="white" stroke="#263238" stroke-miterlimit="10" stroke-linecap="round"/>
<path d="M39.7432 34.6929L32.2437 41.3054" stroke="#263238" stroke-width="2" stroke-linecap="round" stroke-linejoin="round"/>
<path d="M34.552 34.6929L39.7432 40.8618" stroke="#263238" stroke-width="2" stroke-linecap="round" stroke-linejoin="round"/>
<path d="M122.747 25.2886L115.248 31.896" stroke="#263238" stroke-width="2" stroke-linecap="round" stroke-linejoin="round"/>
<path d="M117.556 25.2886L122.747 31.4575" stroke="#263238" stroke-width="2" stroke-linecap="round" stroke-linejoin="round"/>
<path d="M73.602 25.2886L66.0974 31.896" stroke="#263238" stroke-width="2" stroke-linecap="round" stroke-linejoin="round"/>
<path d="M68.4058 25.2886L73.602 31.4575" stroke="#263238" stroke-width="2" stroke-linecap="round" stroke-linejoin="round"/>
<path d="M139.903 25.1021L132.399 31.7145" stroke="#263238" stroke-width="2" stroke-linecap="round" stroke-linejoin="round"/>
<path d="M134.707 25.1021L139.903 31.271" stroke="#263238" stroke-width="2" stroke-linecap="round" stroke-linejoin="round"/>
<path d="M112.062 103.323C112.062 103.323 110.505 112.062 110.268 117.092C110.031 122.122 111.225 125.71 111.704 130.74C112.183 135.77 115.293 155.043 115.293 156.601C115.38 158.056 114.957 159.495 114.098 160.673C113.141 161.988 110.026 163.193 110.268 163.662C110.51 164.13 111.941 164.861 114.456 164.025C116.971 163.188 117.092 162.346 118.05 162.346C119.007 162.346 121.043 161.746 120.68 160.33C120.318 158.914 118.543 155.905 118.664 150.633C118.901 138.421 118.302 117.369 118.302 117.369L122.132 105.636L112.062 103.323Z" fill="white" stroke="#263238" stroke-linecap="round" stroke-linejoin="round"/>
<path d="M114.229 160.476L114.098 160.673C113.141 161.988 110.026 163.193 110.268 163.662C110.51 164.13 111.941 164.861 114.456 164.024C116.971 163.188 117.092 162.346 118.05 162.346C119.007 162.346 121.044 161.746 120.681 160.33C120.57 159.877 120.313 159.267 120.02 158.48C118.871 159.357 117.65 160.135 116.371 160.809C115.802 161.021 114.955 160.784 114.229 160.476Z" fill="#263238" stroke="#263238" stroke-linecap="round" stroke-linejoin="round"/>
<path d="M122.681 51.7131C122.681 51.7131 122.117 49.7878 121.729 48.0742C121.341 46.3606 124.249 45.6198 127.439 45.3022C130.629 44.9847 135.14 47.3636 136.471 51.1436C137.801 54.9236 136.682 68.9146 136.819 71.9689C136.955 75.0231 137.257 83.4853 134.157 84.0145C131.058 84.5437 127.797 84.7503 125.085 79.4382C122.374 74.126 125.347 60.1551 125.67 57.3478C125.993 54.5406 122.843 52.1214 122.843 52.1214L122.681 51.7131Z" fill="#263238" stroke="#263238" stroke-linecap="round" stroke-linejoin="round"/>
<path d="M129.496 47.7417C129.496 47.7417 129.284 50.9471 131.421 52.6557C133.558 54.3643 136.33 58.4215 136.33 61.6269" stroke="white" stroke-width="0.5" stroke-linecap="round" stroke-linejoin="round"/>
<path d="M133.558 56.501C133.558 56.501 135.07 62.045 133.77 66.7523" stroke="white" stroke-width="0.5" stroke-linecap="round" stroke-linejoin="round"/>
<path d="M117.112 104.825C117.112 104.825 114.592 116.215 116.916 126.058C117.551 128.75 127.343 152.891 128.115 156.752C128.886 160.612 128.886 164.09 130.433 165.441C131.98 166.792 132.953 166.212 132.167 161.772C131.639 159.292 130.792 156.892 129.647 154.63C129.647 154.63 126.749 136.098 126.361 132.046C125.973 127.994 123.659 123.165 123.659 123.165L127.328 107.335L117.112 104.825Z" fill="white" stroke="#263238" stroke-linecap="round" stroke-linejoin="round"/>
<path d="M131.668 159.68C131.481 160.688 131.078 161.56 130.236 161.394C129.842 161.318 129.479 161.129 129.192 160.848C128.905 160.568 128.708 160.209 128.624 159.816C129.002 162.366 129.309 164.468 130.433 165.446C131.975 166.797 132.953 166.217 132.167 161.777C132.04 161.069 131.874 160.369 131.668 159.68Z" fill="#263238" stroke="#263238" stroke-linecap="round" stroke-linejoin="round"/>
<path d="M128.503 158.672H128.457C128.457 158.763 128.482 158.853 128.498 158.939C128.495 158.85 128.496 158.761 128.503 158.672Z" fill="#263238" stroke="#263238" stroke-linecap="round" stroke-linejoin="round"/>
<path d="M120.605 65.7798C119.397 66.0694 118.342 66.8036 117.652 67.8361C116.644 69.5043 107.254 76.5654 106.357 77.3315C105.46 78.0975 105.586 81.9531 107.869 81.9531C110.152 81.9531 117.883 76.0513 117.883 76.0513C117.883 76.0513 120.192 73.2239 120.963 70.6585C121.734 68.0931 122.273 66.0368 120.605 65.7798Z" fill="white" stroke="#263238" stroke-linecap="round" stroke-linejoin="round"/>
<path d="M123.17 59.2376C122.273 59.2376 121.386 61.3444 121.386 61.3444L120.539 61.4704C121.3 60.5682 122.273 59.2376 122.273 59.2376C123.039 57.9524 122.777 56.0272 122.273 56.1582C121.769 56.2892 118.423 57.5694 117.909 58.2095C117.394 58.8496 115.852 63.9853 115.343 64.4994C114.834 65.0135 106.357 75.794 105.46 78.1074C104.563 80.4208 106.997 83.2432 109.053 81.832C111.11 80.4208 112.904 76.0511 113.68 72.9918C114.456 69.9325 117.662 64.1315 117.662 64.1315C117.662 64.1315 118.408 63.5267 119.174 62.8513C120.011 62.6405 120.835 62.383 121.643 62.0802C122.147 61.8232 123.568 60.0239 123.568 60.0239C123.568 60.0239 124.067 59.2376 123.17 59.2376Z" fill="white" stroke="#263238" stroke-linecap="round" stroke-linejoin="round"/>
<path d="M121.013 55.0848L118.413 59.2075C118.274 59.4279 118.22 59.6914 118.262 59.9485C118.304 60.2056 118.438 60.4385 118.639 60.6036L119.824 61.5763C119.939 61.6703 120.072 61.7393 120.216 61.7787C120.359 61.8182 120.509 61.8273 120.656 61.8054C120.803 61.7836 120.944 61.7314 121.07 61.652C121.195 61.5726 121.303 61.4679 121.386 61.3445L124.143 57.2571C124.296 57.0288 124.356 56.7505 124.31 56.4795C124.264 56.2086 124.116 55.9655 123.896 55.8005L122.555 54.7925C122.437 54.7047 122.302 54.6424 122.158 54.6095C122.014 54.5766 121.865 54.5738 121.72 54.6012C121.575 54.6287 121.438 54.6858 121.316 54.769C121.194 54.8523 121.091 54.9598 121.013 55.0848Z" fill="#263238" stroke="#263238" stroke-linecap="round" stroke-linejoin="round"/>
<path d="M129.919 56.96C129.919 56.96 129.168 61.7732 128.956 63.6128C128.745 65.4524 128.8 65.8505 130.347 66.0269C131.895 66.2033 134.45 66.9896 135.453 69.3584C136.456 71.7272 130.63 78.8991 128.901 80.4464C127.172 81.9936 126.401 84.0802 126.784 85.7132C127.167 87.3461 131.688 92.628 131.491 97.9856C131.295 103.343 124.818 118.962 124.818 118.962C124.818 118.962 116.185 115.464 109.95 116.634C109.95 116.634 112.894 95.9393 114.643 90.486C116.392 85.0328 118.171 82.0793 118.03 80.91C117.888 79.7408 115.711 76.3287 116.24 73.4458C116.77 70.5629 118.629 68.0379 119.496 66.4704C120.363 64.903 122.223 64.9232 122.898 64.9988C123.574 65.0744 124.531 65.286 125.01 64.5552C125.489 63.8244 125.917 60.0545 125.917 60.0545L129.919 56.96Z" fill="#20AC69" stroke="#263238" stroke-linecap="round" stroke-linejoin="round"/>
<path d="M119.889 77.8555L123.73 80.6325" stroke="#263238" stroke-linecap="round" stroke-linejoin="round"/>
<path d="M123.442 89.8608C123.442 89.8608 119.592 97.2092 118.72 102.461" stroke="#263238" stroke-linecap="round" stroke-linejoin="round"/>
<path d="M118.896 97.3857C118.896 97.3857 117.843 101.922 117.319 105.954" stroke="#263238" stroke-linecap="round" stroke-linejoin="round"/>
<path d="M134.082 67.9521C134.082 67.9521 132.797 68.5973 131.385 70.7796C129.974 72.9619 128.689 76.6814 128.946 77.5786C129.203 78.4757 131.642 76.9385 131.642 76.9385C131.642 76.9385 134.218 88.4851 136.516 87.593C141.138 85.7937 134.979 68.8543 134.979 68.8543C134.979 68.8543 134.979 68.2193 134.082 67.9521Z" fill="white" stroke="#263238" stroke-linecap="round" stroke-linejoin="round"/>
<path d="M124.158 69.5296C121.547 68.8845 122.243 66.3947 122.893 64.9936H122.918C123.599 65.0742 124.551 65.2809 125.03 64.5501C125.509 63.8193 125.937 60.0493 125.937 60.0493L129.919 56.98C129.919 56.98 129.168 61.7932 128.956 63.6328C128.745 65.4724 128.8 65.8705 130.347 66.0469C130.347 66.0268 127.878 70.4721 124.158 69.5296Z" fill="white" stroke="#263238" stroke-linecap="round" stroke-linejoin="round"/>
<path d="M126.396 47.5352C126.151 48.9033 126.296 50.3128 126.814 51.6024C127.676 53.4672 131.35 55.6344 131.35 55.6344C131.35 55.6344 132.797 54.1224 133.008 55.7302C133.22 57.338 132.54 58.9104 131.466 58.8852C130.393 58.86 130.236 57.6656 130.236 57.6656C129.284 59.0501 127.886 60.0659 126.275 60.5434C123.422 61.4859 121.971 61.3196 121.633 59.1272C121.295 56.9348 121.688 54.4248 122.686 51.6982C123.684 48.9716 125.998 47.5856 126.396 47.5352Z" fill="white" stroke="#263238" stroke-linecap="round" stroke-linejoin="round"/>
<path d="M137.03 66.2941L137.161 64.2428C137.795 63.6802 138.395 63.0793 138.955 62.4435C139.727 61.5464 140.241 60.2612 140.881 60.7753C141.521 61.2893 139.984 62.8316 139.984 62.8316L139.853 63.8396L142.423 63.0735C142.423 63.0735 144.862 60.6341 144.988 61.2742C145.114 61.9143 143.703 64.0966 142.68 65.2558C141.657 66.415 138.572 66.7678 138.572 66.7678C138.572 66.7678 138.441 77.0343 138.441 80.1188C138.441 83.2033 138.058 86.6708 137.161 87.3058C136.264 87.9409 133.437 87.4318 134.082 82.4271C134.727 77.4224 137.03 66.2941 137.03 66.2941Z" fill="white" stroke="#263238" stroke-linecap="round" stroke-linejoin="round"/>
<path d="M131.642 76.9486L130.871 74.5093" stroke="#263238" stroke-linecap="round" stroke-linejoin="round"/>
<path d="M61.4655 46.5474C61.4655 46.5474 63.7788 49.4806 64.0157 50.1258C64.1829 50.5956 64.3209 51.0753 64.429 51.5622L65.941 52.681C65.9886 52.7153 66.0286 52.7589 66.0586 52.8092C66.0887 52.8595 66.1081 52.9154 66.1156 52.9735C66.1232 53.0316 66.1187 53.0907 66.1026 53.147C66.0864 53.2033 66.0589 53.2557 66.0216 53.301L64.8776 54.7071C64.8776 54.7071 65.941 58.2351 65.8856 58.7391C65.8301 59.2431 62.1358 60.4981 62.1358 60.4981L61.7931 63.1995L54.7875 63.1088L54.7623 58.1041L51.9651 51.5521C51.9651 51.5521 54.47 46.8246 61.4655 46.5474Z" fill="white" stroke="#263238" stroke-linecap="round" stroke-linejoin="round"/>
<path d="M60.2561 56.4206L61.1986 56.3198C61.2948 56.7392 61.4759 57.1345 61.7307 57.4812C61.9856 57.828 62.3088 58.1188 62.6803 58.3358" fill="white"/>
<path d="M60.2561 56.4206L61.1986 56.3198C61.2948 56.7392 61.4759 57.1345 61.7307 57.4812C61.9856 57.828 62.3088 58.1188 62.6803 58.3358" stroke="#263238" stroke-linecap="round" stroke-linejoin="round"/>
<path d="M53.452 46.7136C53.452 46.7136 50.806 46.8396 50.8211 50.5037C50.8362 54.1678 54.5457 57.5597 54.7473 58.099C54.9489 58.6382 56.9346 58.3863 58.3307 57.8671C59.1115 57.6127 59.7842 57.1032 60.2409 56.4206C60.2409 56.4206 58.9053 54.4752 59.1774 53.9006C59.4496 53.3261 60.881 53.8755 60.881 53.8755C61.1979 53.6955 61.4838 53.4658 61.7277 53.195C61.9696 52.8574 63.2649 51.4008 62.3678 50.6347C61.4706 49.8686 60.0745 49.405 60.6945 48.4373C61.3144 47.4696 63.532 46.5271 62.8818 44.4456C62.2317 42.3641 60.7801 42.4296 59.5705 43.11C58.3609 43.7904 58.0283 41.598 55.6746 42.8429C53.321 44.0878 52.6607 45.9072 53.452 46.7136Z" fill="#263238" stroke="#263238" stroke-linecap="round" stroke-linejoin="round"/>
<path d="M56.5466 53.8906C56.4965 54.2788 56.4965 54.6718 56.5466 55.0599" stroke="white" stroke-width="0.5" stroke-linecap="round" stroke-linejoin="round"/>
<path d="M60.6289 48.0039C60.6289 48.0039 60.1249 48.9363 58.1089 50.7457C57.4023 51.3795 56.9005 52.2094 56.6675 53.1296" stroke="white" stroke-width="0.5" stroke-linecap="round" stroke-linejoin="round"/>
<path d="M61.1027 49.8535C61.1027 49.8535 59.0515 52.6356 57.9729 53.4622" stroke="white" stroke-width="0.5" stroke-linecap="round" stroke-linejoin="round"/>
<path d="M81.7717 46.8547C83.8558 47.8568 86.0568 48.595 88.3237 49.0521C88.3237 49.0521 85.0931 46.8647 81.9683 46.3204C81.681 46.2801 81.5248 46.7287 81.7717 46.8547Z" fill="#263238" stroke="#263238" stroke-linecap="round" stroke-linejoin="round"/>
<path d="M81.172 63.416L85.0226 53.5578C85.0226 53.5578 83.5105 51.0731 83.5105 50.3221C83.5105 49.5712 85.9197 46.8697 85.9197 46.8697C85.9197 46.8697 86.1162 45.4031 87.1645 46.1036C87.4672 46.3119 87.7108 46.5949 87.8715 46.9253C88.0323 47.2556 88.1048 47.6219 88.0818 47.9886C88.5656 48.6703 89.005 49.3824 89.3973 50.1205C89.6392 50.7052 87.351 53.956 87.351 53.956C87.351 53.956 86.968 62.912 85.96 65.9915C84.952 69.0709 84.7 69.711 84.0297 70.6132C83.3593 71.5153 80.1741 69.9277 80.1741 69.9277L81.172 63.416Z" fill="white" stroke="#263238" stroke-linecap="round" stroke-linejoin="round"/>
<path d="M63.5674 158.531L69.8321 160.809C69.9789 160.859 70.1136 160.94 70.2276 161.045C70.3416 161.15 70.4323 161.278 70.494 161.42C70.5557 161.563 70.5869 161.716 70.5858 161.872C70.5846 162.027 70.5511 162.18 70.4873 162.321C70.401 162.494 70.251 162.626 70.069 162.689C69.2727 162.977 60.997 165.814 58.5828 164.791C58.3365 164.667 58.1288 164.478 57.9822 164.244C57.8356 164.01 57.7558 163.741 57.7512 163.465C57.8311 161.606 58.0349 159.754 58.3611 157.921C58.3611 157.921 61.4355 159.378 63.5674 158.531Z" fill="#263238" stroke="#263238" stroke-linecap="round" stroke-linejoin="round"/>
<path d="M70.4973 162.326C70.5635 162.195 70.6 162.05 70.6044 161.903C70.6087 161.756 70.5808 161.61 70.5225 161.475C68.7888 162.316 65.1045 163.894 61.7479 163.954C60.4147 164.036 59.0766 163.923 57.7764 163.617C57.8084 163.864 57.8992 164.1 58.0413 164.306C58.1833 164.511 58.3725 164.679 58.5928 164.796C61.0221 165.804 69.2827 162.982 70.079 162.694C70.261 162.631 70.4111 162.499 70.4973 162.326Z" fill="white" stroke="#263238" stroke-linecap="round" stroke-linejoin="round"/>
<path d="M46.1993 156.626C46.1993 156.626 45.6348 161.822 45.9372 162.336C46.2396 162.85 47.1418 163.198 48.6941 163.097C49.17 163.087 49.6305 162.927 50.0104 162.64C50.3903 162.353 50.6703 161.954 50.8109 161.5C50.952 161.127 50.5891 157.73 50.5791 157.135C50.569 156.54 46.1993 156.626 46.1993 156.626Z" fill="#263238" stroke="#263238" stroke-linecap="round" stroke-linejoin="round"/>
<path d="M50.8262 160.527C50.3474 161.449 49.7376 162.039 48.155 162.069C47.3411 162.102 46.5363 161.888 45.8467 161.454C45.8233 161.751 45.8541 162.05 45.9374 162.336C46.2448 162.84 47.142 163.198 48.6943 163.097C49.1701 163.087 49.6306 162.927 50.0105 162.64C50.3904 162.353 50.6705 161.954 50.8111 161.5C50.8551 161.177 50.8601 160.851 50.8262 160.527Z" fill="white" stroke="#263238" stroke-linecap="round" stroke-linejoin="round"/>
<path d="M66.9189 96.8363C65.4479 97.564 63.8968 98.1171 62.2972 98.4844L48.4019 95.2739C48.4019 95.2739 47.4796 103.066 47.5048 104.406C47.53 105.747 48.0088 129.874 48.0088 129.874L46.1138 156.989C46.3103 157.393 46.6204 157.731 47.0062 157.962C47.392 158.193 47.8367 158.307 48.286 158.289C49.2082 158.285 50.1189 158.084 50.9572 157.699L56.9145 129.475L58.24 159.438C58.24 159.438 59.0615 160.229 60.9364 160.189C61.4852 160.171 62.0195 160.008 62.4851 159.717C62.9507 159.426 63.331 159.017 63.5874 158.531C63.5874 158.531 64.5098 146.939 65.8857 138.643C67.2616 130.347 67.4279 107.511 67.4279 107.511L66.9189 96.8363Z" fill="white" stroke="#263238" stroke-linecap="round" stroke-linejoin="round"/>
<path d="M53.7041 100.924C55.5266 101.319 57.3836 101.533 59.2481 101.564" stroke="#263238" stroke-linecap="round" stroke-linejoin="round"/>
<path d="M48.5532 99.4268C48.5532 99.4268 49.1983 100.284 50.9069 100.284" stroke="#263238" stroke-linecap="round" stroke-linejoin="round"/>
<path d="M62.6499 151.324C62.6499 151.324 63.9301 135.947 64.7869 124.844C65.3038 118.304 65.3746 111.737 64.9985 105.188C64.9985 105.188 67.1355 102.839 65.6386 98.7817" stroke="#263238" stroke-linecap="round" stroke-linejoin="round"/>
<path d="M62.6501 153.032L62.01 157.946" stroke="#263238" stroke-linecap="round" stroke-linejoin="round"/>
<path d="M56.8993 129.48L55.3772 109.351L51.824 105.934" stroke="#263238" stroke-linecap="round" stroke-linejoin="round"/>
<path d="M49.4553 85.7885C49.5289 85.5594 49.5259 85.3125 49.4468 85.0852C49.3677 84.8579 49.2168 84.6625 49.0169 84.5285C47.4746 83.4853 43.7349 81.3382 42.5405 84.1657C42.1914 85.269 41.9483 86.4031 41.8147 87.5525C41.4821 89.8155 41.603 105.137 41.6181 106.705C41.6184 106.789 41.6082 106.874 41.5879 106.957C41.4569 107.556 40.9075 110.177 41.2905 111.739C41.7189 113.519 42.5405 114.889 43.9365 115.267C45.3326 115.645 46.0937 114.033 45.8769 113.045C45.6602 112.057 46.1793 111.291 45.9626 110.303C45.7862 109.507 45.0302 107.425 44.7429 106.654C44.6736 106.464 44.6562 106.259 44.6925 106.059C45.0857 104.043 47.2881 92.7387 47.4545 92.1944C47.6208 91.6501 48.911 87.5475 49.4553 85.7885Z" fill="white" stroke="#263238" stroke-linecap="round" stroke-linejoin="round"/>
<path d="M43.5181 112.077C43.5181 112.077 45.2972 113.322 45.5038 114.471" stroke="#263238" stroke-linecap="round" stroke-linejoin="round"/>
<path d="M44.0825 111.044C44.0825 111.044 45.4937 111.966 45.8717 112.692" stroke="#263238" stroke-linecap="round" stroke-linejoin="round"/>
<path d="M44.3396 110.001L44.8436 110.696C44.8436 110.696 45.0956 113.468 45.8818 113.055C46.6681 112.642 46.2044 109.28 46.2044 109.28C46.2044 109.28 45.8062 108.459 44.5765 106.498" fill="white"/>
<path d="M44.3396 110.001L44.8436 110.696C44.8436 110.696 45.0956 113.468 45.8818 113.055C46.6681 112.642 46.2044 109.28 46.2044 109.28C46.2044 109.28 45.8062 108.459 44.5765 106.498" stroke="#263238" stroke-linecap="round" stroke-linejoin="round"/>
<path d="M44.2491 107.103C44.5208 108.096 44.4963 109.147 44.1785 110.127C43.7247 110.98 43.2198 111.805 42.6665 112.597C43.4055 113.303 44.0974 114.058 44.7379 114.855" stroke="#263238" stroke-linecap="round" stroke-linejoin="round"/>
<path d="M45.136 67.6046L40.5647 84.4029C40.5647 84.4029 44.3901 87.5025 49.1327 87.4269L52.192 71.4803C52.192 71.4803 48.7749 63.8044 45.136 67.6046Z" fill="#263238" stroke="#263238" stroke-linecap="round" stroke-linejoin="round"/>
<path d="M52.6959 62.0959C52.6959 62.0959 45.9826 65.4324 45.3526 66.9444C44.8486 68.2044 46.3908 77.1252 46.4211 78.6926C46.4513 80.2601 47.792 93.727 48.1548 96.3326C48.5177 98.9383 57.2268 100.047 60.5432 99.0442C63.8595 98.0412 66.9389 97.6582 66.9188 96.8215C66.8986 95.9849 66.4551 88.8986 66.6365 87.5429C66.818 86.1871 68.2241 76.0164 68.2241 76.0164L80.8796 73.3956C80.8796 73.3956 81.4642 73.0428 81.4793 70.7546C81.4813 68.5949 81.3703 66.4365 81.1467 64.2883C79.5074 64.6816 77.8123 64.7873 76.1369 64.6008C73.0827 64.3286 69.464 63.5071 68.8188 63.6886C68.1737 63.87 63.7788 62.9527 62.3324 62.7713C60.3214 62.4991 55.2159 60.7956 52.6959 62.0959Z" fill="#263238" stroke="#263238" stroke-linecap="round" stroke-linejoin="round"/>
<path d="M47.0612 86.6154L45.3022 71.8633" stroke="white" stroke-width="0.5" stroke-linecap="round" stroke-linejoin="round"/>
<path d="M45.7811 78.284L44.9243 76.3638" stroke="white" stroke-width="0.5" stroke-linecap="round" stroke-linejoin="round"/>
<path d="M68.2242 75.9907L63.29 76.787" stroke="white" stroke-width="0.5" stroke-linecap="round" stroke-linejoin="round"/>
<path d="M67.1356 76.3638L63.5068 79.7809" stroke="white" stroke-width="0.5" stroke-linecap="round" stroke-linejoin="round"/>
<path d="M78.2388 65.0439C78.2388 65.0439 74.8217 70.1696 66.4956 72.0999" stroke="white" stroke-width="0.5" stroke-linecap="round" stroke-linejoin="round"/>
</svg>
