<svg width="474" height="546" viewBox="0 0 474 546" fill="none" xmlns="http://www.w3.org/2000/svg">
<path opacity="0.1" d="M388.162 299.546C375.259 327.192 380.272 367.578 388.471 399.922C391.216 410.752 394.32 422.209 393.162 433.822C391.746 448.023 384.225 458.407 376.329 463.911C361.935 473.943 344.71 471.552 331.483 457.686C320.054 445.703 311.868 426.215 300.243 414.778C280.789 395.636 256.026 402.865 234.901 416.05C219.956 425.378 203.616 437.509 188.765 427.761C178.316 420.901 171.092 404.205 167.157 386.508C165.257 377.963 163.877 368.715 160.249 361.942C158.092 357.916 155.276 355.058 152.393 352.648C126.058 330.643 92.7977 342.427 67.2192 318.021C49.9443 301.537 38.885 270.444 33.9883 238.023C29.0916 205.601 29.662 171.605 30.9052 138.215C31.7887 114.487 33.3739 89.1543 42.3704 70.8406C51.8875 51.4674 68.2208 44.2636 82.9839 47.9458C97.7469 51.6281 111.128 64.7522 122.901 80.2101C137.614 99.5292 151.259 123.586 169.323 131.412C181.625 136.741 194.566 133.826 207.254 132.817C228.465 131.129 249.685 134.882 270.779 138.992C290.973 142.926 311.313 147.256 330.551 158.327C344.165 166.162 355.08 180.383 367.935 190.319C376.315 196.795 385.452 198.583 393.386 206.832C403.159 216.993 412.119 234.667 409.615 255.348C407.234 275.011 395.01 284.874 388.162 299.546Z" fill="#20AC69"/>
<path opacity="0.1" d="M9.61938 367.52C9.61938 367.52 83.8144 334.722 179.903 418.082C275.992 501.441 381 352.488 378.973 329.94C376.946 307.392 448.708 329.94 448.708 329.94V531.506H9.61938V367.52Z" fill="#20AC69"/>
<path d="M61.264 67.9659C72.4006 67.9659 81.4286 52.7512 81.4286 33.983C81.4286 15.2147 72.4006 0 61.264 0C50.1274 0 41.0994 15.2147 41.0994 33.983C41.0994 52.7512 50.1274 67.9659 61.264 67.9659Z" fill="#FFDF9C"/>
<path d="M202.703 173.642L199.419 208.072C199.419 208.072 195.313 230.795 195.724 241.813C196.134 252.83 195.724 267.979 195.724 267.979C195.724 267.979 185.871 298.277 194.082 310.672C202.293 323.066 204.756 271.422 204.756 271.422C204.756 271.422 203.524 249.387 206.398 237.681C209.272 225.975 209.682 200.497 209.682 200.497L202.703 173.642Z" fill="#FFCDD3"/>
<path opacity="0.05" d="M202.703 173.642L199.419 208.072C199.419 208.072 195.313 230.795 195.724 241.813C196.134 252.83 195.724 267.979 195.724 267.979C195.724 267.979 185.871 298.277 194.082 310.672C202.293 323.066 204.756 271.422 204.756 271.422C204.756 271.422 203.524 249.387 206.398 237.681C209.272 225.975 209.682 200.497 209.682 200.497L202.703 173.642Z" fill="black"/>
<path d="M250.805 292.036L256.484 327.887L261.821 369.89C261.821 369.89 264.695 378.842 261.821 397.434L271.264 449.078C271.264 449.078 276.601 482.131 279.885 482.819C283.169 483.508 276.601 508.985 276.601 508.985L267.569 500.034C267.569 500.034 265.105 479.376 261.821 474.556C258.537 469.736 247.863 421.535 247.863 421.535L244.578 387.794C244.578 387.794 234.315 341.658 225.283 330.641C216.251 319.623 213.377 301.72 213.377 301.72L250.805 292.036Z" fill="#FFCDD3"/>
<path opacity="0.05" d="M213.377 301.72C213.377 301.72 216.251 319.623 225.283 330.641C234.315 341.658 244.578 387.794 244.578 387.794L247.863 421.535C247.863 421.535 258.537 469.736 261.821 474.556C264.231 478.095 266.202 490.166 267.076 496.336C267.396 498.574 267.569 500.034 267.569 500.034L276.601 508.985C276.601 508.985 283.169 483.508 279.885 482.819C279.376 482.716 278.818 481.827 278.235 480.409C275.073 472.683 271.264 449.078 271.264 449.078L261.821 397.434C264.695 378.842 261.821 369.89 261.821 369.89L256.484 327.887L250.806 292.039L213.377 301.72Z" fill="black"/>
<path d="M160.828 480.753L164.112 493.836L178.892 491.082C178.437 487.527 178.184 483.907 178.136 480.271C178.005 472.456 178.719 461.907 182.587 453.898C189.566 439.438 200.24 403.631 200.24 403.631C200.24 403.631 210.914 384.351 213.377 376.776L233.929 318.955L233.288 313.77L238.831 305.163H204.345L196.134 358.873L189.566 380.908C189.566 380.908 175.607 400.877 170.27 442.881C170.27 442.881 164.946 470.865 161.555 479.218C161.343 479.768 161.099 480.283 160.828 480.753Z" fill="#FFCDD3"/>
<path opacity="0.1" d="M267.076 496.336C267.396 498.574 267.569 500.034 267.569 500.034L276.601 508.985C276.601 508.985 283.169 483.508 279.885 482.819C279.376 482.716 278.818 481.827 278.235 480.409C277.808 480.837 277.476 481.486 277.286 482.26C277.097 483.033 277.061 483.888 277.184 484.699C277.313 485.728 277.531 486.718 277.832 487.639C279.064 491.082 273.727 496.591 273.727 496.591C271.929 500.468 269.01 498.422 267.076 496.336Z" fill="black"/>
<path d="M277.594 486.075C277.031 482.104 279.992 479.441 281.655 482.422C282.078 483.168 282.449 483.995 282.759 484.885C284.401 489.705 296.717 493.837 299.18 492.459C301.644 491.082 310.265 489.705 308.212 500.034C306.16 510.363 269.211 525.512 269.211 525.512C269.211 525.512 265.105 515.871 265.516 508.986C265.755 504.404 265.755 499.796 265.516 495.214C265.516 495.214 271.263 504.165 274.137 497.968C274.137 497.968 279.474 492.459 278.243 489.016C277.941 488.096 277.723 487.104 277.594 486.075Z" fill="#DCE6F2"/>
<path opacity="0.1" d="M160.828 480.753L164.112 493.837L178.893 491.083C178.437 487.528 178.185 483.907 178.137 480.271C177.991 479.778 177.775 479.352 177.51 479.03C177.244 478.707 176.936 478.498 176.612 478.42C176.288 478.343 175.957 478.398 175.649 478.583C175.34 478.767 175.063 479.075 174.84 479.479C174.077 480.857 173.305 482.31 172.734 483.508C171.092 486.951 165.755 484.885 165.755 484.885C164.371 485.656 162.729 482.31 161.555 479.218C161.343 479.768 161.099 480.283 160.828 480.753Z" fill="black"/>
<path d="M174.428 480.857C174.673 480.409 174.985 480.081 175.331 479.905C175.678 479.73 176.045 479.715 176.396 479.861C176.747 480.007 177.069 480.309 177.327 480.735C177.585 481.162 177.771 481.697 177.864 482.286C178.611 487.182 180.25 493.508 183.818 495.902C189.976 500.034 198.598 506.92 195.724 513.117C192.85 519.314 182.997 524.823 174.376 520.003C165.754 515.183 153.438 503.477 153.438 503.477L159.596 475.933C159.596 475.933 162.881 487.639 165.344 486.262C165.344 486.262 170.681 488.328 172.323 484.885C172.895 483.686 173.666 482.237 174.428 480.857Z" fill="#DCE6F2"/>
<path d="M230.21 93.7662C230.21 93.7662 220.357 116.49 222.82 132.327C225.283 148.165 203.114 121.998 203.114 121.998C203.114 121.998 214.609 104.784 212.556 76.5515L230.21 93.7662Z" fill="#FFCDD3"/>
<path d="M197.777 309.294C214.198 325.821 233.904 318.935 233.904 318.935L233.494 314.115C233.781 314.163 234.068 314.211 234.348 314.252C250.043 316.58 253.61 308.606 253.61 308.606C251.155 297.031 249.23 272.489 248.031 253.519C247.858 250.792 247.702 248.182 247.559 245.738C247.234 240.208 246.992 235.553 246.836 232.407C246.701 229.639 246.631 228.041 246.631 228.041L244.989 207.383C244.989 207.383 240.473 182.594 242.526 166.068C244.274 151.993 238.577 146.908 236.849 145.71C236.578 145.534 236.298 145.395 236.014 145.294C233.762 144.399 231.255 140.537 229.121 136.397C226.012 130.422 222.048 125.886 217.606 123.217C215.541 121.957 213.788 120.621 213.788 120.621C210.914 115.112 203.114 118.555 203.114 118.555C193.671 128.884 198.598 162.625 198.598 162.625L202.522 181.437C204.711 191.911 207.827 201.716 211.423 211.033C217.458 226.65 209.272 248.01 209.272 248.01C196.545 265.225 197.777 309.294 197.777 309.294Z" fill="#FF8AA1"/>
<path opacity="0.05" d="M232.878 277.275L234.348 314.252C250.043 316.58 253.61 308.606 253.61 308.606C251.155 297.031 249.23 272.489 248.031 253.519C247.859 250.792 247.703 248.182 247.559 245.738L232.878 277.275Z" fill="black"/>
<path opacity="0.1" d="M206.809 180.528C206.809 180.528 214.198 203.941 216.662 214.269C219.125 224.598 219.125 221.155 220.357 224.598C221.588 228.041 234.725 243.19 234.725 243.19L248.031 253.519C247.469 244.622 247.062 236.945 246.836 232.407L234.315 218.401C234.315 218.401 225.694 209.449 225.283 197.743C224.872 186.037 219.535 164.691 219.535 164.691C219.535 164.691 208.861 145.41 204.345 154.362C199.829 163.314 206.809 180.528 206.809 180.528Z" fill="black"/>
<path d="M219.535 161.248C219.535 161.248 224.872 182.594 225.283 194.3C225.694 206.006 234.315 214.958 234.315 214.958L261.411 245.256C261.411 245.256 284.812 258.339 277.011 273.488C269.211 288.637 256.895 256.962 256.895 256.962L234.725 239.747C234.725 239.747 221.588 224.598 220.357 221.155C219.125 217.712 219.125 221.155 216.662 210.826C214.198 200.498 206.809 177.086 206.809 177.086C206.809 177.086 199.829 159.871 204.345 150.919C208.861 141.967 219.535 161.248 219.535 161.248Z" fill="#FFCDD3"/>
<path opacity="0.1" d="M222.82 170.199C222.82 170.199 214.609 159.871 212.967 156.428C212.242 154.908 211.117 155.132 210.086 155.858C208.163 157.24 206.07 157.819 203.986 157.547C202.19 157.288 200.445 157.461 200.65 159.182C201.061 162.625 199.419 141.279 199.419 141.279L206.398 137.147L215.43 145.41L222.82 170.199Z" fill="black"/>
<path d="M222.82 168.822C222.82 168.822 214.609 158.493 212.967 155.05C212.242 153.531 211.117 153.755 210.086 154.48C208.163 155.862 206.07 156.442 203.986 156.169C202.19 155.911 200.445 156.083 200.65 157.805C201.061 161.248 199.419 139.901 199.419 139.901L206.398 135.77L215.43 144.033L222.82 168.822Z" fill="#FF8AA1"/>
<path opacity="0.1" d="M242.154 170.2C240.672 171.29 239.055 171.765 237.441 171.585C235.827 171.406 234.262 170.576 232.878 169.167" fill="black"/>
<path opacity="0.1" d="M215.225 78.2729C215.532 74.1568 212.493 82.7057 212.146 77.9287L229.799 95.1434C229.799 95.1434 228.791 97.4708 227.502 101.146C226.834 101.274 226.161 101.339 225.488 101.341C220.177 101.341 218.496 84.4457 215.225 78.2729Z" fill="black"/>
<path d="M225.899 99.9635C235.762 99.9635 243.757 86.5528 243.757 70.0098C243.757 53.4669 235.762 40.0562 225.899 40.0562C216.036 40.0562 208.04 53.4669 208.04 70.0098C208.04 86.5528 216.036 99.9635 225.899 99.9635Z" fill="#FFCDD3"/>
<path opacity="0.1" d="M233.911 70.5327C233.777 72.4131 233.802 74.401 233.269 76.0702C232.522 78.4074 230.912 79.4708 229.566 80.8616C224.11 86.4983 222.492 99.1803 224.23 109.524C224.846 113.184 225.816 116.899 225.413 120.642C224.72 127.073 220.352 130.407 216.471 130.978C212.589 131.549 208.526 130.494 204.896 132.869C198.799 136.858 196.114 148.852 190.932 155.554C184.904 163.35 176.601 162.867 169.008 163.769C166.201 164.103 163.353 164.67 160.595 163.728C157.837 162.786 155.116 159.997 154.142 155.569C152.768 149.32 155.271 142.545 158.178 138.009C161.086 133.473 164.635 129.647 166.281 123.586C168.494 115.439 166.705 105.149 169.489 97.5098C169.995 95.9599 170.791 94.7356 171.753 94.0276C172.979 93.2553 174.339 93.7889 175.648 93.8644C180.718 94.1568 185.042 87.3734 187.397 79.8369C189.752 72.3003 190.752 63.7697 192.906 56.0655C195.343 47.3466 199.404 39.6522 204.683 35.8679C207.776 33.6508 211.152 32.8366 214.381 31.2591C218.052 29.466 221.556 26.675 225.316 25.5129C229.075 24.3507 233.335 25.1178 236.084 29.5743C238.671 33.7687 239.425 40.3502 241.898 44.7339C242.833 46.3908 244.034 47.7922 244.483 49.9449C245.549 55.0447 240.378 55.4748 238.654 57.5166C237.372 59.016 236.289 60.9468 235.473 63.1871C234.657 65.4274 234.125 67.9286 233.911 70.5327Z" fill="black"/>
<path d="M233.09 69.8441C232.956 71.7244 232.981 73.7123 232.448 75.3815C231.701 77.7187 230.091 78.7821 228.745 80.1729C223.289 85.8096 221.671 98.4916 223.409 108.835C224.025 112.496 224.995 116.21 224.592 119.953C223.899 126.384 219.531 129.718 215.65 130.29C211.768 130.861 207.705 129.805 204.075 132.181C197.978 136.17 195.293 148.163 190.111 154.866C184.083 162.661 175.78 162.178 168.187 163.08C165.38 163.414 162.532 163.981 159.774 163.039C157.016 162.097 154.295 159.309 153.321 154.88C151.947 148.632 154.45 141.856 157.357 137.321C160.265 132.785 163.814 128.958 165.46 122.897C167.673 114.75 165.884 104.46 168.668 96.8211C169.174 95.2712 169.97 94.0469 170.932 93.339C172.158 92.5667 173.518 93.1003 174.827 93.1757C179.897 93.4681 184.221 86.6847 186.576 79.1482C188.931 71.6117 189.931 63.081 192.085 55.3768C194.522 46.658 198.583 38.9635 203.862 35.1792C206.955 32.9622 210.331 32.1479 213.56 30.5705C217.231 28.7774 220.735 25.9864 224.495 24.8242C228.254 23.6621 232.514 24.4291 235.263 28.8856C237.85 33.08 238.604 39.6615 241.077 44.0452C242.012 45.7022 243.213 47.1036 243.662 49.2562C244.728 54.356 239.557 54.7862 237.833 56.828C236.551 58.3273 235.468 60.2581 234.652 62.4984C233.836 64.7387 233.304 67.2399 233.09 69.8441Z" fill="#20AC69"/>
<path d="M24.4179 531.847C24.4179 531.847 11.0384 491.534 27.6614 459.42C44.2843 427.306 63.7453 445.071 63.7453 445.071C63.7453 445.071 88.0715 464.203 82.3954 509.982C82.3954 509.982 79.1519 533.213 69.4214 531.847H24.4179Z" fill="#20AC69"/>
<path opacity="0.2" d="M24.4179 531.847C24.4179 531.847 11.0384 491.534 27.6614 459.42C44.2843 427.306 63.7453 445.071 63.7453 445.071C63.7453 445.071 88.0715 464.203 82.3954 509.982C82.3954 509.982 79.1519 533.213 69.4214 531.847H24.4179Z" fill="white"/>
<path d="M45.4329 531.905L60.0962 456.687" stroke="#535461" stroke-width="0.175151" stroke-miterlimit="10"/>
<path d="M73.4757 468.303C73.4757 468.303 65.9263 462.316 58.3487 465.651C58.3487 465.651 54.4201 449.171 45.5005 446.438" stroke="#535461" stroke-width="0.175151" stroke-miterlimit="10"/>
<path d="M77.1246 494.267C77.1246 494.267 64.287 478.631 54.8938 483.374C54.8938 483.374 44.2842 462.153 36.9863 463.52" stroke="#535461" stroke-width="0.175151" stroke-miterlimit="10"/>
<path d="M74.2866 522.281C74.2866 522.281 63.3142 508.907 49.7448 509.786C49.7448 509.786 39.419 488.801 29.6885 487.434" stroke="#535461" stroke-width="0.175151" stroke-miterlimit="10"/>
<path d="M51.2904 531.905C49.6083 530.567 47.8532 529.507 46.0498 528.74C46.0498 528.74 37.5943 510.21 20.6672 516.246" stroke="#535461" stroke-width="0.175151" stroke-miterlimit="10"/>
<path d="M169.159 531.847C169.159 531.847 182.538 494.95 149.292 440.288C116.046 385.626 118.074 375.377 120.912 367.178C120.912 367.178 94.1528 372.644 99.8289 440.288C105.505 507.932 129.831 531.847 129.831 531.847H169.159Z" fill="#20AC69"/>
<path d="M150.306 531.847C150.306 531.847 140.373 483.334 125.371 453.954C110.37 424.573 113.208 376.06 120.912 367.178" stroke="#535461" stroke-width="0.350303" stroke-miterlimit="10"/>
<path d="M388.185 94.819C382.21 105.037 381.818 120.712 381.818 120.712C381.818 120.712 391.112 119.819 397.086 109.601C403.061 99.3832 403.454 83.7087 403.454 83.7087C403.454 83.7087 394.16 84.6009 388.185 94.819Z" fill="#20AC69"/>
<path d="M32.6163 250.606C26.6416 260.824 26.2488 276.498 26.2488 276.498C26.2488 276.498 35.5429 275.606 41.5176 265.388C47.4922 255.17 47.885 239.495 47.885 239.495C47.885 239.495 38.5909 240.388 32.6163 250.606Z" fill="#FC6681"/>
<path d="M365.48 284.086C359.506 294.304 359.113 309.979 359.113 309.979C359.113 309.979 368.407 309.086 374.382 298.868C380.356 288.65 380.749 272.976 380.749 272.976C380.749 272.976 371.455 273.868 365.48 284.086Z" fill="#20AC69"/>
<path d="M72.6884 272.855C64.8154 267.401 56.0574 272.719 56.0574 272.719C56.0574 272.719 60.0639 286.88 67.9369 292.334C75.8099 297.788 84.5679 292.471 84.5679 292.471C84.5679 292.471 80.5614 278.309 72.6884 272.855Z" fill="#20AC69"/>
<path d="M171.682 252.367C167.131 240.244 158.162 236.045 158.162 236.045C158.162 236.045 156.57 251.503 161.121 263.626C165.672 275.75 174.641 279.948 174.641 279.948C174.641 279.948 176.233 264.49 171.682 252.367Z" fill="#FFD037"/>
<path d="M281.519 308.403C283.46 308.403 285.034 305.751 285.034 302.48C285.034 299.208 283.46 296.556 281.519 296.556C279.577 296.556 278.004 299.208 278.004 302.48C278.004 305.751 279.577 308.403 281.519 308.403Z" fill="#FC6681"/>
<path d="M289.72 371.585C291.661 371.585 293.234 368.933 293.234 365.662C293.234 362.39 291.661 359.738 289.72 359.738C287.778 359.738 286.205 362.39 286.205 365.662C286.205 368.933 287.778 371.585 289.72 371.585Z" fill="#FC6681"/>
<path d="M215.581 384.943C215.581 384.943 202.202 359.662 197.337 391.093C192.471 422.523 189.633 426.623 179.903 418.424C170.172 410.224 160.036 449.171 183.957 477.185C207.878 505.199 194.499 532.872 194.499 532.872H280.046C280.046 532.872 291.398 477.185 266.666 458.054C241.935 438.922 242.746 424.573 243.556 405.441C244.367 386.31 215.581 384.943 215.581 384.943Z" fill="#20AC69"/>
<path d="M204.229 375.329C204.229 375.329 259.774 498.708 240.718 532.872" stroke="#535461" stroke-width="0.350303" stroke-miterlimit="10"/>
<path d="M189.868 420.411C189.868 420.411 203.013 439.264 224.501 429.698C245.989 420.132 240.691 395.592 240.691 395.592" stroke="#535461" stroke-width="0.350303" stroke-miterlimit="10"/>
<path d="M279.823 480.05C279.823 480.05 251.227 456.677 236.85 465.394C199.419 488.089 171.592 426.964 171.592 426.964" stroke="#535461" stroke-width="0.350303" stroke-miterlimit="10"/>
<path d="M196.729 531.847C196.729 531.847 214.162 509.982 192.269 433.455C192.269 433.455 163.077 372.644 192.269 315.249C192.269 315.249 128.615 317.982 129.831 417.74C131.048 517.498 161.658 531.847 161.658 531.847H196.729Z" fill="#20AC69"/>
<path d="M180.444 531.847C180.444 531.847 176.052 479.235 164.294 447.121C161.974 440.632 160.304 433.543 159.354 426.139C155.423 397.012 161.026 366.552 173.721 345.706L192.269 315.249" stroke="#535461" stroke-width="0.350303" stroke-miterlimit="10"/>
<path opacity="0.1" d="M196.729 531.847C196.729 531.847 214.162 509.982 192.269 433.455C192.269 433.455 163.077 372.644 192.269 315.249C192.269 315.249 128.615 317.982 129.831 417.74C131.048 517.498 161.658 531.847 161.658 531.847H196.729Z" fill="black"/>
<path d="M353 531.245C353 531.245 293.343 508.768 369.249 377.243C369.249 377.243 401.969 429.505 389.966 494.473C385.139 520.594 369.614 536.721 353.889 531.554C353.595 531.457 353.298 531.354 353 531.245Z" fill="#20AC69"/>
<path opacity="0.4" d="M353 531.245C351.69 530.752 294.627 506.542 369.249 377.243C369.249 377.243 401.969 429.505 389.966 494.473C385.14 520.594 369.614 536.721 353.889 531.554C353.595 531.457 353.298 531.354 353 531.245Z" fill="white"/>
<path d="M353.783 531.993C353.783 531.993 385.294 451.992 369.249 377.243" stroke="#535461" stroke-width="0.175151" stroke-miterlimit="10"/>
<path d="M106.089 531.245C106.089 531.245 46.4311 508.768 122.337 377.243C122.337 377.243 155.058 429.505 143.054 494.473C138.228 520.594 122.702 536.721 106.978 531.554C106.683 531.457 106.387 531.354 106.089 531.245Z" fill="#20AC69"/>
<path opacity="0.4" d="M106.089 531.245C104.779 530.752 47.7161 506.542 122.337 377.243C122.337 377.243 155.058 429.505 143.054 494.473C138.228 520.594 122.703 536.721 106.978 531.554C106.683 531.457 106.387 531.354 106.089 531.245Z" fill="white"/>
<path d="M106.872 531.993C106.872 531.993 138.382 451.992 122.337 377.243" stroke="#535461" stroke-width="0.175151" stroke-miterlimit="10"/>
<path d="M239.477 531.245C239.477 531.245 179.82 508.768 255.726 377.243C255.726 377.243 288.447 429.505 276.443 494.473C271.617 520.594 256.091 536.721 240.366 531.554C240.072 531.457 239.776 531.354 239.477 531.245Z" fill="#20AC69"/>
<path opacity="0.4" d="M239.477 531.245C238.167 530.752 181.105 506.542 255.726 377.243C255.726 377.243 288.447 429.505 276.443 494.473C271.617 520.594 256.091 536.721 240.367 531.554C240.072 531.457 239.776 531.354 239.477 531.245Z" fill="white"/>
<path d="M240.261 531.993C240.261 531.993 271.771 451.992 255.726 377.243" stroke="#535461" stroke-width="0.175151" stroke-miterlimit="10"/>
<path d="M422.735 531.245C422.735 531.245 363.078 508.768 438.984 377.243C438.984 377.243 471.705 429.505 459.701 494.473C454.875 520.594 439.349 536.721 423.624 531.554C423.33 531.457 423.033 531.354 422.735 531.245Z" fill="#20AC69"/>
<path opacity="0.4" d="M422.735 531.245C421.425 530.752 364.363 506.542 438.984 377.243C438.984 377.243 471.705 429.505 459.701 494.473C454.875 520.594 439.349 536.721 423.624 531.554C423.33 531.457 423.034 531.354 422.735 531.245Z" fill="white"/>
<path d="M423.519 531.993C423.519 531.993 455.029 451.992 438.984 377.243" stroke="#535461" stroke-width="0.175151" stroke-miterlimit="10"/>
<path d="M311.645 531.245C311.645 531.245 251.988 508.768 327.894 377.243C327.894 377.243 360.615 429.505 348.611 494.473C343.785 520.594 328.259 536.721 312.535 531.554C312.24 531.457 311.944 531.354 311.645 531.245Z" fill="#20AC69"/>
<path opacity="0.4" d="M311.645 531.245C310.335 530.752 253.273 506.542 327.894 377.243C327.894 377.243 360.615 429.505 348.611 494.473C343.785 520.594 328.259 536.721 312.535 531.554C312.24 531.457 311.944 531.354 311.645 531.245Z" fill="white"/>
<path d="M312.429 531.993C312.429 531.993 343.939 451.992 327.894 377.243" stroke="#535461" stroke-width="0.175151" stroke-miterlimit="10"/>
<path d="M104.091 523.389C105.852 521.139 107.504 518.484 108.011 515.254C108.273 513.544 108.134 511.73 107.624 510.188C107.114 508.646 106.272 507.493 105.272 506.968C102.756 505.645 100.067 508.043 98.029 510.464C95.9907 512.886 93.6546 515.65 90.9868 515.137C93.7507 511.773 95.0645 506.306 94.3024 501.34C94.1724 500.269 93.8505 499.292 93.3803 498.539C91.9837 496.486 89.4519 497.367 87.7796 498.985C82.4615 504.128 80.9776 514.061 80.9486 523.001C80.4123 519.776 80.864 516.416 80.8508 513.108C80.8376 509.8 80.1783 506.133 78.1488 504.356C76.9439 503.301 75.4553 503.097 74.0278 503.024C71.6372 502.904 68.9747 503.233 67.3421 505.637C65.3136 508.624 65.8397 513.636 67.6044 516.924C69.3691 520.213 72.0535 522.273 74.5243 524.545C76.4074 526.276 78.3118 528.298 79.4695 531.03C79.617 531.392 79.7399 531.781 79.8361 532.189H94.8228C98.116 529.912 101.229 526.956 104.091 523.389Z" fill="#20AC69"/>
<path d="M355.057 523.389C356.818 521.139 358.47 518.484 358.977 515.254C359.239 513.544 359.1 511.73 358.59 510.188C358.08 508.646 357.238 507.493 356.238 506.968C353.722 505.645 351.033 508.043 348.995 510.464C346.957 512.886 344.62 515.65 341.953 515.137C344.716 511.773 346.03 506.306 345.268 501.34C345.138 500.269 344.816 499.292 344.346 498.539C342.95 496.486 340.418 497.367 338.745 498.985C333.427 504.128 331.943 514.061 331.914 523.001C331.378 519.776 331.83 516.416 331.817 513.108C331.803 509.8 331.144 506.133 329.115 504.356C327.91 503.301 326.421 503.097 324.994 503.024C322.603 502.904 319.941 503.233 318.308 505.637C316.279 508.624 316.806 513.636 318.57 516.924C320.335 520.213 323.019 522.273 325.49 524.545C327.373 526.276 329.278 528.298 330.435 531.03C330.583 531.392 330.706 531.781 330.802 532.189H345.789C349.082 529.912 352.195 526.956 355.057 523.389Z" fill="#20AC69"/>
<path d="M274.426 474.218C287.533 515.183 315.351 532.768 315.351 532.768C315.351 532.768 321.918 483.936 308.811 442.971C295.704 402.005 267.886 384.42 267.886 384.42C267.886 384.42 261.319 433.252 274.426 474.218Z" fill="#3F3D56"/>
<path d="M283.435 460.74C307.098 484.734 316.212 532.391 316.212 532.391C316.212 532.391 286.959 541.147 263.295 517.154C239.632 493.161 230.518 445.504 230.518 445.504C230.518 445.504 259.771 436.747 283.435 460.74Z" fill="#20AC69"/>
<path d="M198.203 474.218C211.31 515.183 239.129 532.768 239.129 532.768C239.129 532.768 245.696 483.936 232.589 442.971C219.481 402.005 191.663 384.42 191.663 384.42C191.663 384.42 185.096 433.252 198.203 474.218Z" fill="#3F3D56"/>
<path d="M207.212 460.74C230.876 484.734 239.99 532.391 239.99 532.391C239.99 532.391 210.737 541.147 187.073 517.154C163.409 493.161 154.296 445.504 154.296 445.504C154.296 445.504 183.549 436.747 207.212 460.74Z" fill="#20AC69"/>
<path d="M120.261 335.775C97.5857 392.983 103.214 466.388 103.214 466.388C103.214 466.388 145.605 447.04 168.28 389.831C190.955 332.622 185.327 259.217 185.327 259.217C185.327 259.217 142.936 278.566 120.261 335.775Z" fill="#3F3D56"/>
<path d="M136.942 346.275C134.729 414.972 104.103 468.023 104.103 468.023C104.103 468.023 77.0664 409.695 79.28 340.998C81.4936 272.301 112.119 219.25 112.119 219.25C112.119 219.25 139.156 277.578 136.942 346.275Z" fill="#FC6681"/>
<path d="M443.061 424.221C443.914 502.126 416.731 530.179 382.834 531.233C382.047 531.258 381.263 531.267 380.483 531.262C378.911 531.254 377.356 531.182 375.815 531.045C345.182 528.347 321.098 500.492 320.305 428.04C319.483 353.062 375.308 256.672 379.496 249.543C379.5 249.543 379.5 249.543 379.503 249.537C379.662 249.265 379.744 249.129 379.744 249.129C379.744 249.129 442.208 346.322 443.061 424.221Z" fill="#20AC69"/>
<path d="M380.47 519.386L402.339 465.829L380.477 525.191L380.483 531.262C378.912 531.254 377.356 531.181 375.816 531.045L377.38 453.033L377.355 452.431L377.395 452.315L377.544 444.944L354.338 386.838L377.551 439.424L377.625 440.984L378.807 382.044L358.827 321.875L378.931 371.688L379.496 249.543L379.499 249.137L379.503 249.537L380.242 345.824L399.047 307.058L380.25 354.118L380.319 406.86L397.722 355.702L380.332 414.614L380.371 443.941L405.66 372.698L380.381 454.172L380.47 519.386Z" fill="#3F3D56"/>
<path d="M347.783 424.221C348.637 502.126 321.453 530.179 287.556 531.233C286.769 531.258 285.985 531.267 285.205 531.262C283.634 531.254 282.078 531.182 280.538 531.045C249.904 528.347 225.821 500.492 225.027 428.04C224.205 353.062 280.03 256.672 284.218 249.543C284.222 249.543 284.222 249.543 284.225 249.537C284.384 249.265 284.466 249.129 284.466 249.129C284.466 249.129 346.93 346.322 347.783 424.221Z" fill="#20AC69"/>
<path d="M285.192 519.386L307.061 465.829L285.199 525.191L285.205 531.262C283.634 531.254 282.078 531.181 280.537 531.045L282.102 453.033L282.077 452.431L282.117 452.315L282.266 444.944L259.06 386.838L282.273 439.424L282.347 440.984L283.529 382.044L263.549 321.875L283.653 371.688L284.218 249.543L284.221 249.137L284.225 249.537L284.964 345.824L303.769 307.058L284.972 354.118L285.041 406.86L302.444 355.702L285.054 414.614L285.093 443.941L310.382 372.698L285.103 454.172L285.192 519.386Z" fill="#3F3D56"/>
<path d="M461.711 425.588C462.564 503.492 435.381 531.545 401.484 532.6C400.697 532.625 399.913 532.634 399.133 532.629C397.561 532.62 396.005 532.548 394.465 532.412C363.832 529.713 339.748 501.858 338.955 429.407C338.133 354.429 393.958 258.039 398.146 250.91C398.149 250.91 398.149 250.91 398.153 250.903C398.312 250.632 398.394 250.496 398.394 250.496C398.394 250.496 460.858 347.689 461.711 425.588Z" fill="#3F3D56"/>
<path d="M399.12 520.753L420.989 467.195L399.127 526.557L399.133 532.629C397.562 532.62 396.006 532.548 394.466 532.412L396.03 454.4L396.005 453.798L396.045 453.682L396.194 446.31L372.989 388.204L396.202 440.791L396.275 442.351L397.457 383.41L377.477 323.241L397.581 373.054L398.146 250.91L398.149 250.503L398.154 250.903L398.892 347.191L417.698 308.425L398.9 355.485L398.969 408.227L416.373 357.069L398.982 415.981L399.021 445.308L424.31 374.065L399.031 455.539L399.12 520.753Z" fill="#FC6681"/>
<path d="M122.765 424.221C123.619 502.126 96.4355 530.179 62.5386 531.234C61.7513 531.258 60.9675 531.268 60.1874 531.262C58.6159 531.254 57.0599 531.182 55.5197 531.045C24.8867 528.347 0.802696 500.492 0.0089751 428.041C-0.812441 353.063 55.0124 256.672 59.2002 249.543C59.2039 249.543 59.2039 249.543 59.2076 249.537C59.3667 249.265 59.4481 249.129 59.4481 249.129C59.4481 249.129 121.912 346.323 122.765 424.221Z" fill="#20AC69"/>
<path d="M60.1741 519.386L82.0434 465.829L60.1811 525.191L60.1874 531.262C58.6158 531.254 57.0599 531.181 55.5196 531.045L57.0843 453.033L57.0589 452.431L57.0991 452.315L57.2482 444.944L34.0425 386.838L57.2556 439.424L57.3292 440.984L58.5112 382.044L38.5312 321.875L58.6351 371.688L59.2001 249.543L59.2031 249.137L59.2075 249.537L59.9459 345.824L78.7515 307.058L59.9538 354.118L60.0229 406.86L77.4265 355.702L60.0362 414.614L60.0749 443.941L85.3644 372.698L60.0852 454.172L60.1741 519.386Z" fill="#3F3D56"/>
<path d="M372.235 543.112C357.646 538.947 343.616 535.37 330.145 532.381L335.47 514.98C333.675 513.928 325.785 523.894 325.785 523.894L332.774 473.381C323.742 475.217 319.15 526.793 319.15 526.793L309.059 509.356L313.944 528.96C272.714 520.777 237.106 517.743 207.155 517.634L211.713 502.74C209.917 501.689 202.028 511.654 202.028 511.654L209.017 461.142C199.985 462.977 195.393 514.553 195.393 514.553L185.302 497.116L190.476 517.88C165.367 518.726 144.892 521.615 129.087 524.907C133.698 501.706 149.36 479.639 149.36 479.639C137.399 485.634 131.125 495.68 127.846 505.046C127.553 457.172 132.277 409.587 141.799 364.481C141.799 364.481 117.077 455.147 120.231 516.005L120.609 526.812C99.6494 531.869 89.1121 537.131 89.1121 537.131L372.235 543.112Z" fill="#3F3D56"/>
<path d="M419.672 539.013C405.083 534.848 391.053 531.27 377.581 528.281L382.907 510.88C381.111 509.829 373.221 519.794 373.221 519.794L380.21 469.282C371.178 471.117 366.586 522.693 366.586 522.693L356.495 505.256L361.381 524.86C320.15 516.677 284.542 513.643 254.591 513.534L259.149 498.64C257.354 497.589 249.464 507.554 249.464 507.554L256.453 457.042C247.421 458.878 242.829 510.454 242.829 510.454L232.738 493.016L237.912 513.78C212.804 514.627 192.328 517.515 176.524 520.808C181.134 497.606 196.796 475.539 196.796 475.539C184.835 481.534 178.561 491.58 175.283 500.946C174.99 453.073 179.713 405.488 189.236 360.382C189.236 360.382 164.513 451.047 167.668 511.905L168.045 522.712C147.086 527.77 136.548 533.032 136.548 533.032L419.672 539.013Z" fill="#3F3D56"/>
<path d="M474 545.846C459.411 541.68 445.381 538.103 431.909 535.114L437.235 517.713C435.439 516.662 427.549 526.627 427.549 526.627L434.538 476.115C425.507 477.95 420.915 529.526 420.915 529.526L410.824 512.089L415.709 531.693C374.478 523.51 338.87 520.476 308.92 520.367L313.478 505.473C311.682 504.422 303.792 514.387 303.792 514.387L310.781 463.875C301.749 465.71 297.157 517.286 297.157 517.286L287.067 499.849L292.241 520.613C267.132 521.46 246.656 524.348 230.852 527.641C235.462 504.439 251.124 482.372 251.124 482.372C239.163 488.367 232.889 498.413 229.611 507.779C229.318 459.905 234.041 412.321 243.564 367.214C243.564 367.214 218.841 457.88 221.996 518.738L222.373 529.545C201.414 534.603 190.877 539.865 190.877 539.865L474 545.846Z" fill="#3F3D56"/>
<path d="M294.391 539.013C279.802 534.848 265.772 531.27 252.301 528.281L257.626 510.88C255.83 509.829 247.941 519.794 247.941 519.794L254.93 469.282C245.898 471.117 241.306 522.693 241.306 522.693L231.215 505.256L236.1 524.86C194.87 516.677 159.261 513.643 129.311 513.534L133.869 498.64C132.073 497.589 124.183 507.554 124.183 507.554L131.172 457.042C122.141 458.878 117.548 510.454 117.548 510.454L107.458 493.016L112.632 513.78C87.5233 514.627 67.0475 517.515 51.2432 520.808C55.8536 497.606 71.5154 475.539 71.5154 475.539C59.5546 481.534 53.2805 491.58 50.0021 500.946C49.7091 453.073 54.4325 405.488 63.955 360.382C63.955 360.382 39.2325 451.047 42.387 511.905L42.7643 522.712C21.8052 527.77 11.2678 533.032 11.2678 533.032L294.391 539.013Z" fill="#3F3D56"/>
</svg>
