<svg width="160" height="180" viewBox="0 0 160 180" fill="none" xmlns="http://www.w3.org/2000/svg">
<path d="M73.2123 180C113.646 180 146.425 175.525 146.425 170.004C146.425 164.484 113.646 160.009 73.2123 160.009C32.7782 160.009 0 164.484 0 170.004C0 175.525 32.7782 180 73.2123 180Z" fill="#EAEAEA"/>
<path d="M67.9976 65.5242C67.9976 65.5242 61.0101 66.3977 58.444 66.5738C55.8779 66.7499 53.2305 68.687 52.7972 69.0674C52.3639 69.4478 50.3191 72.4487 51.0029 74.7592C51.6868 77.0697 54.5102 79.2957 55.7086 79.4718C56.9071 79.6479 66.4945 74.6183 68.634 72.8361L67.9976 65.5242Z" fill="white"/>
<path d="M55.7507 79.824H55.6627C54.2747 79.6197 51.37 77.2106 50.6726 74.893C49.9143 72.3289 52.1622 69.1661 52.582 68.8068C52.582 68.8068 55.5002 66.4399 58.4251 66.2427C60.9506 66.0666 67.9042 65.2001 67.9584 65.1931C68.0043 65.1872 68.0509 65.191 68.0953 65.2043C68.1398 65.2175 68.1813 65.2399 68.2173 65.2701C68.2533 65.3003 68.2831 65.3378 68.3049 65.3802C68.3267 65.4226 68.3401 65.4692 68.3443 65.5171L68.9808 72.8361C68.9872 72.896 68.9787 72.9566 68.9562 73.0121C68.9337 73.0675 68.8978 73.1161 68.8521 73.1531C66.8683 74.7662 57.484 79.824 55.7507 79.824ZM67.6808 65.9116C66.2183 66.0948 60.6798 66.771 58.4658 66.926C56.2517 67.081 53.7262 68.7575 53.0492 69.3351C52.7309 69.5958 50.7268 72.4698 51.37 74.6394C52.0132 76.809 54.6877 78.9364 55.7845 79.0984C56.8814 79.2604 65.8797 74.5549 68.2969 72.66L67.6808 65.9116Z" fill="#231F20"/>
<path d="M52.0132 75.2593C52.0132 75.2593 56.6918 79.4858 58.2287 79.5281C59.7657 79.5704 58.9058 77.922 58.9058 77.922C58.9058 77.922 60.3818 79.1266 60.6391 78.1263C60.8964 77.126 60.5714 76.7174 60.5714 76.7174C60.5714 76.7174 61.7902 78.4503 62.1152 77.1824C62.4401 75.9144 62.2438 75.5129 62.2438 75.5129C62.2438 75.5129 63.2052 77.5205 63.6521 76.1187C64.099 74.7169 61.4719 69.7789 58.8449 67.4402C58.8449 67.4402 61.9188 67.7783 62.1761 66.6442C62.4334 65.5101 59.6777 65.0381 58.5199 64.9747C57.3621 64.9113 55.1345 66.4399 53.1371 66.6442C51.4221 66.7189 49.7041 66.6293 48.0049 66.3765L48.2622 74.1252L52.0132 75.2593Z" fill="white"/>
<path d="M58.317 79.8943H58.2154C56.6514 79.8309 52.5415 76.2172 51.8441 75.5903L48.1337 74.4773C48.0615 74.4575 47.9973 74.4139 47.9509 74.3529C47.9045 74.2919 47.8784 74.2169 47.8764 74.1392L47.6191 66.3905C47.6188 66.3368 47.6288 66.2836 47.6486 66.234C47.6683 66.1844 47.6975 66.1394 47.7343 66.1017C47.7736 66.0682 47.8191 66.0434 47.868 66.0288C47.9169 66.0143 47.9682 66.0103 48.0186 66.0172C49.6912 66.2635 51.3818 66.3507 53.0696 66.2778C54.1088 66.1053 55.1203 65.7853 56.0758 65.3269C56.8357 64.9334 57.6606 64.6944 58.5065 64.6224C58.5404 64.6224 61.5195 64.8126 62.3049 65.9045C62.3935 66.0211 62.4554 66.1572 62.4859 66.3025C62.5164 66.4477 62.5147 66.5983 62.481 66.7428C62.2643 67.7078 60.7815 67.8698 59.7727 67.8698C62.1966 70.4269 64.4445 74.7802 63.9773 76.2454C63.8284 76.7174 63.5846 76.9498 63.2664 76.9921C63.1382 76.9893 63.0119 76.9591 62.8955 76.9034C62.779 76.8476 62.6748 76.7675 62.5893 76.6681C62.5893 76.8512 62.5148 77.0555 62.4607 77.288C62.3253 77.8163 62.0476 77.9924 61.8378 77.9924C61.7008 78.0074 61.5624 77.9933 61.4309 77.9509C61.2993 77.9085 61.1775 77.8388 61.0727 77.7458C61.0512 77.9 61.0218 78.0528 60.9846 78.2037C60.957 78.3463 60.8936 78.4788 60.8009 78.5877C60.7081 78.6966 60.5893 78.778 60.4565 78.8236C60.14 78.9052 59.8058 78.8651 59.5154 78.7109C59.5496 78.9549 59.5017 79.2038 59.38 79.4153C59.2634 79.5904 59.1021 79.7281 58.9142 79.8127C58.7263 79.8974 58.5195 79.9257 58.317 79.8943ZM48.5671 73.8433L52.1082 74.907C52.1565 74.9214 52.2007 74.948 52.2368 74.9845C54.0852 76.6399 57.2066 79.1195 58.2425 79.1617C58.5065 79.1617 58.6894 79.1265 58.7435 79.0279C58.7977 78.9293 58.6894 78.3235 58.5675 78.1051C58.5303 78.0316 58.5181 77.9472 58.5331 77.8656C58.548 77.7841 58.5892 77.7102 58.6498 77.6562C58.7104 77.6021 58.7869 77.5711 58.8666 77.5682C58.9464 77.5653 59.0247 77.5907 59.0888 77.6402C59.3963 77.9269 59.7821 78.1067 60.1925 78.1544C60.1925 78.1544 60.2399 78.1544 60.2669 78.0347C60.3997 77.6862 60.3997 77.2983 60.2669 76.9498C60.2127 76.874 60.1894 76.7789 60.2021 76.6853C60.2147 76.5917 60.2624 76.507 60.3347 76.4497C60.4065 76.3934 60.4964 76.3679 60.5858 76.3784C60.6752 76.3889 60.7573 76.4345 60.8154 76.5061C61.0237 76.8377 61.3136 77.1053 61.655 77.2809C61.6854 77.2176 61.7104 77.1516 61.7294 77.0837C61.8874 76.6334 61.9362 76.1495 61.8716 75.6748C61.8511 75.6325 61.8391 75.5862 61.8362 75.5389C61.8333 75.4915 61.8396 75.4441 61.8548 75.3993C61.87 75.3546 61.8937 75.3135 61.9245 75.2785C61.9553 75.2436 61.9926 75.2154 62.0341 75.1958C62.1187 75.1541 62.2156 75.1485 62.3041 75.1801C62.3927 75.2116 62.4659 75.278 62.5081 75.3649C62.6564 75.7185 62.8896 76.0265 63.1851 76.2595C63.2241 76.1797 63.2581 76.0974 63.2867 76.013C63.6456 74.907 61.2555 70.124 58.581 67.736C58.524 67.6852 58.484 67.6169 58.467 67.5408C58.4499 67.4648 58.4567 67.3851 58.4862 67.3133C58.516 67.242 58.5669 67.1824 58.6314 67.1432C58.6959 67.1039 58.7707 67.087 58.8451 67.095C60.0096 67.2218 61.682 67.095 61.8039 66.5737C61.8128 66.5332 61.8126 66.4912 61.8032 66.4508C61.7938 66.4105 61.7755 66.373 61.7497 66.3412C61.3367 65.7706 59.5492 65.4114 58.4659 65.355C57.7249 65.442 57.0049 65.6663 56.3399 66.0172C55.3219 66.5028 54.2441 66.8394 53.1373 67.0175C51.5343 67.1042 49.9271 67.0335 48.3369 66.8061L48.5671 73.8433Z" fill="#231F20"/>
<path d="M63.2393 66.2285C62.2568 66.1862 61.2727 66.2145 60.294 66.313C58.52 66.4891 56.6107 67.0174 55.5206 68.4685C55.4496 68.5433 55.3976 68.6352 55.3693 68.736C55.3409 68.8368 55.3371 68.9434 55.3581 69.0462C55.4393 69.2504 55.6831 69.3138 55.8862 69.3491C57.3545 69.5861 58.8477 69.605 60.3211 69.4054C60.521 69.3523 60.7305 69.3523 60.9304 69.4054C61.084 69.4775 61.2239 69.5777 61.3434 69.7013C61.9275 70.2051 62.6511 70.5013 63.4085 70.5466" fill="white"/>
<path d="M63.4083 70.8918C62.5729 70.8475 61.7743 70.5211 61.1333 69.962L61.0724 69.9127C60.9984 69.8386 60.9139 69.7769 60.8218 69.7295C60.6794 69.6945 60.531 69.6945 60.3885 69.7295C58.8793 69.9363 57.3494 69.9173 55.8453 69.6732C55.6815 69.6638 55.5227 69.611 55.384 69.5198C55.2454 69.4285 55.1315 69.3019 55.0532 69.1519C55.0005 68.9903 54.9916 68.8168 55.0274 68.6503C55.0633 68.4838 55.1424 68.3308 55.2563 68.208C56.2177 66.9048 57.863 66.1581 60.2734 65.9186C61.268 65.82 62.2678 65.7918 63.2661 65.8341C63.3114 65.8359 63.356 65.847 63.3972 65.8667C63.4385 65.8865 63.4756 65.9145 63.5064 65.9492C63.5372 65.9838 63.5611 66.0245 63.5768 66.0688C63.5925 66.1131 63.5997 66.1602 63.5979 66.2074C63.5895 66.3027 63.5475 66.3915 63.48 66.4565C63.4125 66.5215 63.3242 66.5583 63.2322 66.5596C62.2679 66.5186 61.3021 66.5445 60.3411 66.6371C58.1338 66.8625 56.651 67.5176 55.8115 68.6518C55.6964 68.8138 55.6964 68.8772 55.6964 68.8772C55.6964 68.8772 55.737 68.9194 55.9537 68.9547C57.3881 69.1882 58.8473 69.2072 60.287 69.011C60.5422 68.9412 60.8104 68.9412 61.0656 69.011C61.2369 69.0856 61.3931 69.1932 61.526 69.328C62.063 69.8067 62.7361 70.0888 63.4421 70.131C63.5349 70.1383 63.6214 70.1827 63.6833 70.255C63.7452 70.3273 63.7777 70.4217 63.7739 70.5185C63.7748 70.5684 63.766 70.618 63.7479 70.6642C63.7298 70.7104 63.7027 70.7523 63.6685 70.7872C63.6343 70.8222 63.5935 70.8495 63.5488 70.8675C63.504 70.8855 63.4562 70.8938 63.4083 70.8918Z" fill="#231F20"/>
<path d="M127.08 161.558C127.08 161.558 127.628 165.263 126.809 166.686C125.989 168.109 125.251 169.92 124.893 173.244C125.548 174.007 126.349 174.62 127.244 175.045C128.139 175.469 129.109 175.696 130.093 175.71C133.383 175.71 136.667 173.146 137.033 171.913C137.398 170.68 134.385 157.571 134.385 157.571L127.08 161.558Z" fill="white"/>
<path d="M130.094 176.076C129.057 176.063 128.034 175.824 127.091 175.375C126.147 174.926 125.305 174.277 124.616 173.47C124.562 173.393 124.536 173.298 124.542 173.202C124.935 169.617 125.761 167.799 126.505 166.503C127.128 165.425 126.885 162.608 126.736 161.614C126.725 161.539 126.737 161.463 126.77 161.395C126.803 161.327 126.854 161.271 126.918 161.234L134.224 157.247C134.271 157.223 134.324 157.21 134.376 157.21C134.429 157.21 134.481 157.223 134.529 157.247C134.578 157.269 134.622 157.302 134.656 157.345C134.69 157.388 134.714 157.439 134.725 157.494C135.233 159.698 137.745 170.758 137.366 172.026C136.987 173.294 133.54 176.076 130.094 176.076ZM125.253 173.125C125.878 173.811 126.627 174.362 127.458 174.744C128.29 175.126 129.185 175.332 130.094 175.351C133.249 175.351 136.397 172.829 136.702 171.829C136.912 171.124 135.565 164.319 134.15 158.128L127.46 161.784C127.575 162.671 127.86 165.587 127.108 166.898C126.356 168.208 125.639 169.779 125.253 173.125Z" fill="#231F20"/>
<path d="M104.364 80.8664L120.194 85.424L123.878 35.4099C123.878 35.4099 109.422 37.8824 106.274 39.397C103.125 40.9115 104.364 80.8664 104.364 80.8664Z" fill="white"/>
<path d="M120.194 85.7904H120.099L104.276 81.2327C104.204 81.2119 104.141 81.168 104.094 81.1072C104.048 81.0465 104.022 80.972 104.019 80.8946C104.019 80.796 103.7 70.7791 103.775 60.7058C103.931 40.1155 105.508 39.3548 106.104 39.073C109.28 37.5444 123.227 35.1564 123.816 35.0507C123.869 35.0407 123.923 35.0434 123.974 35.0588C124.026 35.0741 124.073 35.1017 124.112 35.1392C124.152 35.1768 124.182 35.2233 124.201 35.2752C124.22 35.3271 124.228 35.3828 124.223 35.4382L120.539 85.4522C120.536 85.5068 120.521 85.5599 120.495 85.6075C120.47 85.6551 120.434 85.696 120.39 85.727C120.333 85.7688 120.264 85.7909 120.194 85.7904ZM104.709 80.5847L119.876 84.9591L123.491 35.8326C121.054 36.2623 109.178 38.3827 106.402 39.714C104.493 40.6368 104.1 61.4032 104.709 80.5847Z" fill="#231F20"/>
<path d="M109.618 156.303V167.447L104.506 168.969L104.628 166.686L102.339 169.074C102.339 169.074 88.6015 171.638 88.6692 169.736C88.7369 167.835 90.1317 166.792 91.865 165.841C93.727 164.827 98.6358 161.946 98.6358 161.946L99.367 153.781" fill="white"/>
<path d="M91.2231 170.814C89.9434 170.814 88.9617 170.68 88.5825 170.335C88.4971 170.265 88.4292 170.175 88.3844 170.072C88.3396 169.969 88.3193 169.856 88.3252 169.743C88.4065 167.63 89.9976 166.475 91.7106 165.517C93.4236 164.559 97.4454 162.22 98.2985 161.72L99.0162 153.739C99.0118 153.687 99.0185 153.634 99.0358 153.584C99.0531 153.535 99.0806 153.49 99.1164 153.453C99.1521 153.416 99.1953 153.388 99.2427 153.37C99.2902 153.352 99.3409 153.345 99.3912 153.35C99.4415 153.354 99.4902 153.371 99.5338 153.397C99.5775 153.423 99.615 153.459 99.6438 153.503C99.6727 153.546 99.692 153.595 99.7006 153.647C99.7091 153.698 99.7066 153.752 99.6933 153.802L98.9756 162.03C98.9695 162.088 98.9504 162.144 98.9198 162.193C98.8892 162.242 98.8481 162.282 98.7996 162.312C98.7454 162.312 93.8772 165.207 92.0288 166.214C90.1804 167.222 89.0835 168.158 89.0226 169.8C89.395 170.504 95.4007 170.039 102.171 168.785L104.406 166.461C104.454 166.407 104.517 166.37 104.587 166.356C104.656 166.342 104.728 166.352 104.792 166.383C104.857 166.413 104.912 166.463 104.949 166.526C104.987 166.588 105.005 166.662 105.002 166.735L104.907 168.504L109.294 167.2V156.303C109.279 156.248 109.277 156.191 109.287 156.135C109.297 156.08 109.319 156.027 109.352 155.982C109.385 155.937 109.427 155.9 109.476 155.875C109.525 155.849 109.578 155.836 109.633 155.836C109.687 155.836 109.741 155.849 109.79 155.875C109.839 155.9 109.881 155.937 109.914 155.982C109.947 156.027 109.969 156.08 109.979 156.135C109.989 156.191 109.986 156.248 109.971 156.303V167.447C109.971 167.526 109.946 167.602 109.901 167.665C109.856 167.729 109.793 167.775 109.721 167.799L104.602 169.314C104.549 169.33 104.493 169.332 104.439 169.321C104.385 169.31 104.334 169.286 104.291 169.25C104.247 169.215 104.212 169.168 104.19 169.116C104.168 169.063 104.158 169.005 104.162 168.947L104.23 167.616L102.564 169.349C102.516 169.404 102.452 169.441 102.381 169.455C100.885 169.736 94.8522 170.814 91.2231 170.814Z" fill="#231F20"/>
<path d="M134.196 85.3606L138.495 160.797C138.495 160.797 138.089 163.89 131.636 164.27C125.184 164.651 125.834 163.08 125.834 163.08L115.678 110.192L111.534 159.459L97.6064 160.354L100.376 79.3448L134.196 85.3606Z" fill="#231F20"/>
<path d="M129.802 164.679C127.48 164.679 126.078 164.348 125.631 163.679C125.51 163.501 125.46 163.281 125.489 163.066L115.821 112.664L111.887 159.487C111.88 159.572 111.845 159.652 111.786 159.711C111.728 159.771 111.65 159.806 111.569 159.811L97.6411 160.706C97.5462 160.71 97.4536 160.674 97.3838 160.607C97.3176 160.535 97.2811 160.439 97.2823 160.34L100.051 79.3309C100.054 79.2814 100.066 79.233 100.089 79.1892C100.111 79.1454 100.142 79.1072 100.18 79.0773C100.216 79.0447 100.258 79.0208 100.304 79.0074C100.349 78.994 100.397 78.9914 100.444 78.9998L134.251 85.0367C134.326 85.0495 134.394 85.0887 134.444 85.1477C134.495 85.2066 134.525 85.2818 134.528 85.3608L138.834 160.797C138.834 161.002 138.306 164.249 131.657 164.644C130.98 164.658 130.364 164.679 129.802 164.679ZM126.146 163.207C126.165 163.244 126.188 163.279 126.214 163.312C126.444 163.58 127.426 164.165 131.63 163.918C137.352 163.587 138.103 161.065 138.171 160.776L133.885 85.6637L100.708 79.7394L98 159.98L111.264 159.128L115.38 110.156C115.387 110.072 115.423 109.993 115.482 109.935C115.54 109.877 115.618 109.843 115.699 109.839C115.779 109.835 115.859 109.861 115.923 109.912C115.986 109.964 116.029 110.039 116.044 110.121L126.2 163.009C126.22 163.076 126.22 163.147 126.2 163.214L126.146 163.207Z" fill="#231F20"/>
<path d="M121.413 33.8744C121.413 33.8744 115.928 86.6287 118.366 89.9254C120.803 93.2221 131.697 97.5824 136.565 93.532C141.434 89.4816 135.469 41.7921 133.316 38.2489C129.547 36.259 125.546 34.7885 121.413 33.8744Z" fill="#FD6868"/>
<path d="M141.761 102.485C141.761 102.485 141.084 97.9839 141.469 97.5542C141.855 97.1245 151.538 96.8497 152.303 96.9413C153.068 97.0329 153.196 101.717 153.196 101.717L151.754 101.865C151.754 101.865 151.91 98.8151 151.375 98.6812C150.84 98.5474 142.979 98.7939 142.979 98.7939L143.399 102.471L141.761 102.485Z" fill="#231F20"/>
<path d="M141.76 102.859C141.68 102.858 141.603 102.828 141.542 102.774C141.481 102.72 141.441 102.645 141.428 102.563C140.954 99.4563 140.886 97.7023 141.232 97.336C141.834 96.702 152.261 96.6316 152.363 96.6316C153.094 96.6879 153.5 98.4138 153.568 101.753C153.567 101.841 153.536 101.925 153.48 101.991C153.424 102.057 153.347 102.1 153.263 102.112L151.821 102.26C151.773 102.264 151.724 102.257 151.679 102.24C151.633 102.223 151.592 102.196 151.557 102.161C151.521 102.128 151.492 102.087 151.473 102.04C151.454 101.994 151.446 101.944 151.449 101.894C151.541 100.951 151.484 99.9992 151.279 99.0759C150.65 99.0055 146.303 99.0759 143.385 99.1957L143.764 102.492C143.769 102.542 143.765 102.591 143.751 102.639C143.737 102.686 143.714 102.73 143.683 102.767C143.652 102.805 143.614 102.835 143.57 102.856C143.527 102.877 143.48 102.887 143.432 102.887H141.76V102.859ZM141.719 97.8502C141.681 99.2932 141.792 100.736 142.051 102.154H143.053L142.674 98.8717C142.669 98.8236 142.674 98.7752 142.688 98.7292C142.702 98.6832 142.725 98.6406 142.755 98.604C142.785 98.5663 142.822 98.536 142.864 98.5152C142.906 98.4945 142.952 98.4839 142.999 98.4842C144.319 98.442 150.941 98.2306 151.489 98.3715C151.679 98.4208 152.248 98.5617 152.166 101.513L152.911 101.436C152.844 99.3788 152.573 97.5262 152.288 97.3078C151.442 97.2233 142.796 97.491 141.719 97.8291V97.8502Z" fill="#231F20"/>
<path d="M143.818 90.8411C143.029 92.1904 142.382 93.6239 141.888 95.1169C141.668 95.9023 141.689 96.7397 141.949 97.512L144.204 97.1316C144.204 97.1316 143.872 101.71 144.576 101.71C145.28 101.71 146.377 102.267 146.309 98.7306C146.309 98.7306 146.614 100.083 147.765 99.5548C148.403 99.2973 148.92 98.7922 149.207 98.1459C149.207 98.1459 150.216 99.8506 151.239 97.9769C152.261 96.1031 150.595 90.7988 150.595 90.7988L150.433 88.2488L143.533 88.446L143.818 90.8411Z" fill="white"/>
<path d="M145.131 102.105C145.016 102.105 144.908 102.105 144.806 102.105H144.576C144.427 102.099 144.287 102.033 144.183 101.922C143.682 101.365 143.743 98.9842 143.825 97.5964L142.01 97.8993C141.936 97.9122 141.86 97.8999 141.793 97.8644C141.726 97.8289 141.671 97.772 141.638 97.7021C141.339 96.8561 141.308 95.933 141.55 95.0676C142.029 93.5721 142.67 92.1377 143.459 90.7917L143.208 88.5235C143.203 88.4732 143.207 88.4222 143.221 88.3737C143.235 88.3252 143.258 88.2803 143.29 88.2417C143.356 88.1656 143.448 88.1201 143.547 88.1149L150.446 87.9247C150.616 87.8824 150.792 88.0656 150.805 88.2628L150.961 90.7635C151.137 91.32 152.627 96.2651 151.557 98.1882C151.171 98.8926 150.724 99.2448 150.203 99.2518C150.022 99.2517 149.844 99.2128 149.678 99.1377C149.513 99.0625 149.364 98.9527 149.241 98.8151C148.893 99.3029 148.425 99.6848 147.887 99.921C147.707 100.015 147.509 100.063 147.308 100.063C147.107 100.063 146.909 100.015 146.729 99.921L146.614 99.8576C146.642 100.555 146.42 101.237 145.991 101.774C145.757 101.996 145.448 102.115 145.131 102.105ZM144.664 101.344H144.867C145.179 101.344 145.382 101.344 145.544 101.224C145.707 101.104 145.998 100.414 145.964 98.7235C145.964 98.6333 145.995 98.546 146.052 98.4784C146.11 98.4108 146.189 98.3676 146.276 98.3572C146.36 98.3462 146.446 98.3682 146.516 98.4189C146.586 98.4696 146.635 98.5455 146.655 98.6319C146.714 98.8844 146.861 99.1051 147.068 99.2518C147.159 99.2872 147.256 99.3017 147.353 99.2944C147.45 99.2871 147.544 99.2582 147.63 99.2096C148.184 98.9962 148.634 98.5631 148.882 98.005C148.907 97.9422 148.947 97.8875 148.999 97.8467C149.051 97.8058 149.112 97.7805 149.177 97.7732C149.242 97.766 149.307 97.7772 149.366 97.8056C149.425 97.834 149.475 97.8786 149.512 97.9346C149.593 98.0825 149.905 98.477 150.189 98.477C150.473 98.477 150.751 98.0966 150.927 97.7725C151.719 96.3637 150.71 92.3203 150.25 90.8903C150.246 90.8599 150.246 90.8292 150.25 90.7988L150.108 88.601L143.926 88.7771L144.143 90.7776C144.151 90.8561 144.134 90.9352 144.095 91.003C143.328 92.3235 142.695 93.7235 142.206 95.1803C142.051 95.8026 142.039 96.4543 142.172 97.0822L144.122 96.7511C144.174 96.7405 144.228 96.7433 144.279 96.7593C144.33 96.7753 144.376 96.8039 144.414 96.8427C144.453 96.8798 144.484 96.9257 144.504 96.9769C144.524 97.0281 144.532 97.0834 144.529 97.1386C144.427 98.8855 144.447 100.921 144.664 101.344Z" fill="#231F20"/>
<path d="M136.865 102.901L132.565 103.443L134.454 126.09L139.059 126.485L136.865 102.901Z" fill="white"/>
<path d="M139.057 126.844L134.453 126.457C134.371 126.45 134.294 126.413 134.235 126.352C134.177 126.292 134.141 126.211 134.135 126.126L132.246 103.471C132.241 103.425 132.246 103.378 132.258 103.334C132.271 103.289 132.292 103.248 132.321 103.212C132.349 103.175 132.384 103.146 132.423 103.124C132.463 103.102 132.506 103.088 132.551 103.084L136.85 102.534C136.942 102.528 137.033 102.556 137.107 102.612C137.144 102.643 137.174 102.682 137.197 102.725C137.219 102.769 137.232 102.816 137.236 102.866L139.409 126.45C139.415 126.5 139.411 126.551 139.396 126.599C139.381 126.647 139.356 126.692 139.324 126.729C139.291 126.767 139.251 126.796 139.206 126.816C139.161 126.836 139.113 126.846 139.064 126.844H139.057ZM134.778 125.752L138.671 126.083L136.552 103.302L132.943 103.76L134.778 125.752Z" fill="#231F20"/>
<path d="M136.865 102.901C136.763 103.211 139.058 126.485 139.058 126.485L159.648 124.28L158.26 101.527L136.865 102.901Z" fill="white"/>
<path d="M139.058 126.844C138.977 126.843 138.899 126.816 138.834 126.767C138.765 126.703 138.722 126.615 138.712 126.52C136.41 103.168 136.498 102.88 136.532 102.788C136.552 102.717 136.593 102.655 136.649 102.609C136.705 102.564 136.773 102.537 136.844 102.534L158.239 101.161C158.332 101.155 158.422 101.187 158.492 101.25C158.562 101.314 158.605 101.403 158.612 101.499L160 124.259C160.005 124.352 159.976 124.444 159.918 124.515C159.86 124.586 159.777 124.63 159.688 124.639L139.092 126.844H139.058ZM137.223 103.239C137.358 105.352 138.536 117.602 139.369 126.083L159.282 123.97L157.928 101.922L137.223 103.239Z" fill="#231F20"/>
<path d="M141.874 111.107C141.817 111.107 141.76 111.092 141.709 111.064C141.658 111.036 141.615 110.995 141.583 110.945L136.573 103.098C136.535 103.018 136.526 102.926 136.548 102.84C136.571 102.754 136.622 102.68 136.694 102.63C136.765 102.581 136.851 102.561 136.936 102.573C137.021 102.585 137.099 102.629 137.155 102.697L142.05 110.361L155.125 109.297L157.934 101.4C157.949 101.355 157.973 101.314 158.004 101.278C158.035 101.243 158.072 101.214 158.114 101.193C158.155 101.173 158.2 101.162 158.246 101.16C158.292 101.158 158.338 101.165 158.381 101.182C158.425 101.198 158.465 101.224 158.499 101.257C158.533 101.289 158.561 101.329 158.581 101.373C158.6 101.416 158.611 101.464 158.613 101.512C158.615 101.56 158.607 101.609 158.591 101.654L155.7 109.762C155.677 109.827 155.637 109.884 155.584 109.927C155.532 109.969 155.468 109.995 155.402 110.001L141.901 111.107H141.874Z" fill="#231F20"/>
<path d="M148.146 108.53L150.132 108.303L150.568 112.442L148.582 112.668L148.146 108.53Z" fill="#EAEAEA"/>
<path d="M99.4965 38.439C99.4965 38.439 93.6533 92.2006 95.1158 93.7221C96.5783 95.2437 103.031 93.3417 105.218 91.8202C107.405 90.2986 110.594 34.5294 110.594 34.5294C110.594 34.5294 102.665 35.6495 99.4965 38.439Z" fill="#FD6868"/>
<path d="M99.4963 38.439C99.4963 38.439 89.137 60.9805 84.2485 62.5655C76.9429 64.9394 66.6445 64.7492 66.6445 64.7492L67.4706 76.1468C67.4706 76.1468 80.7413 78.0769 88.2839 76.0552C95.8265 74.0335 103.897 62.6289 103.897 62.6289L99.4963 38.439Z" fill="#FD6868"/>
<path d="M112.313 42.2641L113.741 44.4196L108.596 76.5625L111.886 80.9299L116.084 77.133L115.17 44.7718L116.782 42.4261L114.744 40.9045L112.313 42.2641Z" fill="#EAEAEA"/>
<path d="M95.4807 79.2675H95.4469C95.3553 79.2569 95.2712 79.21 95.2119 79.1365C95.1527 79.0631 95.1229 78.9687 95.1286 78.8731C95.6094 72.8643 97.7895 48.4631 97.8369 48.2165C97.8643 48.141 97.9148 48.0769 97.9808 48.0343C98.0467 47.9918 98.1243 47.973 98.2015 47.9811C98.2787 47.9891 98.3512 48.0234 98.4077 48.0788C98.4642 48.1341 98.5016 48.2073 98.514 48.287C98.514 48.5335 96.3135 72.9418 95.8057 78.9364C95.7993 79.0232 95.7628 79.1046 95.703 79.1655C95.6432 79.2264 95.5642 79.2627 95.4807 79.2675Z" fill="#231F20"/>
<path d="M110.972 30.3592L110.18 37.2978C110.18 37.2978 110.688 40.5734 115.272 40.0451C119.855 39.5167 120.905 36.4173 120.905 36.4173L121.934 23.4277C121.934 23.4277 119.375 21.082 121.257 13.763C121.257 13.763 114.121 15.0521 107.614 13.2981C107.614 13.2981 106.49 21.7512 106.585 25.3719C106.68 28.9926 110.972 30.3592 110.972 30.3592Z" fill="white"/>
<path d="M114.359 40.4678C110.405 40.4678 109.883 37.3895 109.876 37.3543V37.2556L110.635 30.6129C109.639 30.2325 106.369 28.7321 106.281 25.3791C106.18 21.7372 107.263 13.5941 107.31 13.2489C107.317 13.1984 107.335 13.1501 107.362 13.1074C107.388 13.0648 107.424 13.0289 107.466 13.0023C107.506 12.9727 107.551 12.9523 107.599 12.9426C107.647 12.9328 107.696 12.934 107.744 12.946C114.088 14.6648 121.129 13.3968 121.231 13.3968C121.288 13.3857 121.346 13.3903 121.401 13.4101C121.456 13.4298 121.504 13.4641 121.542 13.5095C121.583 13.5537 121.612 13.6081 121.626 13.6674C121.64 13.7267 121.639 13.7888 121.624 13.8476C119.816 20.8919 122.165 23.1249 122.192 23.146C122.232 23.1845 122.263 23.2316 122.283 23.284C122.303 23.3364 122.311 23.3927 122.308 23.4489L121.278 36.4385C121.285 36.4686 121.285 36.5 121.278 36.5301C121.238 36.6639 120.107 39.8479 115.361 40.3974C115.028 40.4409 114.694 40.4644 114.359 40.4678ZM110.581 37.2838C110.655 37.6572 111.332 40.1015 115.273 39.6859C119.335 39.2139 120.459 36.6991 120.601 36.3328L121.61 23.5616C121.102 22.9629 119.369 20.3917 120.831 14.2069C119.091 14.4535 113.329 15.1015 107.967 13.749C107.744 15.4678 106.904 22.2021 106.992 25.3579C107.08 28.7039 111.055 30.0001 111.129 30.0142C111.207 30.0395 111.274 30.0917 111.32 30.1621C111.365 30.2325 111.386 30.317 111.38 30.4016L110.581 37.2838Z" fill="#231F20"/>
<path d="M119.897 22.7798C120.128 22.1647 120.543 21.6434 121.082 21.2934C121.597 20.9931 122.158 20.7881 122.74 20.6876C123.053 20.5954 123.381 20.5762 123.702 20.6313C123.92 20.6991 124.125 20.809 124.304 20.9553C124.756 21.2642 125.085 21.7318 125.232 22.2726C125.3 22.7161 125.265 23.1702 125.13 23.5969C125.018 24.074 124.845 24.5335 124.616 24.9635C124.378 25.3858 124.062 25.7547 123.685 26.0487C123.309 26.3427 122.881 26.5559 122.424 26.6759C121.968 26.7958 121.494 26.8202 121.028 26.7475C120.563 26.6748 120.116 26.5066 119.714 26.2526" fill="white"/>
<path d="M121.555 27.147C120.839 27.1487 120.137 26.9465 119.524 26.5623C119.446 26.5127 119.39 26.433 119.368 26.3405C119.347 26.2481 119.361 26.1505 119.409 26.0692C119.432 26.0275 119.463 25.991 119.499 25.9619C119.536 25.9329 119.578 25.9118 119.623 25.9C119.668 25.8881 119.715 25.8858 119.76 25.8931C119.806 25.9004 119.85 25.9172 119.889 25.9424C120.252 26.171 120.654 26.3224 121.073 26.3877C121.492 26.453 121.92 26.4309 122.33 26.3227C122.741 26.2146 123.127 26.0225 123.466 25.7577C123.805 25.4928 124.09 25.1605 124.304 24.7801C124.519 24.3801 124.681 23.951 124.785 23.5051C124.908 23.1343 124.943 22.7378 124.886 22.3499C124.749 21.8989 124.467 21.5108 124.087 21.251C123.944 21.1312 123.781 21.0404 123.606 20.9833C123.339 20.944 123.067 20.9632 122.808 21.0397C122.264 21.1339 121.739 21.3245 121.257 21.6032C120.785 21.9097 120.422 22.3669 120.221 22.9064C120.188 22.9969 120.121 23.0699 120.036 23.1095C119.951 23.1492 119.855 23.1521 119.767 23.1177C119.68 23.083 119.61 23.0138 119.572 22.9254C119.534 22.8369 119.531 22.7364 119.564 22.6457C119.83 21.9532 120.305 21.3696 120.918 20.9833C121.468 20.6624 122.065 20.4408 122.686 20.3282C123.05 20.2237 123.432 20.2068 123.803 20.2789C124.069 20.3549 124.318 20.4868 124.534 20.6663C125.052 21.0253 125.429 21.565 125.597 22.1879C125.675 22.6922 125.638 23.2087 125.489 23.6953C125.368 24.203 125.181 24.6912 124.934 25.1464C124.666 25.614 124.311 26.0211 123.89 26.3441C123.47 26.6671 122.991 26.8994 122.483 27.0273C122.179 27.1072 121.868 27.1474 121.555 27.147Z" fill="#231F20"/>
<path d="M110.337 19.2363C110.337 19.2363 107.452 22.4485 107.906 23.167C108.359 23.8855 109.937 23.7305 109.937 23.7305" fill="white"/>
<path d="M109.618 24.1042C109.05 24.1042 108.048 24.0055 107.641 23.3575C107.1 22.5544 108.941 20.2721 110.092 19.0323C110.123 18.9995 110.16 18.9735 110.201 18.9557C110.242 18.9379 110.285 18.9287 110.329 18.9287C110.374 18.9287 110.417 18.9379 110.458 18.9557C110.499 18.9735 110.535 18.9995 110.566 19.0323C110.629 19.0993 110.664 19.189 110.664 19.2824C110.664 19.3757 110.629 19.4654 110.566 19.5325C109.212 21.0329 108.095 22.6742 108.176 23.0546C108.427 23.442 109.456 23.4913 109.916 23.449C110.005 23.443 110.092 23.4725 110.16 23.5315C110.228 23.5905 110.272 23.6745 110.282 23.766C110.29 23.8584 110.262 23.9501 110.205 24.0213C110.148 24.0925 110.066 24.1375 109.977 24.1464C109.857 24.1389 109.737 24.1248 109.618 24.1042Z" fill="#231F20"/>
<path d="M113.666 18.4062C113.834 17.9684 113.727 17.5132 113.428 17.3894C113.129 17.2656 112.751 17.5201 112.583 17.9579C112.416 18.3957 112.523 18.851 112.822 18.9748C113.121 19.0986 113.499 18.844 113.666 18.4062Z" fill="#231F20"/>
<path d="M109.396 17.6691C109.562 17.2313 109.454 16.7767 109.155 16.6538C108.856 16.5309 108.479 16.7862 108.313 17.2241C108.146 17.6619 108.254 18.1165 108.553 18.2394C108.852 18.3623 109.23 18.107 109.396 17.6691Z" fill="#231F20"/>
<path d="M108.942 25.3718L111.968 25.5761C111.968 25.5761 112.164 27.8514 110.526 28.26C108.887 28.6685 108.942 25.3718 108.942 25.3718Z" fill="white"/>
<path d="M110.251 28.6263C109.973 28.6304 109.702 28.5332 109.486 28.3515C108.585 27.6049 108.592 25.5761 108.592 25.3437C108.595 25.2476 108.633 25.1565 108.7 25.0901C108.77 25.0291 108.859 24.9966 108.951 24.9985L111.977 25.2098C112.058 25.213 112.136 25.247 112.194 25.3054C112.253 25.3638 112.289 25.4426 112.295 25.5268C112.37 26.4144 112.113 28.1966 110.596 28.584C110.483 28.6112 110.367 28.6253 110.251 28.6263ZM109.282 25.7311C109.316 26.3792 109.465 27.4358 109.905 27.8021C109.981 27.861 110.069 27.9005 110.161 27.9177C110.254 27.9348 110.35 27.929 110.44 27.9007C111.463 27.6401 111.612 26.4566 111.625 25.8861L109.282 25.7311Z" fill="#231F20"/>
<path d="M126.547 21.3285C126.5 21.3381 126.451 21.3381 126.404 21.3285C126.362 21.3094 126.324 21.2818 126.293 21.2473C126.261 21.2127 126.236 21.172 126.22 21.1274C126.203 21.0828 126.196 21.0352 126.197 20.9875C126.199 20.9398 126.209 20.8929 126.228 20.8495C127.136 18.9586 127.664 16.8948 127.779 14.7844C127.826 13.7598 127.648 12.7375 127.259 11.7952C126.869 10.8529 126.278 10.0153 125.531 9.34622C124.671 8.6418 123.297 8.2121 122.301 8.87426C122.247 8.91167 122.184 8.9324 122.119 8.93406C122.054 8.93573 121.99 8.91826 121.934 8.88366C121.878 8.84907 121.833 8.79876 121.803 8.73852C121.773 8.67829 121.761 8.61057 121.766 8.54318C121.749 8.30527 121.685 8.0736 121.578 7.86269C121.471 7.65178 121.323 7.46617 121.144 7.31748C118.232 4.21097 113.608 3.92216 109.667 4.14053C110.061 4.5031 110.415 4.90939 110.723 5.35214C110.755 5.4089 110.771 5.47328 110.771 5.53881C110.771 5.60435 110.755 5.66873 110.723 5.72549C110.697 5.78351 110.656 5.83308 110.605 5.86901C110.553 5.90494 110.494 5.92592 110.432 5.92977C108.28 6.06164 106.128 5.68599 104.135 4.83087C104.367 6.56254 104.846 8.2484 105.557 9.83227C105.587 9.8953 105.598 9.96592 105.589 10.0354C105.58 10.1049 105.552 10.1703 105.509 10.2235C105.465 10.2766 105.407 10.3153 105.342 10.3346C105.277 10.354 105.209 10.3532 105.144 10.3324C103.443 9.8096 101.975 8.67652 101.001 7.13433C100.803 8.72792 100.98 10.3475 101.517 11.8542C102.054 13.3608 102.933 14.7096 104.081 15.7847C104.114 15.8175 104.14 15.8569 104.158 15.9005C104.176 15.944 104.185 15.9909 104.185 16.0382C104.185 16.0856 104.176 16.1324 104.158 16.176C104.14 16.2196 104.114 16.259 104.081 16.2918C104.049 16.3261 104.011 16.3534 103.968 16.372C103.926 16.3906 103.88 16.4002 103.834 16.4002C103.788 16.4002 103.742 16.3906 103.7 16.372C103.658 16.3534 103.619 16.3261 103.587 16.2918C102.223 15.0206 101.214 13.3909 100.665 11.5738C100.116 9.75671 100.047 7.8193 100.466 5.96499C100.482 5.89176 100.521 5.82585 100.575 5.77656C100.63 5.72726 100.698 5.69708 100.77 5.69026C100.842 5.68529 100.914 5.70272 100.977 5.74033C101.04 5.77795 101.09 5.83407 101.122 5.90159C101.833 7.43826 103.055 8.65466 104.562 9.32509C103.936 7.69797 103.542 5.98466 103.391 4.23915C103.385 4.17561 103.396 4.11173 103.422 4.05383C103.447 3.99592 103.487 3.946 103.537 3.90899C103.587 3.87199 103.645 3.84919 103.706 3.84285C103.767 3.83651 103.829 3.84685 103.885 3.87285C105.712 4.75836 107.706 5.20839 109.721 5.19012C109.363 4.77901 108.959 4.41473 108.516 4.10531C108.455 4.06287 108.409 4.00181 108.383 3.93063C108.357 3.85945 108.353 3.78167 108.372 3.7081C108.391 3.63452 108.431 3.5688 108.487 3.52006C108.543 3.47132 108.612 3.44198 108.685 3.43611C112.958 3.11912 118.286 3.20365 121.631 6.77508C121.973 7.10629 122.231 7.52 122.383 7.97964C122.99 7.7872 123.634 7.75599 124.256 7.88887C124.878 8.02176 125.459 8.3145 125.944 8.74042C126.776 9.47775 127.435 10.4029 127.872 11.4454C128.308 12.4878 128.51 13.6202 128.463 14.7562C128.349 16.962 127.8 19.12 126.851 21.096C126.827 21.1609 126.785 21.2172 126.731 21.2584C126.677 21.2995 126.613 21.3238 126.547 21.3285Z" fill="#231F20"/>
<path d="M110.974 30.359C110.974 30.359 114.447 30.7113 116.146 29.8871C116.146 29.8871 114.427 33.8741 110.567 34.5433L110.974 30.359Z" fill="#231F20"/>
<path d="M110.595 34.8886C110.552 34.8901 110.51 34.8827 110.471 34.867C110.431 34.8512 110.395 34.8275 110.364 34.7971C110.325 34.7618 110.295 34.717 110.276 34.6667C110.257 34.6163 110.25 34.5619 110.256 34.5082L110.669 30.324C110.673 30.2786 110.686 30.2345 110.707 30.1942C110.728 30.154 110.756 30.1185 110.79 30.0896C110.824 30.0608 110.863 30.0393 110.905 30.0263C110.947 30.0133 110.991 30.0092 111.035 30.014C111.035 30.014 114.42 30.3451 116.038 29.5702C116.099 29.539 116.169 29.5289 116.236 29.5416C116.303 29.5543 116.364 29.589 116.411 29.6407C116.46 29.6896 116.493 29.7529 116.506 29.8222C116.52 29.8915 116.512 29.9634 116.485 30.0281C116.411 30.1972 114.643 34.1983 110.649 34.8886H110.595ZM111.305 30.7396L110.974 34.1067C112.852 33.5416 114.455 32.2549 115.456 30.5071C114.089 30.7787 112.693 30.8569 111.305 30.7396Z" fill="#231F20"/>
<path d="M133.025 38.0513C133.025 38.0513 140.764 41.8974 144.786 52.6821C148.808 63.4669 152.383 88.5373 152.383 88.5373L140.29 89.6291C140.29 89.6291 138.712 63.4669 130.134 50.9986L133.025 38.0513Z" fill="#FD6868"/>
<path d="M98.3998 86.361C98.3491 86.3602 98.2991 86.3479 98.2534 86.3247C98.2078 86.3016 98.1676 86.2683 98.1358 86.2271C98.1055 86.1915 98.0824 86.1499 98.068 86.1048C98.0536 86.0596 98.0482 86.0119 98.0519 85.9645C98.0557 85.9171 98.0687 85.871 98.0901 85.829C98.1115 85.787 98.1409 85.7499 98.1764 85.72L104.148 80.5847C104.183 80.5545 104.224 80.5318 104.267 80.518C104.311 80.5041 104.356 80.4993 104.402 80.5039C104.447 80.5085 104.491 80.5223 104.531 80.5447C104.571 80.567 104.607 80.5974 104.636 80.634C104.695 80.7089 104.723 80.8049 104.714 80.9013C104.705 80.9977 104.66 81.0864 104.588 81.1482L98.6233 86.2765C98.561 86.3318 98.4817 86.3618 98.3998 86.361Z" fill="#231F20"/>
<path d="M132.003 86.3609C131.934 86.3614 131.868 86.3392 131.813 86.2975C129.436 84.6774 123.891 80.8242 123.634 80.0352C123.606 79.9427 123.613 79.8424 123.655 79.7556C123.697 79.6689 123.769 79.6024 123.857 79.5703C123.943 79.5408 124.036 79.5472 124.117 79.5879C124.198 79.6287 124.26 79.7007 124.291 79.7887C124.589 80.3099 128.536 83.1981 132.192 85.6917C132.231 85.7181 132.264 85.7521 132.29 85.7919C132.316 85.8316 132.334 85.8763 132.344 85.9234C132.353 85.9705 132.354 86.0191 132.345 86.0664C132.337 86.1136 132.319 86.1587 132.294 86.1989C132.262 86.2491 132.219 86.2902 132.168 86.3185C132.117 86.3468 132.06 86.3614 132.003 86.3609Z" fill="#231F20"/>
<path d="M120.561 61.4104C120.504 61.4107 120.448 61.3961 120.399 61.3681C120.316 61.3231 120.254 61.246 120.226 61.1535C120.198 61.0611 120.207 60.961 120.25 60.875L125.592 50.3791L121.563 47.1458C121.523 47.113 121.49 47.0714 121.466 47.024C121.443 46.9765 121.43 46.9243 121.428 46.8711C121.426 46.8182 121.435 46.7655 121.455 46.7168C121.475 46.6681 121.505 46.6245 121.543 46.5893C121.678 46.4625 124.657 43.6871 125.449 43.0038C125.172 42.3768 123.33 40.2495 121.651 38.5025C121.598 38.4321 121.572 38.3438 121.577 38.2545C121.582 38.1652 121.619 38.081 121.679 38.0177C121.74 37.9544 121.821 37.9165 121.907 37.9111C121.993 37.9057 122.078 37.9331 122.145 37.9883C123.676 39.5803 126.208 42.3628 126.208 43.1306C126.203 43.1977 126.185 43.2632 126.155 43.3227C126.125 43.3822 126.083 43.4343 126.032 43.4757C125.686 43.7434 123.628 45.6524 122.348 46.8358L126.276 49.9917C126.341 50.0436 126.387 50.1183 126.404 50.2023C126.422 50.2863 126.41 50.374 126.37 50.4495L120.893 61.2131C120.863 61.2769 120.815 61.3299 120.756 61.3651C120.697 61.4003 120.629 61.4161 120.561 61.4104Z" fill="#231F20"/>
<path d="M107.534 57.226C107.47 57.2265 107.408 57.2091 107.353 57.1756C107.298 57.1421 107.253 57.0938 107.222 57.0358L102.598 47.7867C102.555 47.7069 102.545 47.6132 102.567 47.5252C102.59 47.4372 102.645 47.3617 102.72 47.3148L106.653 44.7014L103.444 42.4754C103.401 42.4461 103.365 42.4071 103.338 42.3613C103.311 42.3155 103.294 42.264 103.289 42.2106C103.284 42.1572 103.29 42.1033 103.308 42.0528C103.325 42.0024 103.353 41.9566 103.39 41.9189L107.771 37.3472C107.838 37.292 107.923 37.2645 108.009 37.27C108.095 37.2754 108.176 37.3133 108.237 37.3766C108.297 37.4398 108.334 37.5241 108.339 37.6134C108.344 37.7027 108.318 37.7909 108.265 37.8614L104.202 42.0879L107.486 44.3914C107.534 44.4248 107.573 44.4699 107.6 44.5227C107.628 44.5755 107.642 44.6344 107.642 44.6943C107.64 44.7546 107.624 44.8135 107.596 44.8661C107.568 44.9188 107.528 44.9637 107.48 44.9972L103.363 47.7304L107.845 56.6836C107.886 56.7699 107.894 56.8694 107.866 56.9613C107.838 57.0532 107.777 57.1304 107.696 57.1767C107.645 57.2033 107.59 57.22 107.534 57.226Z" fill="#231F20"/>
<path d="M115.57 112.72C115.489 112.721 115.41 112.692 115.348 112.638C115.286 112.583 115.245 112.508 115.232 112.424C115.123 111.72 112.523 94.68 112.672 91.4467C112.678 91.3533 112.718 91.2659 112.786 91.2038C112.853 91.1417 112.941 91.11 113.031 91.1156C113.121 91.1212 113.205 91.1637 113.264 91.2337C113.324 91.3037 113.355 91.3956 113.349 91.489C113.166 94.6448 115.875 112.136 115.902 112.312C115.909 112.358 115.907 112.404 115.896 112.449C115.885 112.494 115.866 112.537 115.84 112.574C115.813 112.611 115.78 112.643 115.742 112.667C115.704 112.691 115.662 112.706 115.617 112.713L115.57 112.72Z" fill="white"/>
<path d="M140.399 88.58C140.318 88.5796 140.24 88.5499 140.179 88.4958C140.117 88.4417 140.075 88.3668 140.061 88.2841L132.207 47.815C132.198 47.7682 132.198 47.7201 132.207 47.6735C132.217 47.6268 132.235 47.5825 132.26 47.5432C132.286 47.5039 132.319 47.4703 132.358 47.4444C132.396 47.4185 132.439 47.4008 132.484 47.3923C132.529 47.3821 132.575 47.3813 132.62 47.3901C132.664 47.3988 132.707 47.4169 132.745 47.4432C132.783 47.4695 132.815 47.5035 132.84 47.5432C132.865 47.5829 132.882 47.6274 132.89 47.6741L140.765 88.1432C140.775 88.1895 140.775 88.2375 140.767 88.2841C140.759 88.3307 140.741 88.3751 140.716 88.4146C140.691 88.454 140.658 88.4878 140.62 88.5138C140.582 88.5398 140.539 88.5575 140.494 88.5659L140.399 88.58Z" fill="#231F20"/>
<path d="M32.9936 126.64L31.714 158.043C31.714 158.043 44.0097 165.651 43.4545 166.447C42.8993 167.243 21.375 163.298 21.375 163.298L22.8239 127.02" fill="white"/>
<path d="M42.6555 166.848C40.0623 166.848 32.9124 165.784 21.3141 163.657C21.2298 163.643 21.1534 163.597 21.0996 163.529C21.0459 163.46 21.0185 163.372 21.0229 163.284L22.4719 127.006C22.4771 126.91 22.5184 126.82 22.5868 126.755C22.6552 126.691 22.7452 126.657 22.8375 126.661C22.8834 126.663 22.9286 126.674 22.9703 126.694C23.012 126.714 23.0494 126.743 23.0803 126.778C23.1112 126.814 23.135 126.855 23.1502 126.9C23.1655 126.946 23.172 126.993 23.1692 127.041L21.7338 162.967C29.1817 164.326 40.7665 166.249 42.9534 166.172C41.8972 165.031 36.5618 161.438 31.5379 158.332C31.4841 158.297 31.4402 158.248 31.4104 158.19C31.3807 158.132 31.3663 158.066 31.3686 158.001L32.6483 126.597C32.6492 126.55 32.6592 126.502 32.6778 126.459C32.6964 126.415 32.7232 126.376 32.7566 126.343C32.79 126.31 32.8294 126.284 32.8724 126.268C32.9155 126.251 32.9613 126.243 33.0072 126.245C33.0534 126.247 33.0989 126.258 33.1409 126.278C33.183 126.298 33.2208 126.327 33.2522 126.362C33.2837 126.398 33.3081 126.439 33.3242 126.484C33.3402 126.529 33.3475 126.577 33.3457 126.626L32.0728 157.817C35.6681 160.043 43.5831 165.066 43.8065 166.27C43.8237 166.336 43.8259 166.404 43.8129 166.47C43.8 166.536 43.7723 166.598 43.7321 166.651C43.6463 166.782 43.2874 166.848 42.6555 166.848Z" fill="#231F20"/>
<path d="M35.9464 159.093L31.9652 162.833L20.5361 161.178V165.897C20.5361 165.897 45.7708 169.363 46.9421 167.186C48.1134 165.01 35.9464 159.093 35.9464 159.093Z" fill="#231F20"/>
<path d="M24.7602 133.297L23.4873 164.707C23.4873 164.707 35.7763 172.315 35.2211 173.104C34.6659 173.893 13.1416 169.962 13.1416 169.962L14.5905 133.684" fill="white"/>
<path d="M34.4219 173.512C31.8287 173.512 24.6787 172.441 13.0804 170.321C12.9968 170.306 12.9212 170.26 12.8677 170.191C12.8142 170.122 12.7864 170.036 12.7893 169.948L14.2382 133.67C14.2451 133.574 14.2866 133.484 14.3544 133.419C14.4223 133.354 14.5114 133.317 14.6038 133.318C14.6501 133.32 14.6955 133.331 14.7376 133.351C14.7796 133.371 14.8175 133.4 14.8489 133.435C14.8803 133.47 14.9048 133.512 14.9208 133.557C14.9369 133.602 14.9442 133.65 14.9424 133.698L13.5002 169.624C20.948 170.983 32.526 172.906 34.7198 172.822C33.6635 171.681 28.3349 168.095 23.3043 164.982C23.2505 164.947 23.2065 164.898 23.1768 164.84C23.1471 164.782 23.1326 164.716 23.135 164.65L24.4147 133.247C24.4357 133.171 24.4801 133.103 24.5412 133.055C24.6023 133.007 24.6767 132.982 24.7532 132.982C24.8297 132.982 24.9042 133.007 24.9652 133.055C25.0263 133.103 25.0707 133.171 25.0917 133.247L23.8188 164.439C27.4141 166.665 35.3291 171.688 35.5593 172.892C35.5733 172.959 35.5739 173.027 35.561 173.094C35.5482 173.161 35.5223 173.224 35.4849 173.28C35.4104 173.449 35.0515 173.512 34.4219 173.512Z" fill="#231F20"/>
<path d="M27.6109 165.7L23.7109 169.532L12.248 168.123L12.3293 172.836C12.3293 172.836 37.6316 175.71 38.7353 173.505C39.8389 171.3 27.6109 165.7 27.6109 165.7Z" fill="#231F20"/>
<path d="M38.9328 75.9707C39.9213 82.9727 34.8703 152.239 34.8703 152.239C27.5756 153.007 20.2193 152.879 12.9533 151.858C7.15757 139.341 1.02325 100.182 2.72948 91.0594C4.43571 81.9372 8.57265 72.4415 8.57265 72.4415C8.57265 72.4415 38.9666 76.2243 38.9328 75.9707Z" fill="#231F20"/>
<path d="M38.9932 79.5349C38.9932 79.5349 42.338 42.3625 40.6994 39.573C35.1948 30.2253 6.60863 30.5211 4.17792 39.3828C2.2618 46.3565 5.63364 75.1041 5.63364 75.1041L38.9932 79.5349Z" fill="#FD6868"/>
<path d="M21.2198 72.4413C21.2198 72.4413 41.532 77.006 48.9799 75.6112L50.808 65.7493C50.808 65.7493 27.1916 62.3329 25.3635 61.0649C23.5354 59.7969 23.4135 46.8778 23.4135 46.8778C23.4135 46.8778 17.6922 48.1458 16.2365 51.3157C14.7808 54.4856 13.4266 69.046 21.2198 72.4413Z" fill="#FD6868"/>
<path d="M18.5383 35.9382C18.0372 36.2411 30.4074 57.7753 30.4074 57.7753L26.4059 35.4944C26.4059 35.4944 23.2846 33.1205 18.5383 35.9382Z" fill="white"/>
<path d="M43.4342 76.7948C43.1025 76.7948 10.2575 74.2518 9.68874 53.0769C9.68693 53.0291 9.6943 52.9814 9.71042 52.9367C9.72654 52.8919 9.75108 52.8509 9.78261 52.8162C9.81413 52.7814 9.85202 52.7535 9.89403 52.7342C9.93604 52.7148 9.98135 52.7044 10.0273 52.7035C10.0734 52.7006 10.1196 52.7076 10.1631 52.724C10.2065 52.7404 10.2463 52.7659 10.2799 52.7989C10.3135 52.8319 10.3403 52.8717 10.3586 52.9159C10.3768 52.96 10.3862 53.0076 10.3861 53.0557C10.921 73.5756 43.1566 76.0481 43.4816 76.0692C43.5552 76.0911 43.6199 76.1373 43.666 76.2009C43.7121 76.2644 43.737 76.3418 43.737 76.4215C43.737 76.5011 43.7121 76.5785 43.666 76.642C43.6199 76.7056 43.5552 76.7518 43.4816 76.7737L43.4342 76.7948Z" fill="#231F20"/>
<path d="M18.5386 35.9383C18.1595 31.1905 17.8616 27.0132 17.5095 22.2654C17.3944 20.5114 17.2116 18.7433 17.1642 16.9893C17.0965 14.4463 18.1595 15.038 20.5495 15.0169C20.7211 13.3826 20.9603 11.7625 21.2673 10.1564L22.4386 14.1786C26.088 13.1079 33.6713 14.1786 33.6713 14.1786C33.6713 14.1786 34.4364 21.8287 33.4682 25.4494C32.0734 30.6762 25.5464 29.528 25.5464 29.528L26.3927 35.4945C26.3927 35.4945 26.6365 37.4528 24.3615 38.122C21.0844 39.087 18.5386 35.9383 18.5386 35.9383Z" fill="white"/>
<path d="M23.088 38.6715C21.731 38.6326 20.4224 38.1384 19.3573 37.2627C19.3573 37.2627 18.2537 36.3892 18.1928 36.0229C17.8271 31.4723 17.5157 27.1753 17.1636 22.343C17.123 21.7865 17.0824 21.223 17.035 20.6594C16.9402 19.476 16.8454 18.2573 16.8115 17.0528C16.8115 16.0455 16.9266 15.4608 17.2855 15.0945C17.7527 14.6155 18.45 14.6437 19.4183 14.6859H20.2511C20.4203 13.1573 20.6505 11.6217 20.9281 10.1212C20.9395 10.0387 20.9781 9.96285 21.0373 9.90666C21.0965 9.85048 21.1727 9.81748 21.2527 9.81331C21.3328 9.80915 21.4117 9.83409 21.476 9.88384C21.5403 9.9336 21.586 10.0051 21.6052 10.086L22.675 13.7702C26.4463 12.8403 33.4134 13.7702 33.7113 13.8124C33.7897 13.823 33.8624 13.8607 33.9177 13.9195C33.9729 13.9783 34.0076 14.0547 34.016 14.1365C34.016 14.4535 34.7811 21.8851 33.7994 25.5552C32.5671 30.1832 27.5296 30.0987 25.9588 29.9508L26.7375 35.4453C26.7375 35.4453 26.9948 37.7346 24.4625 38.4743C24.0151 38.6051 23.5527 38.6714 23.088 38.6715ZM18.8901 35.8116C19.3099 36.2835 21.5511 38.58 24.3068 37.7699C26.2432 37.1993 26.0875 35.6002 26.0807 35.5368L25.214 29.5986C25.2061 29.5422 25.2112 29.4847 25.2289 29.4308C25.2466 29.377 25.2763 29.3282 25.3156 29.2886C25.3547 29.2474 25.4029 29.2168 25.4561 29.1996C25.5092 29.1824 25.5656 29.1791 25.6203 29.19C25.8708 29.2323 31.8494 30.2185 33.1426 25.372C33.9754 22.2444 33.4879 15.9327 33.3593 14.5169C31.9713 14.3478 25.6948 13.6504 22.526 14.5732C22.4829 14.5872 22.4376 14.5921 22.3926 14.5876C22.3476 14.5831 22.304 14.5693 22.2642 14.547C22.2245 14.5247 22.1894 14.4943 22.1611 14.4577C22.1329 14.421 22.1119 14.3789 22.0995 14.3337L21.3412 11.7344C21.1584 12.8544 21.0026 13.9815 20.8875 15.1015C20.8777 15.19 20.8372 15.2717 20.7736 15.3313C20.71 15.3909 20.6278 15.4244 20.5422 15.4256C20.1157 15.4256 19.723 15.4256 19.3709 15.4256C18.5787 15.4256 18.0167 15.3692 17.7527 15.6228C17.5093 16.046 17.4159 16.5444 17.4886 17.0316C17.5225 18.2151 17.6172 19.4267 17.712 20.596C17.7527 21.1666 17.8001 21.7302 17.8407 22.2937C18.2131 27.0485 18.5178 31.3103 18.8901 35.8116Z" fill="#231F20"/>
<path d="M25.5589 29.5279C25.5589 29.5279 22.8506 29.1757 21.5303 27.788C21.5303 27.788 23.311 32.416 26.0531 33.1134L25.5589 29.5279Z" fill="#231F20"/>
<path d="M26.0538 33.5926C26.018 33.5995 25.9813 33.5995 25.9455 33.5926C23.0002 32.853 21.206 28.1826 21.0976 27.9572C21.0616 27.8545 21.0599 27.7422 21.0928 27.6384C21.1257 27.5346 21.1913 27.4453 21.279 27.3851C21.3666 27.3248 21.4713 27.2971 21.576 27.3063C21.6806 27.3155 21.7793 27.3612 21.856 27.4359C23.0679 28.6969 25.5934 29.035 25.6205 29.042C25.721 29.0549 25.8146 29.102 25.8868 29.1758C25.9591 29.2497 26.0059 29.3463 26.02 29.4506L26.5142 33.0361C26.524 33.1047 26.5194 33.1746 26.5007 33.2411C26.482 33.3076 26.4497 33.3691 26.4059 33.4214C26.3621 33.4736 26.308 33.5153 26.2472 33.5437C26.1864 33.572 26.1204 33.5863 26.0538 33.5856V33.5926ZM22.7091 29.1759C23.3468 30.4782 24.3046 31.5816 25.4851 32.374L25.1466 29.9507C24.3074 29.7937 23.4892 29.5336 22.7091 29.1759Z" fill="#231F20"/>
<path d="M18.5514 20.3706C18.4352 19.7694 18.161 19.2135 17.7594 18.7646C17.3578 18.3157 16.8445 17.9913 16.2765 17.8276C16.023 17.7412 15.7548 17.7121 15.4897 17.7425C15.2246 17.7729 14.9688 17.862 14.7395 18.0037C14.4716 18.2429 14.2683 18.5506 14.1496 18.8965C14.0309 19.2424 14.0008 19.6145 14.0624 19.9761C14.1402 21.1352 14.6418 22.2192 15.4642 23.0053C16.2865 23.7914 17.3671 24.2199 18.4837 24.2026" fill="white"/>
<path d="M18.4022 24.569C17.2039 24.5724 16.0488 24.1035 15.1695 23.2565C14.2901 22.4096 13.7517 21.2476 13.6627 20.0043C13.5992 19.5763 13.6445 19.1384 13.7942 18.7343C13.9438 18.3301 14.1926 17.9738 14.5158 17.7008C14.7893 17.5314 15.0941 17.4238 15.4102 17.3849C15.7263 17.3461 16.0468 17.3769 16.3507 17.4754C16.9802 17.6576 17.5492 18.0171 17.9948 18.5143C18.4404 19.0115 18.7455 19.627 18.8762 20.2931C18.887 20.3837 18.8642 20.4752 18.8126 20.5489C18.7609 20.6227 18.6842 20.6732 18.598 20.6903C18.5118 20.7073 18.4226 20.6896 18.3485 20.6407C18.2744 20.5918 18.221 20.5153 18.1991 20.4269C18.0882 19.8952 17.8407 19.4047 17.483 19.0078C17.1253 18.6108 16.6708 18.3222 16.1679 18.1728C15.9625 18.0994 15.7444 18.0728 15.5283 18.0946C15.3122 18.1165 15.1032 18.1864 14.9153 18.2996C14.7029 18.5082 14.5417 18.7667 14.4451 19.0535C14.3485 19.3403 14.3193 19.647 14.3601 19.9479C14.4342 21.0117 14.896 22.0059 15.6511 22.7273C16.4061 23.4487 17.3975 23.8429 18.4225 23.8293C18.4749 23.8137 18.5301 23.811 18.5837 23.8214C18.6372 23.8318 18.6878 23.8549 18.7313 23.8891C18.7748 23.9232 18.8101 23.9674 18.8344 24.0182C18.8587 24.0689 18.8713 24.1248 18.8713 24.1815C18.8713 24.2382 18.8587 24.2941 18.8344 24.3449C18.8101 24.3956 18.7748 24.4398 18.7313 24.474C18.6878 24.5081 18.6372 24.5313 18.5837 24.5416C18.5301 24.552 18.4749 24.5493 18.4225 24.5337L18.4022 24.569Z" fill="#231F20"/>
<path d="M32.685 15.9169C32.7079 15.439 32.5266 15.0412 32.2801 15.0285C32.0336 15.0157 31.8153 15.3928 31.7924 15.8707C31.7695 16.3486 31.9508 16.7464 32.1973 16.7592C32.4438 16.772 32.6622 16.3949 32.685 15.9169Z" fill="#231F20"/>
<path d="M28.5659 16.5119C28.5887 16.034 28.4075 15.6362 28.161 15.6234C27.9145 15.6107 27.6961 15.9878 27.6732 16.4657C27.6504 16.9436 27.8317 17.3414 28.0782 17.3542C28.3246 17.3669 28.543 16.9899 28.5659 16.5119Z" fill="#231F20"/>
<path d="M32.3105 25.0689C31.7221 25.461 31.0777 25.7535 30.4011 25.9353C29.5006 26.1819 28.4105 26.1748 27.7876 25.4563C27.5332 25.1327 27.3444 24.7589 27.2324 24.3574" fill="white"/>
<path d="M29.3785 26.4426C29.0408 26.4613 28.7032 26.405 28.388 26.2775C28.0728 26.15 27.7873 25.9541 27.5504 25.7029C27.269 25.3424 27.0575 24.9286 26.9275 24.4843C26.8952 24.3909 26.8999 24.2879 26.9405 24.1981C26.9811 24.1083 27.0544 24.0389 27.1442 24.0053C27.234 23.9717 27.3329 23.9765 27.4193 24.0188C27.5056 24.0611 27.5723 24.1373 27.6046 24.2307C27.7091 24.5871 27.8742 24.9212 28.0921 25.2169C28.7692 25.9213 29.9879 25.6818 30.3535 25.5832C30.9865 25.409 31.5896 25.1334 32.141 24.7661C32.2182 24.7137 32.3123 24.6955 32.4024 24.7153C32.4926 24.7351 32.5714 24.7914 32.6217 24.8717C32.672 24.9521 32.6896 25.0499 32.6705 25.1437C32.6515 25.2375 32.5974 25.3196 32.5202 25.3719C31.9098 25.7847 31.2401 26.0938 30.5363 26.2876C30.1583 26.3904 29.7692 26.4425 29.3785 26.4426Z" fill="#231F20"/>
<path d="M31.39 17.5105C31.39 17.5105 35.1546 21.9695 34.227 22.9275C33.2994 23.8855 31.126 23.4065 31.126 23.4065" fill="white"/>
<path d="M32.317 23.8926C31.8944 23.8909 31.4728 23.8484 31.0576 23.7658C30.9819 23.733 30.9196 23.6738 30.8814 23.5983C30.8432 23.5228 30.8315 23.4358 30.8483 23.3523C30.8652 23.2688 30.9095 23.1941 30.9737 23.141C31.0379 23.0878 31.1178 23.0597 31.1998 23.0614C31.755 23.1811 33.3326 23.3502 33.9826 22.681C34.3415 22.3006 32.9806 19.9549 31.1254 17.75C31.0664 17.6762 31.037 17.5816 31.0433 17.4858C31.0496 17.3901 31.0911 17.3005 31.1592 17.2358C31.1914 17.2015 31.2298 17.1742 31.2723 17.1556C31.3147 17.137 31.3603 17.1274 31.4063 17.1274C31.4524 17.1274 31.498 17.137 31.5404 17.1556C31.5829 17.1742 31.6213 17.2015 31.6535 17.2358C32.8519 18.6446 35.5196 22.0681 34.4769 23.1529C33.8733 23.6758 33.1011 23.9402 32.317 23.8926Z" fill="#231F20"/>
<path d="M38.8705 64.4463H38.7825C27.4483 61.375 21.5306 55.2183 18.5582 50.5903C16.6586 47.7627 15.3718 44.5397 14.7869 41.1439C14.7754 41.0496 14.8003 40.9544 14.8561 40.8791C14.912 40.8039 14.9942 40.7547 15.0848 40.7424C15.1773 40.7305 15.2705 40.7571 15.3441 40.8165C15.4178 40.8759 15.4657 40.9633 15.4776 41.0594C15.4776 41.2285 17.7254 57.9656 38.9586 63.7419C39.0379 63.7656 39.1065 63.8182 39.1518 63.89C39.1971 63.9619 39.2162 64.0482 39.2055 64.1334C39.1949 64.2186 39.1552 64.297 39.0938 64.3544C39.0323 64.4118 38.9531 64.4444 38.8705 64.4463Z" fill="#231F20"/>
<path d="M10.2314 29.2885C10.1579 29.2902 10.0862 29.2653 10.0283 29.2181C9.98363 29.1853 9.94691 29.1421 9.92105 29.092C9.8952 29.0419 9.88092 28.9862 9.87936 28.9293L9.80488 18.1234C9.80488 14.876 9.75748 11.1919 11.159 7.96564C12.0189 5.94395 13.7319 3.51368 15.9527 2.75291C16.5224 2.55286 17.1257 2.47774 17.7247 2.5323C18.3237 2.58686 18.9053 2.7699 19.4329 3.0699C20.2227 2.42318 21.0454 1.8212 21.8975 1.26657C22.9637 0.711051 24.1054 0.328582 25.2828 0.132452C27.4563 -0.247937 29.3453 0.181762 31.7083 1.5413C33.1093 2.42627 34.3283 3.59074 35.2951 4.96772C36.2618 6.34469 36.9574 7.90698 37.3416 9.56468C38.0915 12.8485 38.0915 16.2695 37.3416 19.5534C37.3406 19.6073 37.3281 19.6603 37.3052 19.7086C37.2822 19.7569 37.2493 19.7993 37.2088 19.8328C37.1682 19.8664 37.1211 19.8902 37.0707 19.9026C37.0203 19.9151 36.9679 19.9157 36.9172 19.9047C36.8665 19.8936 36.8188 19.871 36.7775 19.8386C36.7361 19.8061 36.7022 19.7646 36.678 19.7169C36.6539 19.6692 36.6402 19.6166 36.6378 19.5628C36.6355 19.5089 36.6446 19.4552 36.6645 19.4055C37.3872 16.2302 37.3872 12.9231 36.6645 9.74783C36.3043 8.18431 35.6505 6.71032 34.7407 5.41071C33.8308 4.11111 32.6829 3.01153 31.363 2.17528C29.1557 0.872096 27.4224 0.491708 25.3979 0.836876C24.2977 1.02792 23.2316 1.3913 22.236 1.91464C22.0261 2.02735 19.9339 3.57004 19.7105 3.75319L19.6631 3.79545C19.6086 3.82822 19.5467 3.84547 19.4837 3.84547C19.4207 3.84547 19.3588 3.82822 19.3043 3.79545C18.844 3.50374 18.3281 3.31985 17.7926 3.25659C17.257 3.19334 16.7147 3.25222 16.2032 3.42915C14.172 4.13358 12.6215 6.3666 11.8226 8.24741C10.509 11.3328 10.5293 14.9324 10.5564 18.1093L10.6241 28.4221C11.3281 28.2252 12.0552 28.1327 12.784 28.1474C12.7607 27.4141 12.9545 26.6912 13.3392 26.0764C13.3787 26.0217 13.4316 25.9791 13.4923 25.9531C13.5531 25.927 13.6195 25.9185 13.6845 25.9284C13.7488 25.9398 13.8088 25.9695 13.8579 26.0143C13.9069 26.0591 13.943 26.1172 13.9621 26.182C14.1367 26.7878 14.2279 27.4163 14.233 28.0488L15.8376 27.9431C15.8839 27.9402 15.9302 27.9469 15.974 27.9627C16.0178 27.9785 16.0581 28.0032 16.0927 28.0352C16.1273 28.0673 16.1555 28.1062 16.1756 28.1496C16.1957 28.193 16.2074 28.2401 16.21 28.2883C16.2128 28.3355 16.2065 28.3827 16.1917 28.4274C16.1768 28.4721 16.1536 28.5133 16.1234 28.5487C16.0932 28.584 16.0566 28.6128 16.0157 28.6334C15.9748 28.654 15.9304 28.666 15.885 28.6686L13.8944 28.7954C13.8456 28.7997 13.7965 28.7924 13.7508 28.7741C13.705 28.7558 13.6639 28.727 13.6304 28.6898C13.5945 28.6547 13.5663 28.612 13.5476 28.5646C13.5289 28.5172 13.5202 28.4662 13.522 28.4151C13.5326 28.1043 13.5168 27.7931 13.4746 27.4852C13.4003 27.8129 13.3865 28.1524 13.434 28.4855C13.4406 28.5391 13.4355 28.5935 13.4191 28.6447C13.4027 28.6959 13.3754 28.7426 13.3392 28.7814C13.3043 28.8229 13.2601 28.8548 13.2105 28.8745C13.1609 28.8941 13.1075 28.9008 13.0548 28.8941C12.1381 28.8257 11.2175 28.9478 10.3465 29.2533C10.3104 29.272 10.2715 29.2839 10.2314 29.2885Z" fill="#231F20"/>
<path d="M39.236 60.8396C39.1432 60.836 39.0554 60.795 38.991 60.7254C38.9266 60.6558 38.8907 60.5629 38.8907 60.4663C38.8907 60.3465 39.06 47.9205 37.6246 42.5246C37.6051 42.4331 37.62 42.3373 37.6662 42.257C37.7125 42.1766 37.7866 42.1177 37.8734 42.0924C37.9601 42.0672 38.0528 42.0774 38.1325 42.1211C38.2122 42.1648 38.2727 42.2386 38.3017 42.3274C39.7574 47.8289 39.6017 59.9379 39.5881 60.4803C39.5881 60.5281 39.579 60.5754 39.5612 60.6195C39.5434 60.6635 39.5174 60.7034 39.4846 60.7369C39.4518 60.7704 39.4129 60.7967 39.3703 60.8143C39.3276 60.8319 39.2819 60.8405 39.236 60.8396Z" fill="#231F20"/>
<path d="M34.6125 170.068C34.5224 170.067 34.4356 170.032 34.3688 169.969C33.6037 169.166 29.1282 166.841 27.4626 166.017C27.3829 165.975 27.3222 165.902 27.2931 165.814C27.2641 165.726 27.269 165.63 27.3069 165.545C27.3463 165.463 27.4151 165.4 27.4986 165.369C27.5821 165.339 27.6737 165.344 27.7537 165.383C28.0043 165.51 33.8474 168.426 34.8495 169.469C34.912 169.536 34.9469 169.626 34.9469 169.719C34.9469 169.812 34.912 169.902 34.8495 169.969C34.7845 170.03 34.7003 170.065 34.6125 170.068Z" fill="white"/>
<path d="M7.09544 89.5168C7.05098 89.5256 7.0053 89.5252 6.96099 89.5156C6.91668 89.506 6.87463 89.4874 6.83722 89.461C6.79981 89.4345 6.76778 89.4006 6.74297 89.3612C6.71815 89.3218 6.70103 89.2778 6.69258 89.2315C6.68413 89.1853 6.68452 89.1377 6.69373 89.0916C6.70294 89.0455 6.72079 89.0018 6.74625 88.9629C6.77172 88.9239 6.8043 88.8906 6.84214 88.8648C6.87998 88.839 6.92234 88.8212 6.9668 88.8124C11.1444 86.995 12.6001 81.5005 12.6136 81.4441C12.6252 81.3979 12.6454 81.3544 12.6731 81.3163C12.7008 81.2782 12.7354 81.2461 12.775 81.2219C12.8146 81.1977 12.8584 81.1818 12.9039 81.1752C12.9494 81.1686 12.9957 81.1714 13.0402 81.1835C13.0846 81.1955 13.1264 81.2165 13.163 81.2453C13.1997 81.2741 13.2305 81.3102 13.2538 81.3514C13.277 81.3926 13.2923 81.4382 13.2986 81.4855C13.3049 81.5328 13.3023 81.581 13.2907 81.6273C13.2298 81.8668 11.7402 87.5162 7.25117 89.4604C7.20313 89.4893 7.1503 89.5084 7.09544 89.5168Z" fill="white"/>
</svg>
