<svg width="134" height="145" viewBox="0 0 134 145" fill="none" xmlns="http://www.w3.org/2000/svg">
<path d="M61.0614 144.298C94.7847 144.298 122.123 140.71 122.123 136.285C122.123 131.859 94.7847 128.271 61.0614 128.271C27.3381 128.271 0 131.859 0 136.285C0 140.71 27.3381 144.298 61.0614 144.298Z" fill="#EAEAEA"/>
<path d="M56.7126 52.5277C56.7126 52.5277 50.8849 53.2279 48.7446 53.3691C46.6044 53.5103 44.3964 55.0632 44.035 55.3682C43.6736 55.6731 41.9682 58.0788 42.5385 59.931C43.1089 61.7832 45.4637 63.5677 46.4632 63.7088C47.4627 63.85 55.459 59.818 57.2434 58.3893L56.7126 52.5277Z" fill="white"/>
<path d="M46.4979 63.9912H46.4245C45.2668 63.8274 42.8443 61.8961 42.2626 60.0382C41.6301 57.9827 43.505 55.4472 43.8551 55.1592C43.8551 55.1592 46.2889 53.2618 48.7285 53.1037C50.8348 52.9625 56.6343 52.2679 56.6795 52.2623C56.7178 52.2576 56.7566 52.2606 56.7937 52.2712C56.8308 52.2818 56.8654 52.2998 56.8954 52.324C56.9255 52.3482 56.9503 52.3783 56.9685 52.4123C56.9867 52.4463 56.9979 52.4836 57.0014 52.522L57.5322 58.3893C57.5375 58.4373 57.5305 58.4859 57.5117 58.5304C57.4929 58.5749 57.463 58.6138 57.4249 58.6434C55.7703 59.9366 47.9435 63.9912 46.4979 63.9912ZM56.448 52.8383C55.2282 52.9851 50.6089 53.5272 48.7623 53.6514C46.9158 53.7757 44.8094 55.1197 44.2447 55.5827C43.9793 55.7917 42.3078 58.0957 42.8443 59.835C43.3807 61.5742 45.6113 63.2796 46.5261 63.4095C47.4409 63.5394 54.9459 59.7672 56.9618 58.2481L56.448 52.8383Z" fill="#231F20"/>
<path d="M43.3806 60.3319C43.3806 60.3319 47.2828 63.7201 48.5646 63.754C49.8465 63.7879 49.1293 62.4665 49.1293 62.4665C49.1293 62.4665 50.3604 63.4321 50.575 62.6303C50.7896 61.8284 50.5185 61.5008 50.5185 61.5008C50.5185 61.5008 51.535 62.89 51.806 61.8735C52.0771 60.8571 51.9133 60.5352 51.9133 60.5352C51.9133 60.5352 52.7152 62.1446 53.0879 61.0208C53.4606 59.8971 51.2696 55.9385 49.0785 54.0637C49.0785 54.0637 51.6423 54.3347 51.8568 53.4256C52.0714 52.5164 49.7731 52.1381 48.8074 52.0872C47.8418 52.0364 45.9839 53.2618 44.3181 53.4256C42.8877 53.4855 41.4548 53.4137 40.0376 53.211L40.2522 59.4227L43.3806 60.3319Z" fill="white"/>
<path d="M48.6382 64.0476H48.5534C47.249 63.9968 43.8212 61.0998 43.2396 60.5972L40.145 59.705C40.0847 59.6891 40.0312 59.6541 39.9925 59.6053C39.9538 59.5564 39.932 59.4963 39.9304 59.434L39.7158 53.2222C39.7155 53.1792 39.7239 53.1365 39.7404 53.0967C39.7569 53.057 39.7812 53.0209 39.8118 52.9907C39.8446 52.9638 39.8826 52.9439 39.9234 52.9322C39.9642 52.9206 40.0069 52.9174 40.049 52.9229C41.444 53.1204 42.854 53.1903 44.2617 53.1319C45.1284 52.9936 45.972 52.737 46.769 52.3695C47.4027 52.0541 48.0908 51.8625 48.7963 51.8048C48.8245 51.8048 51.3092 51.9573 51.9643 52.8326C52.0381 52.9261 52.0898 53.0352 52.1152 53.1516C52.1406 53.2681 52.1392 53.3888 52.1111 53.5046C51.9304 54.2782 50.6937 54.4081 49.8523 54.4081C51.8739 56.458 53.7487 59.9478 53.3591 61.1224C53.2348 61.5008 53.0315 61.6871 52.7661 61.721C52.6592 61.7188 52.5539 61.6946 52.4568 61.6499C52.3596 61.6052 52.2727 61.541 52.2014 61.4612C52.2014 61.6081 52.1393 61.7718 52.0941 61.9582C51.9812 62.3817 51.7497 62.5229 51.5746 62.5229C51.4604 62.5349 51.3449 62.5236 51.2352 62.4896C51.1256 62.4556 51.0239 62.3997 50.9365 62.3252C50.9186 62.4488 50.8941 62.5713 50.8631 62.6923C50.8401 62.8066 50.7872 62.9128 50.7098 63.0001C50.6325 63.0874 50.5334 63.1527 50.4226 63.1892C50.1586 63.2546 49.8799 63.2225 49.6377 63.0989C49.6662 63.2945 49.6263 63.494 49.5247 63.6636C49.4275 63.804 49.293 63.9143 49.1363 63.9822C48.9796 64.05 48.807 64.0727 48.6382 64.0476ZM40.5064 59.1968L43.4598 60.0495C43.5002 60.061 43.537 60.0824 43.5671 60.1116C45.1088 61.4387 47.712 63.4264 48.576 63.4603C48.7963 63.4603 48.9487 63.4321 48.9939 63.353C49.0391 63.2739 48.9487 62.7883 48.8471 62.6132C48.816 62.5544 48.8059 62.4867 48.8184 62.4213C48.8309 62.3559 48.8652 62.2967 48.9157 62.2533C48.9663 62.21 49.0301 62.1851 49.0966 62.1828C49.1631 62.1805 49.2285 62.2008 49.2819 62.2405C49.5384 62.4704 49.8601 62.6145 50.2024 62.6528C50.2024 62.6528 50.2419 62.6528 50.2645 62.5568C50.3752 62.2775 50.3752 61.9664 50.2645 61.6871C50.2193 61.6263 50.1998 61.5501 50.2104 61.4751C50.221 61.4 50.2607 61.3321 50.321 61.2862C50.3809 61.2411 50.4559 61.2206 50.5304 61.229C50.605 61.2374 50.6735 61.274 50.7219 61.3314C50.8957 61.5972 51.1375 61.8117 51.4221 61.9525C51.4476 61.9018 51.4684 61.8489 51.4843 61.7944C51.616 61.4334 51.6567 61.0455 51.6028 60.665C51.5858 60.631 51.5757 60.594 51.5733 60.556C51.5709 60.5181 51.5762 60.48 51.5888 60.4441C51.6015 60.4083 51.6213 60.3753 51.647 60.3473C51.6727 60.3193 51.7037 60.2967 51.7384 60.281C51.8089 60.2476 51.8897 60.2431 51.9636 60.2684C52.0374 60.2937 52.0985 60.3469 52.1337 60.4165C52.2574 60.7 52.4519 60.9469 52.6984 61.1337C52.7309 61.0698 52.7592 61.0037 52.7831 60.9361C53.0824 60.0495 51.089 56.2151 48.8584 54.3008C48.8108 54.2601 48.7775 54.2053 48.7633 54.1444C48.7491 54.0834 48.7547 54.0195 48.7793 53.962C48.8042 53.9048 48.8466 53.857 48.9004 53.8256C48.9542 53.7941 49.0166 53.7806 49.0786 53.7869C50.0499 53.8886 51.4447 53.7869 51.5464 53.369C51.5538 53.3366 51.5536 53.3029 51.5458 53.2705C51.5379 53.2382 51.5227 53.2081 51.5012 53.1827C51.1567 52.7253 49.6659 52.4373 48.7624 52.3921C48.1444 52.4618 47.5439 52.6416 46.9892 52.9229C46.1401 53.3122 45.2413 53.5821 44.3182 53.7248C42.9812 53.7943 41.6407 53.7376 40.3144 53.5554L40.5064 59.1968Z" fill="#231F20"/>
<path d="M52.7435 53.0923C51.9241 53.0584 51.1033 53.081 50.287 53.16C48.8075 53.3012 47.215 53.7247 46.3059 54.888C46.2467 54.9479 46.2033 55.0216 46.1796 55.1024C46.156 55.1833 46.1528 55.2687 46.1703 55.3511C46.2381 55.5148 46.4414 55.5657 46.6108 55.5939C47.8354 55.7839 49.0807 55.7991 50.3096 55.6391C50.4763 55.5965 50.6511 55.5965 50.8178 55.6391C50.9459 55.6969 51.0626 55.7772 51.1623 55.8762C51.6494 56.2801 52.2529 56.5176 52.8847 56.5539" fill="white"/>
<path d="M52.8844 56.8307C52.1877 56.7951 51.5215 56.5335 50.9869 56.0853L50.9361 56.0457C50.8744 55.9864 50.8039 55.9369 50.7272 55.8989C50.6084 55.8708 50.4846 55.8708 50.3658 55.8989C49.107 56.0646 47.831 56.0494 46.5766 55.8537C46.44 55.8462 46.3075 55.8039 46.1919 55.7308C46.0762 55.6576 45.9812 55.5561 45.9159 55.4359C45.872 55.3063 45.8646 55.1672 45.8945 55.0337C45.9244 54.9003 45.9904 54.7776 46.0853 54.6791C46.8872 53.6344 48.2594 53.0359 50.2698 52.8439C51.0993 52.7649 51.9332 52.7422 52.7658 52.7761C52.8036 52.7776 52.8408 52.7864 52.8752 52.8023C52.9095 52.8181 52.9405 52.8406 52.9662 52.8684C52.9919 52.8962 53.0118 52.9288 53.0249 52.9643C53.038 52.9998 53.044 53.0376 53.0425 53.0754C53.0355 53.1518 53.0005 53.2229 52.9442 53.2751C52.8879 53.3272 52.8143 53.3567 52.7375 53.3577C51.9333 53.3249 51.1277 53.3456 50.3262 53.4199C48.4853 53.6006 47.2486 54.1257 46.5484 55.0349C46.4524 55.1648 46.4524 55.2156 46.4524 55.2156C46.4524 55.2156 46.4863 55.2495 46.667 55.2777C47.8634 55.4649 49.0804 55.4802 50.2811 55.3229C50.4939 55.2669 50.7176 55.2669 50.9305 55.3229C51.0733 55.3827 51.2036 55.4689 51.3145 55.577C51.7623 55.9608 52.3238 56.1869 52.9126 56.2208C52.99 56.2266 53.0621 56.2622 53.1137 56.3202C53.1653 56.3781 53.1924 56.4538 53.1893 56.5314C53.1901 56.5714 53.1827 56.6111 53.1676 56.6482C53.1525 56.6852 53.13 56.7188 53.1014 56.7468C53.0728 56.7748 53.0389 56.7967 53.0015 56.8112C52.9642 56.8256 52.9243 56.8322 52.8844 56.8307Z" fill="#231F20"/>
<path d="M105.989 129.514C105.989 129.514 106.446 132.484 105.763 133.625C105.08 134.766 104.464 136.217 104.165 138.882C104.712 139.494 105.38 139.985 106.126 140.325C106.873 140.666 107.682 140.847 108.502 140.859C111.246 140.859 113.985 138.803 114.29 137.815C114.595 136.827 112.082 126.318 112.082 126.318L105.989 129.514Z" fill="white"/>
<path d="M108.502 141.152C107.637 141.141 106.784 140.95 105.998 140.59C105.211 140.23 104.508 139.71 103.934 139.063C103.889 139.001 103.867 138.925 103.872 138.848C104.199 135.974 104.888 134.517 105.509 133.478C106.029 132.614 105.826 130.355 105.701 129.559C105.693 129.499 105.703 129.437 105.73 129.383C105.757 129.328 105.8 129.283 105.854 129.254L111.947 126.058C111.987 126.038 112.03 126.028 112.074 126.028C112.118 126.028 112.162 126.038 112.201 126.058C112.242 126.075 112.279 126.102 112.307 126.137C112.336 126.171 112.356 126.212 112.365 126.256C112.788 128.023 114.884 136.889 114.567 137.905C114.251 138.922 111.377 141.152 108.502 141.152ZM104.465 138.786C104.986 139.337 105.611 139.778 106.304 140.084C106.997 140.39 107.745 140.556 108.502 140.571C111.134 140.571 113.76 138.549 114.014 137.747C114.189 137.183 113.065 131.727 111.885 126.764L106.306 129.695C106.402 130.406 106.639 132.744 106.012 133.794C105.385 134.845 104.787 136.104 104.465 138.786Z" fill="#231F20"/>
<path d="M87.0432 64.8269L100.246 68.4806L103.318 28.3866C103.318 28.3866 91.2616 30.3687 88.6357 31.5828C86.0098 32.7969 87.0432 64.8269 87.0432 64.8269Z" fill="white"/>
<path d="M100.246 68.7741H100.167L86.9703 65.1205C86.9104 65.1038 86.8574 65.0686 86.8189 65.0199C86.7803 64.9712 86.7582 64.9115 86.7557 64.8494C86.7557 64.7704 86.4903 56.7403 86.5524 48.665C86.6823 32.1587 87.998 31.5488 88.495 31.323C91.1434 30.0976 102.776 28.1832 103.268 28.0985C103.311 28.0904 103.357 28.0927 103.399 28.105C103.442 28.1173 103.482 28.1394 103.514 28.1695C103.547 28.1996 103.573 28.2369 103.589 28.2784C103.605 28.32 103.611 28.3647 103.606 28.4091L100.534 68.5031C100.532 68.5468 100.519 68.5894 100.498 68.6276C100.476 68.6657 100.446 68.6985 100.41 68.7233C100.362 68.7568 100.305 68.7746 100.246 68.7741ZM87.3317 64.601L99.981 68.1078L102.997 28.7253C100.964 29.0698 91.0587 30.7696 88.7434 31.8368C87.151 32.5766 86.8234 49.2241 87.3317 64.601Z" fill="#231F20"/>
<path d="M91.4253 125.301V134.235L87.1618 135.454L87.2634 133.625L85.3547 135.539C85.3547 135.539 73.8969 137.595 73.9533 136.07C74.0098 134.545 75.1731 133.709 76.6187 132.947C78.1717 132.134 82.2658 129.824 82.2658 129.824L82.8757 123.279" fill="white"/>
<path d="M76.0828 136.934C75.0155 136.934 74.1967 136.827 73.8805 136.55C73.8092 136.494 73.7526 136.421 73.7152 136.339C73.6779 136.256 73.661 136.166 73.6659 136.075C73.7336 134.381 75.0607 133.455 76.4894 132.687C77.9181 131.919 81.2724 130.044 81.984 129.643L82.5825 123.245C82.5789 123.203 82.5844 123.161 82.5989 123.122C82.6133 123.082 82.6362 123.046 82.666 123.016C82.6959 122.987 82.7318 122.964 82.7714 122.949C82.811 122.935 82.8533 122.93 82.8953 122.933C82.9372 122.937 82.9778 122.95 83.0142 122.971C83.0506 122.992 83.082 123.021 83.106 123.056C83.13 123.091 83.1462 123.13 83.1533 123.171C83.1604 123.213 83.1584 123.256 83.1472 123.296L82.5487 129.892C82.5435 129.938 82.5276 129.983 82.5021 130.022C82.4766 130.062 82.4423 130.094 82.4018 130.118C82.3567 130.118 78.2964 132.439 76.7548 133.246C75.2132 134.054 74.2983 134.805 74.2475 136.121C74.5581 136.685 79.567 136.313 85.2141 135.307L87.0776 133.444C87.1176 133.401 87.1704 133.371 87.2283 133.36C87.2862 133.349 87.3462 133.357 87.3995 133.382C87.4537 133.406 87.4995 133.445 87.5308 133.496C87.562 133.546 87.5773 133.605 87.5745 133.664L87.4955 135.082L91.1548 134.037V125.301C91.1423 125.257 91.1401 125.211 91.1484 125.167C91.1567 125.122 91.1753 125.08 91.2027 125.043C91.23 125.007 91.2655 124.978 91.3061 124.957C91.3468 124.937 91.3917 124.927 91.4371 124.927C91.4826 124.927 91.5274 124.937 91.5681 124.957C91.6087 124.978 91.6442 125.007 91.6715 125.043C91.6989 125.08 91.7175 125.122 91.7258 125.167C91.7341 125.211 91.7319 125.257 91.7195 125.301V134.235C91.7188 134.298 91.6983 134.359 91.6608 134.41C91.6232 134.46 91.5706 134.498 91.5105 134.517L87.2413 135.731C87.1971 135.744 87.1505 135.746 87.1053 135.737C87.0601 135.728 87.0177 135.709 86.9816 135.68C86.9452 135.652 86.9163 135.614 86.8976 135.572C86.8789 135.53 86.8709 135.484 86.8743 135.437L86.9308 134.37L85.5416 135.759C85.5012 135.803 85.4477 135.833 85.3891 135.844C84.1411 136.07 79.1096 136.934 76.0828 136.934Z" fill="#231F20"/>
<path d="M111.924 68.4298L115.51 128.904C115.51 128.904 115.171 131.383 109.789 131.688C104.408 131.993 104.95 130.734 104.95 130.734L96.4792 88.3356L93.0232 127.831L81.4072 128.548L83.7169 63.6072L111.924 68.4298Z" fill="#231F20"/>
<path d="M108.259 132.015C106.323 132.015 105.154 131.75 104.781 131.213C104.68 131.071 104.638 130.895 104.662 130.722L96.5983 90.3176L93.3174 127.853C93.3121 127.922 93.2822 127.985 93.2334 128.033C93.1846 128.081 93.1202 128.109 93.052 128.113L81.436 128.83C81.3569 128.833 81.2797 128.805 81.2214 128.751C81.1662 128.694 81.1358 128.617 81.1367 128.537L83.4464 63.5958C83.4483 63.5561 83.4589 63.5174 83.4774 63.4822C83.4959 63.4471 83.522 63.4165 83.5537 63.3925C83.5834 63.3664 83.6186 63.3472 83.6568 63.3365C83.6949 63.3258 83.7349 63.3237 83.7739 63.3304L111.97 68.1699C112.032 68.1802 112.089 68.2116 112.131 68.2588C112.173 68.3061 112.198 68.3664 112.201 68.4297L115.793 128.904C115.793 129.068 115.352 131.671 109.807 131.987C109.242 131.998 108.728 132.015 108.259 132.015ZM105.21 130.835C105.226 130.865 105.245 130.893 105.267 130.92C105.459 131.134 106.277 131.603 109.784 131.405C114.556 131.14 115.183 129.118 115.239 128.887L111.665 68.6725L83.9941 63.9233L81.7353 128.249L92.7979 127.565L96.2313 88.3073C96.2368 88.2398 96.2668 88.1766 96.3157 88.1298C96.3646 88.083 96.429 88.0557 96.4967 88.0531C96.564 88.0493 96.6303 88.0701 96.6834 88.1117C96.7364 88.1532 96.7724 88.2128 96.7847 88.279L105.255 130.677C105.272 130.73 105.272 130.787 105.255 130.841L105.21 130.835Z" fill="#231F20"/>
<path d="M101.263 27.1555C101.263 27.1555 96.6886 69.4462 98.7215 72.089C100.754 74.7318 109.841 78.2273 113.901 74.9803C117.961 71.7332 112.986 33.5028 111.19 30.6623C108.047 29.0672 104.71 27.8883 101.263 27.1555Z" fill="#FD6868"/>
<path d="M118.232 82.1576C118.232 82.1576 117.667 78.5491 117.989 78.2046C118.311 77.8602 126.386 77.6399 127.025 77.7133C127.663 77.7867 127.77 81.542 127.77 81.542L126.567 81.6606C126.567 81.6606 126.697 79.2154 126.251 79.1082C125.805 79.0009 119.249 79.1985 119.249 79.1985L119.599 82.1463L118.232 82.1576Z" fill="#231F20"/>
<path d="M118.232 82.4571C118.165 82.4566 118.101 82.4325 118.05 82.3891C117.999 82.3457 117.966 82.2857 117.955 82.2199C117.56 79.7295 117.503 78.3234 117.791 78.0298C118.294 77.5216 126.99 77.4651 127.075 77.4651C127.685 77.5103 128.024 78.8938 128.08 81.5705C128.08 81.641 128.053 81.7089 128.007 81.7618C127.96 81.8147 127.896 81.849 127.826 81.8585L126.623 81.9771C126.583 81.9804 126.543 81.9751 126.505 81.9614C126.467 81.9478 126.432 81.9262 126.403 81.898C126.373 81.8715 126.349 81.8383 126.333 81.8012C126.317 81.764 126.31 81.7237 126.313 81.6834C126.389 80.9278 126.342 80.1648 126.172 79.4246C125.646 79.3681 122.021 79.4246 119.587 79.5206L119.903 82.1634C119.908 82.2028 119.904 82.2427 119.892 82.2806C119.881 82.3185 119.861 82.3536 119.836 82.3837C119.81 82.414 119.778 82.4383 119.742 82.4549C119.706 82.4715 119.666 82.4799 119.627 82.4797H118.232V82.4571ZM118.198 78.442C118.166 79.5987 118.259 80.7555 118.475 81.8924H119.31L118.994 79.2608C118.99 79.2224 118.995 79.1835 119.006 79.1467C119.018 79.1098 119.037 79.0756 119.062 79.0463C119.086 79.0161 119.117 78.9917 119.153 78.9751C119.188 78.9585 119.226 78.95 119.265 78.9503C120.366 78.9164 125.889 78.747 126.347 78.8599C126.505 78.8994 126.979 79.0124 126.911 81.3785L127.532 81.3164C127.476 79.6674 127.25 78.1823 127.013 78.0072C126.307 77.9394 119.096 78.154 118.198 78.4251V78.442Z" fill="#231F20"/>
<path d="M119.949 72.8231C119.291 73.9048 118.751 75.054 118.339 76.2509C118.156 76.8805 118.173 77.5518 118.39 78.1709L120.27 77.8659C120.27 77.8659 119.994 81.5365 120.581 81.5365C121.168 81.5365 122.083 81.9826 122.027 79.1478C122.027 79.1478 122.281 80.232 123.241 79.8085C123.773 79.6021 124.204 79.1972 124.444 78.6791C124.444 78.6791 125.285 80.0457 126.138 78.5436C126.99 77.0415 125.601 72.7892 125.601 72.7892L125.466 70.745L119.711 70.9031L119.949 72.8231Z" fill="white"/>
<path d="M121.044 81.8526C120.948 81.8526 120.858 81.8526 120.773 81.8526H120.581C120.457 81.8479 120.34 81.7953 120.254 81.7058C119.836 81.2597 119.887 79.351 119.954 78.2385L118.441 78.4813C118.379 78.4916 118.316 78.4818 118.26 78.4533C118.204 78.4249 118.159 78.3793 118.13 78.3232C117.881 77.6451 117.856 76.9051 118.057 76.2112C118.457 75.0124 118.991 73.8625 119.65 72.7835L119.441 70.9651C119.436 70.9248 119.439 70.884 119.451 70.8451C119.462 70.8062 119.482 70.7702 119.508 70.7393C119.564 70.6783 119.641 70.6417 119.723 70.6376L125.477 70.4851C125.618 70.4513 125.765 70.5981 125.777 70.7562L125.906 72.7609C126.053 73.207 127.296 77.1712 126.403 78.7129C126.082 79.2776 125.709 79.5599 125.274 79.5656C125.123 79.5654 124.975 79.5343 124.837 79.4741C124.699 79.4138 124.575 79.3258 124.472 79.2155C124.182 79.6066 123.792 79.9127 123.343 80.102C123.193 80.1771 123.027 80.2161 122.86 80.2161C122.692 80.2161 122.527 80.1771 122.377 80.102L122.281 80.0512C122.304 80.6099 122.119 81.1572 121.762 81.5872C121.566 81.7657 121.309 81.8609 121.044 81.8526ZM120.655 81.2428H120.824C121.084 81.2428 121.253 81.2427 121.389 81.1467C121.524 81.0507 121.767 80.4973 121.739 79.1421C121.738 79.0697 121.765 78.9997 121.813 78.9455C121.861 78.8913 121.927 78.8567 121.999 78.8484C122.069 78.8396 122.141 78.8572 122.199 78.8978C122.257 78.9385 122.299 78.9993 122.315 79.0686C122.365 79.271 122.487 79.448 122.659 79.5656C122.735 79.5939 122.817 79.6056 122.897 79.5997C122.978 79.5939 123.057 79.5707 123.128 79.5317C123.59 79.3606 123.966 79.0134 124.173 78.5661C124.193 78.5157 124.227 78.4718 124.27 78.4391C124.313 78.4064 124.364 78.386 124.418 78.3802C124.472 78.3744 124.527 78.3834 124.576 78.4062C124.625 78.429 124.667 78.4647 124.698 78.5096C124.766 78.6282 125.026 78.9444 125.263 78.9444C125.5 78.9444 125.731 78.6395 125.878 78.3797C126.539 77.2503 125.698 74.0089 125.314 72.8625C125.31 72.8382 125.31 72.8135 125.314 72.7891L125.195 71.0272L120.039 71.1684L120.22 72.7722C120.227 72.8351 120.213 72.8985 120.18 72.9529C119.54 74.0115 119.012 75.1337 118.605 76.3016C118.475 76.8005 118.465 77.323 118.577 77.8263L120.203 77.5609C120.246 77.5524 120.291 77.5546 120.333 77.5674C120.376 77.5802 120.414 77.6032 120.446 77.6343C120.479 77.664 120.504 77.7008 120.521 77.7419C120.538 77.7829 120.545 77.8273 120.542 77.8715C120.457 79.2719 120.474 80.9039 120.655 81.2428Z" fill="#231F20"/>
<path d="M114.149 82.4907L110.563 82.9255L112.139 101.081L115.979 101.397L114.149 82.4907Z" fill="white"/>
<path d="M115.979 101.685L112.139 101.375C112.07 101.369 112.006 101.34 111.957 101.291C111.908 101.242 111.879 101.178 111.873 101.109L110.298 82.9483C110.294 82.9112 110.298 82.8737 110.308 82.8379C110.319 82.8022 110.337 82.7689 110.36 82.74C110.384 82.7111 110.413 82.6872 110.446 82.6697C110.479 82.6521 110.515 82.6413 110.552 82.6377L114.138 82.1973C114.215 82.1922 114.29 82.2142 114.353 82.2594C114.383 82.2843 114.408 82.3152 114.427 82.3501C114.445 82.385 114.457 82.4233 114.46 82.4627L116.272 101.369C116.277 101.409 116.274 101.45 116.261 101.489C116.249 101.527 116.228 101.563 116.201 101.593C116.174 101.623 116.14 101.647 116.103 101.663C116.065 101.679 116.025 101.686 115.984 101.685H115.979ZM112.41 100.81L115.657 101.075L113.889 82.8128L110.88 83.1798L112.41 100.81Z" fill="#231F20"/>
<path d="M114.15 82.4907C114.065 82.7392 115.979 101.397 115.979 101.397L133.152 99.6295L131.994 81.3895L114.15 82.4907Z" fill="white"/>
<path d="M115.979 101.685C115.911 101.684 115.846 101.663 115.792 101.623C115.735 101.572 115.698 101.502 115.691 101.425C113.771 82.7054 113.844 82.4739 113.872 82.4005C113.889 82.3436 113.923 82.2934 113.969 82.2569C114.016 82.2205 114.073 82.1995 114.132 82.1972L131.977 81.096C132.054 81.0913 132.129 81.1171 132.187 81.1679C132.246 81.2186 132.281 81.2901 132.287 81.3671L133.445 99.6126C133.45 99.6872 133.425 99.7608 133.377 99.8177C133.328 99.8746 133.259 99.9104 133.185 99.9176L116.007 101.685H115.979ZM114.448 82.7619C114.561 84.456 115.544 94.2762 116.238 101.075L132.846 99.3811L131.717 81.7059L114.448 82.7619Z" fill="#231F20"/>
<path d="M118.328 89.0696C118.28 89.0695 118.233 89.0575 118.19 89.0349C118.148 89.0122 118.112 88.9796 118.085 88.9397L113.906 82.6489C113.875 82.5848 113.867 82.5114 113.886 82.4424C113.905 82.3734 113.948 82.3135 114.007 82.274C114.067 82.2345 114.139 82.2181 114.21 82.2279C114.281 82.2376 114.345 82.2729 114.392 82.327L118.475 88.471L129.379 87.6183L131.723 81.288C131.735 81.2518 131.755 81.2184 131.781 81.1899C131.807 81.1614 131.838 81.1384 131.872 81.122C131.907 81.1057 131.945 81.0965 131.983 81.095C132.021 81.0934 132.06 81.0995 132.096 81.1129C132.132 81.1261 132.165 81.1464 132.194 81.1727C132.222 81.1989 132.246 81.2305 132.262 81.2656C132.278 81.3008 132.287 81.3389 132.289 81.3776C132.29 81.4163 132.284 81.4549 132.271 81.4913L129.859 87.991C129.84 88.0433 129.807 88.089 129.763 88.123C129.719 88.157 129.666 88.1778 129.611 88.183L118.351 89.0696H118.328Z" fill="#231F20"/>
<path d="M123.56 87.0033L125.216 86.8219L125.579 90.1395L123.923 90.3209L123.56 87.0033Z" fill="#EAEAEA"/>
<path d="M82.9834 30.8148C82.9834 30.8148 78.11 73.913 79.3297 75.1327C80.5495 76.3525 85.9311 74.8278 87.7551 73.608C89.5791 72.3883 92.2389 27.6807 92.2389 27.6807C92.2389 27.6807 85.6262 28.5785 82.9834 30.8148Z" fill="#FD6868"/>
<path d="M82.9834 30.8147C82.9834 30.8147 74.3434 48.8852 70.2663 50.1558C64.1731 52.0589 55.584 51.9064 55.584 51.9064L56.2729 61.0433C56.2729 61.0433 67.3411 62.5906 73.6319 60.9699C79.9227 59.3492 86.654 50.2066 86.654 50.2066L82.9834 30.8147Z" fill="#FD6868"/>
<path d="M93.673 33.8811L94.8645 35.6091L90.5728 61.3766L93.3172 64.8777L96.8184 61.834L96.056 35.8915L97.4 34.011L95.7003 32.7913L93.673 33.8811Z" fill="#EAEAEA"/>
<path d="M79.6341 63.545H79.6058C79.5295 63.5365 79.4593 63.4989 79.4099 63.44C79.3605 63.3811 79.3356 63.3055 79.3404 63.2288C79.7414 58.4119 81.5597 38.8505 81.5993 38.6529C81.622 38.5923 81.6642 38.541 81.7192 38.5068C81.7742 38.4727 81.8389 38.4577 81.9033 38.4641C81.9677 38.4705 82.0282 38.4981 82.0753 38.5424C82.1224 38.5868 82.1536 38.6455 82.164 38.7093C82.164 38.907 80.3287 58.474 79.9051 63.2796C79.8998 63.3492 79.8693 63.4144 79.8195 63.4633C79.7696 63.5121 79.7037 63.5411 79.6341 63.545Z" fill="#231F20"/>
<path d="M92.5546 24.3377L91.8939 29.9C91.8939 29.9 92.3175 32.5259 96.1405 32.1023C99.9636 31.6788 100.839 29.1941 100.839 29.1941L101.697 18.781C101.697 18.781 99.5626 16.9005 101.132 11.0332C101.132 11.0332 95.1805 12.0666 89.7537 10.6605C89.7537 10.6605 88.8163 17.437 88.8954 20.3395C88.9744 23.2421 92.5546 24.3377 92.5546 24.3377Z" fill="white"/>
<path d="M95.3787 32.4412C92.0809 32.4412 91.6461 29.9734 91.6404 29.9452V29.8661L92.2729 24.541C91.4428 24.236 88.7152 23.0332 88.6418 20.3452C88.5571 17.4257 89.4606 10.8977 89.5002 10.621C89.5059 10.5805 89.5205 10.5418 89.5429 10.5076C89.5654 10.4735 89.5952 10.4447 89.6301 10.4234C89.6631 10.3996 89.7009 10.3833 89.7409 10.3755C89.7808 10.3677 89.822 10.3686 89.8616 10.3782C95.1529 11.7561 101.026 10.7396 101.11 10.7396C101.158 10.7307 101.207 10.7344 101.252 10.7502C101.298 10.7661 101.339 10.7936 101.37 10.83C101.404 10.8654 101.428 10.909 101.44 10.9565C101.452 11.0041 101.451 11.0539 101.438 11.101C99.9303 16.7481 101.89 18.5382 101.912 18.5551C101.945 18.586 101.971 18.6238 101.988 18.6657C102.004 18.7077 102.011 18.7529 102.008 18.7979L101.15 29.2111C101.156 29.2352 101.156 29.2604 101.15 29.2845C101.116 29.3918 100.173 31.9443 96.2145 32.3847C95.9372 32.4196 95.6582 32.4385 95.3787 32.4412ZM92.2277 29.8887C92.2898 30.188 92.8545 32.1475 96.1411 31.8144C99.5293 31.436 100.467 29.42 100.585 29.1264L101.427 18.8883C101.003 18.4083 99.5576 16.3471 100.777 11.389C99.326 11.5867 94.5204 12.1062 90.0479 11.022C89.8616 12.3999 89.1614 17.7984 89.2348 20.3283C89.3082 23.0106 92.623 24.0497 92.6851 24.061C92.7501 24.0813 92.8061 24.1231 92.8441 24.1796C92.8821 24.236 92.8997 24.3038 92.8941 24.3716L92.2277 29.8887Z" fill="#231F20"/>
<path d="M99.9982 18.2615C100.191 17.7684 100.537 17.3505 100.986 17.0699C101.416 16.8292 101.884 16.6648 102.37 16.5843C102.631 16.5104 102.904 16.495 103.172 16.5391C103.354 16.5935 103.525 16.6816 103.674 16.7989C104.051 17.0465 104.325 17.4214 104.448 17.8549C104.505 18.2104 104.476 18.5744 104.363 18.9165C104.269 19.299 104.125 19.6674 103.934 20.012C103.736 20.3506 103.472 20.6464 103.158 20.8821C102.844 21.1177 102.487 21.2886 102.106 21.3848C101.726 21.481 101.33 21.5005 100.942 21.4422C100.554 21.384 100.181 21.2491 99.8457 21.0455" fill="white"/>
<path d="M101.381 21.7625C100.784 21.7638 100.198 21.6017 99.6867 21.2938C99.6216 21.254 99.575 21.1901 99.557 21.116C99.539 21.0419 99.5511 20.9637 99.5907 20.8985C99.6099 20.865 99.6357 20.8358 99.6664 20.8125C99.6971 20.7892 99.7322 20.7723 99.7696 20.7628C99.807 20.7533 99.846 20.7514 99.8841 20.7573C99.9222 20.7631 99.9588 20.7766 99.9916 20.7968C100.294 20.9801 100.629 21.1014 100.979 21.1538C101.329 21.2061 101.685 21.1884 102.028 21.1017C102.37 21.015 102.692 20.861 102.975 20.6487C103.257 20.4364 103.495 20.17 103.674 19.8651C103.853 19.5443 103.988 19.2004 104.074 18.843C104.177 18.5457 104.207 18.2279 104.159 17.9169C104.045 17.5553 103.81 17.2442 103.493 17.0359C103.374 16.9399 103.238 16.8671 103.092 16.8213C102.869 16.7898 102.642 16.8052 102.426 16.8665C101.972 16.942 101.534 17.0948 101.132 17.3183C100.739 17.564 100.436 17.9305 100.268 18.363C100.241 18.4355 100.185 18.4941 100.114 18.5258C100.043 18.5576 99.9626 18.5599 99.89 18.5324C99.8174 18.5046 99.7589 18.4491 99.7271 18.3782C99.6954 18.3073 99.693 18.2267 99.7206 18.154C99.9422 17.5989 100.339 17.131 100.85 16.8213C101.308 16.564 101.806 16.3864 102.324 16.2962C102.627 16.2124 102.946 16.1988 103.256 16.2566C103.478 16.3176 103.685 16.4233 103.866 16.5672C104.297 16.855 104.612 17.2876 104.752 17.787C104.817 18.1913 104.786 18.6053 104.662 18.9954C104.561 19.4024 104.405 19.7938 104.199 20.1587C103.976 20.5335 103.68 20.8599 103.329 21.1189C102.978 21.3778 102.578 21.564 102.154 21.6665C101.902 21.7306 101.642 21.7628 101.381 21.7625Z" fill="#231F20"/>
<path d="M92.0242 15.4209C92.0242 15.4209 89.6186 17.9959 89.9969 18.5719C90.3753 19.1479 91.691 19.0237 91.691 19.0237" fill="white"/>
<path d="M91.4255 19.3232C90.9511 19.3232 90.1154 19.2442 89.7766 18.7246C89.3248 18.0809 90.8608 16.2512 91.8208 15.2574C91.8466 15.2311 91.8773 15.2102 91.9113 15.1959C91.9452 15.1817 91.9816 15.1743 92.0184 15.1743C92.0553 15.1743 92.0917 15.1817 92.1256 15.1959C92.1596 15.2102 92.1903 15.2311 92.2161 15.2574C92.2682 15.3111 92.2973 15.383 92.2973 15.4578C92.2973 15.5327 92.2682 15.6046 92.2161 15.6583C91.0867 16.8611 90.1549 18.1769 90.2227 18.4818C90.4316 18.7924 91.29 18.8319 91.674 18.7981C91.7477 18.7932 91.8205 18.8169 91.8772 18.8642C91.934 18.9115 91.9704 18.9788 91.9789 19.0522C91.9852 19.1262 91.9621 19.1998 91.9145 19.2568C91.8669 19.3139 91.7988 19.35 91.7248 19.3571C91.6245 19.3511 91.5246 19.3398 91.4255 19.3232Z" fill="#231F20"/>
<path d="M94.8011 14.7554C94.9408 14.4045 94.8517 14.0395 94.6023 13.9403C94.3529 13.841 94.0375 14.0451 93.8978 14.396C93.7582 14.747 93.8472 15.1119 94.0967 15.2112C94.3461 15.3104 94.6615 15.1064 94.8011 14.7554Z" fill="#231F20"/>
<path d="M91.2398 14.1645C91.3784 13.8135 91.2886 13.4491 91.0391 13.3506C90.7896 13.252 90.475 13.4567 90.3364 13.8077C90.1978 14.1587 90.2877 14.5231 90.5371 14.6216C90.7866 14.7201 91.1012 14.5155 91.2398 14.1645Z" fill="#231F20"/>
<path d="M90.861 20.3395L93.3852 20.5032C93.3852 20.5032 93.549 22.3272 92.1824 22.6548C90.8158 22.9823 90.861 20.3395 90.861 20.3395Z" fill="white"/>
<path d="M91.9509 22.9483C91.719 22.9516 91.4933 22.8737 91.3128 22.7281C90.5617 22.1295 90.5674 20.5032 90.5674 20.3168C90.5697 20.2398 90.6021 20.1668 90.6577 20.1135C90.7163 20.0647 90.7905 20.0386 90.8667 20.0401L93.3909 20.2095C93.4586 20.2121 93.523 20.2393 93.5719 20.2862C93.6208 20.333 93.6508 20.3961 93.6563 20.4636C93.7184 21.1752 93.5038 22.6039 92.2389 22.9144C92.1444 22.9362 92.0479 22.9476 91.9509 22.9483ZM91.1434 20.6274C91.1716 21.1469 91.2959 21.994 91.6629 22.2876C91.7259 22.3348 91.7991 22.3665 91.8766 22.3803C91.954 22.394 92.0337 22.3893 92.109 22.3667C92.9617 22.1577 93.086 21.209 93.0973 20.7516L91.1434 20.6274Z" fill="#231F20"/>
<path d="M105.543 17.0981C105.504 17.1058 105.464 17.1058 105.425 17.0981C105.39 17.0828 105.358 17.0607 105.331 17.033C105.305 17.0053 105.284 16.9726 105.271 16.9369C105.257 16.9011 105.251 16.863 105.252 16.8248C105.253 16.7865 105.262 16.7489 105.278 16.7141C106.035 15.1983 106.475 13.5438 106.571 11.852C106.61 11.0306 106.462 10.2111 106.137 9.45568C105.812 8.70027 105.319 8.02885 104.696 7.49247C103.979 6.92776 102.833 6.58329 102.003 7.11412C101.957 7.14411 101.905 7.16072 101.85 7.16206C101.796 7.16339 101.743 7.14938 101.696 7.12165C101.649 7.09392 101.612 7.05359 101.587 7.0053C101.562 6.95701 101.552 6.90273 101.556 6.8487C101.542 6.65798 101.489 6.47226 101.399 6.30319C101.31 6.13411 101.186 5.98531 101.037 5.86612C98.6087 3.37577 94.7518 3.14425 91.4652 3.3193C91.7934 3.60996 92.0888 3.93566 92.3461 4.29059C92.3724 4.33609 92.3862 4.3877 92.3862 4.44024C92.3862 4.49278 92.3724 4.54439 92.3461 4.58989C92.324 4.63641 92.2898 4.67614 92.2471 4.70494C92.2044 4.73375 92.1547 4.75057 92.1033 4.75365C90.3087 4.85937 88.5134 4.55822 86.8516 3.87271C87.0443 5.26092 87.4441 6.61239 88.0374 7.88211C88.062 7.93264 88.0713 7.98925 88.064 8.04497C88.0568 8.10069 88.0335 8.15309 87.9969 8.1957C87.9603 8.23832 87.912 8.26929 87.858 8.28481C87.804 8.30033 87.7466 8.29972 87.693 8.28305C86.2741 7.86394 85.0497 6.9556 84.237 5.7193C84.0724 6.9968 84.2203 8.29516 84.6678 9.50297C85.1153 10.7108 85.8492 11.792 86.8064 12.6539C86.8337 12.6802 86.8555 12.7118 86.8703 12.7467C86.8851 12.7816 86.8928 12.8192 86.8928 12.8572C86.8928 12.8951 86.8851 12.9327 86.8703 12.9676C86.8555 13.0025 86.8337 13.0341 86.8064 13.0604C86.7796 13.0879 86.7475 13.1098 86.7121 13.1247C86.6767 13.1396 86.6387 13.1473 86.6003 13.1473C86.5619 13.1473 86.5238 13.1396 86.4884 13.1247C86.453 13.1098 86.421 13.0879 86.3942 13.0604C85.257 12.0414 84.4152 10.7349 83.9571 9.27821C83.499 7.82154 83.4416 6.26841 83.7909 4.78189C83.8048 4.72319 83.8369 4.67035 83.8824 4.63083C83.928 4.59131 83.9849 4.56712 84.045 4.56165C84.1052 4.55766 84.1653 4.57163 84.2175 4.60179C84.2698 4.63195 84.3119 4.67694 84.3386 4.73106C84.9312 5.96294 85.9504 6.93807 87.2073 7.47553C86.6854 6.17114 86.3563 4.79766 86.2304 3.39836C86.226 3.34743 86.2349 3.29622 86.2563 3.2498C86.2777 3.20337 86.3109 3.16335 86.3526 3.13369C86.3942 3.10403 86.4429 3.08575 86.4937 3.08067C86.5446 3.07559 86.5959 3.08388 86.6426 3.10472C88.1664 3.81459 89.8294 4.17536 91.5104 4.16071C91.2118 3.83114 90.8743 3.53912 90.5052 3.29107C90.4546 3.25704 90.4158 3.2081 90.3943 3.15104C90.3728 3.09397 90.3695 3.03162 90.385 2.97264C90.4006 2.91366 90.4341 2.86097 90.4809 2.8219C90.5277 2.78283 90.5856 2.75931 90.6464 2.7546C94.2097 2.50048 98.6539 2.56825 101.444 5.4313C101.729 5.69681 101.944 6.02847 102.07 6.39694C102.577 6.24267 103.114 6.21765 103.633 6.32418C104.152 6.4307 104.636 6.66538 105.041 7.00682C105.735 7.5979 106.285 8.33953 106.649 9.17524C107.013 10.011 107.181 10.9187 107.141 11.8294C107.046 13.5977 106.589 15.3276 105.797 16.9117C105.777 16.9637 105.742 17.0089 105.697 17.0419C105.652 17.0749 105.599 17.0944 105.543 17.0981Z" fill="#231F20"/>
<path d="M92.5551 24.3376C92.5551 24.3376 95.4521 24.6199 96.8695 23.9592C96.8695 23.9592 95.4351 27.1554 92.2163 27.6919L92.5551 24.3376Z" fill="#231F20"/>
<path d="M92.2387 27.9686C92.2034 27.9698 92.1683 27.9639 92.1353 27.9512C92.1023 27.9386 92.0722 27.9196 92.0467 27.8952C92.0139 27.8669 91.9885 27.831 91.9727 27.7907C91.957 27.7503 91.9514 27.7067 91.9563 27.6637L92.3008 24.3093C92.3043 24.2729 92.315 24.2376 92.3323 24.2053C92.3496 24.1731 92.3731 24.1446 92.4014 24.1215C92.4298 24.0984 92.4625 24.0811 92.4975 24.0707C92.5326 24.0603 92.5694 24.057 92.6058 24.0609C92.6058 24.0609 95.4293 24.3263 96.7789 23.7051C96.8299 23.68 96.8876 23.672 96.9435 23.6821C96.9994 23.6923 97.0506 23.7201 97.0895 23.7616C97.1304 23.8008 97.1583 23.8516 97.1694 23.9071C97.1805 23.9626 97.1743 24.0203 97.1516 24.0722C97.0895 24.2077 95.6156 27.4152 92.2839 27.9686H92.2387ZM92.8316 24.6425L92.5549 27.3418C94.1219 26.8887 95.4581 25.8572 96.2933 24.4562C95.153 24.6738 93.9886 24.7365 92.8316 24.6425Z" fill="#231F20"/>
<path d="M110.947 30.5042C110.947 30.5042 117.402 33.5874 120.756 42.233C124.111 50.8787 127.092 70.9765 127.092 70.9765L117.007 71.8518C117.007 71.8518 115.691 50.8787 108.536 40.8834L110.947 30.5042Z" fill="#FD6868"/>
<path d="M82.0685 69.2316C82.0261 69.231 81.9844 69.2211 81.9464 69.2026C81.9083 69.184 81.8748 69.1573 81.8482 69.1243C81.823 69.0958 81.8037 69.0624 81.7917 69.0262C81.7797 68.99 81.7752 68.9518 81.7783 68.9138C81.7815 68.8758 81.7923 68.8389 81.8101 68.8052C81.828 68.7715 81.8525 68.7417 81.8821 68.7177L86.8628 64.6011C86.892 64.5769 86.9258 64.5587 86.9621 64.5475C86.9984 64.5364 87.0365 64.5326 87.0743 64.5363C87.1121 64.5399 87.1488 64.551 87.1823 64.5689C87.2157 64.5869 87.2453 64.6112 87.2694 64.6406C87.3186 64.7006 87.3421 64.7776 87.3347 64.8549C87.3273 64.9321 87.2896 65.0033 87.2299 65.0528L82.2548 69.1639C82.2029 69.2082 82.1367 69.2323 82.0685 69.2316Z" fill="#231F20"/>
<path d="M110.095 69.2317C110.038 69.2321 109.983 69.2143 109.937 69.1809C107.955 67.8821 103.33 64.7931 103.115 64.1607C103.092 64.0865 103.098 64.0061 103.133 63.9366C103.167 63.867 103.228 63.8137 103.301 63.788C103.373 63.7644 103.45 63.7694 103.518 63.8021C103.585 63.8348 103.637 63.8925 103.663 63.963C103.911 64.3809 107.203 66.6962 110.253 68.6952C110.285 68.7164 110.313 68.7437 110.335 68.7755C110.356 68.8074 110.372 68.8432 110.379 68.881C110.387 68.9187 110.388 68.9577 110.38 68.9956C110.373 69.0335 110.359 69.0696 110.338 69.1018C110.311 69.142 110.275 69.175 110.233 69.1977C110.19 69.2204 110.143 69.2321 110.095 69.2317Z" fill="#231F20"/>
<path d="M100.552 49.2298C100.504 49.2301 100.458 49.2184 100.416 49.1959C100.347 49.1599 100.296 49.098 100.272 49.0239C100.249 48.9499 100.256 48.8696 100.292 48.8007L104.747 40.3866L101.387 37.7946C101.354 37.7683 101.326 37.735 101.307 37.6969C101.287 37.6589 101.276 37.6171 101.274 37.5743C101.273 37.5319 101.281 37.4897 101.297 37.4507C101.314 37.4116 101.339 37.3767 101.37 37.3485C101.483 37.2468 103.968 35.0219 104.629 34.4741C104.397 33.9715 102.861 32.2661 101.461 30.8657C101.417 30.8092 101.394 30.7385 101.399 30.6669C101.403 30.5953 101.434 30.5277 101.484 30.477C101.535 30.4263 101.603 30.3959 101.674 30.3915C101.746 30.3872 101.816 30.4092 101.873 30.4534C103.149 31.7297 105.261 33.9602 105.261 34.5758C105.258 34.6296 105.243 34.6821 105.217 34.7298C105.192 34.7774 105.157 34.8193 105.114 34.8525C104.826 35.0671 103.11 36.5974 102.042 37.5461L105.318 40.076C105.373 40.1176 105.411 40.1775 105.425 40.2449C105.44 40.3122 105.43 40.3825 105.397 40.443L100.828 49.0717C100.803 49.1229 100.764 49.1653 100.714 49.1935C100.665 49.2218 100.608 49.2344 100.552 49.2298Z" fill="#231F20"/>
<path d="M89.6865 45.8755C89.6335 45.8759 89.5813 45.8619 89.5356 45.8351C89.4898 45.8082 89.4522 45.7695 89.4267 45.723L85.5698 38.3084C85.5345 38.2445 85.5254 38.1693 85.5443 38.0987C85.5633 38.0282 85.6089 37.9677 85.6715 37.9301L88.9524 35.835L86.2757 34.0506C86.2397 34.0271 86.2093 33.9958 86.187 33.9591C86.1646 33.9224 86.1507 33.8811 86.1464 33.8383C86.1421 33.7955 86.1474 33.7523 86.1619 33.7118C86.1765 33.6714 86.1999 33.6347 86.2305 33.6044L89.8841 29.9395C89.9406 29.8953 90.0113 29.8733 90.0829 29.8776C90.1545 29.882 90.2221 29.9124 90.2728 29.9631C90.3235 30.0138 90.3539 30.0813 90.3583 30.1529C90.3626 30.2245 90.3406 30.2953 90.2964 30.3517L86.9082 33.74L89.647 35.5865C89.6868 35.6133 89.7195 35.6495 89.7421 35.6918C89.7648 35.7341 89.7767 35.7814 89.7769 35.8294C89.7751 35.8777 89.7619 35.9249 89.7384 35.9671C89.7148 36.0093 89.6815 36.0454 89.6413 36.0722L86.2079 38.2632L89.9463 45.4406C89.9805 45.5098 89.9868 45.5896 89.9636 45.6633C89.9405 45.7369 89.8897 45.7988 89.822 45.8359C89.7796 45.8572 89.7337 45.8706 89.6865 45.8755Z" fill="#231F20"/>
<path d="M96.3894 90.3627C96.3217 90.3636 96.2559 90.3401 96.2041 90.2966C96.1523 90.253 96.1178 90.1923 96.107 90.1255C96.0167 89.5608 93.8482 75.9006 93.9724 73.3086C93.9769 73.2338 94.011 73.1637 94.0671 73.114C94.1232 73.0642 94.1968 73.0387 94.2717 73.0432C94.3466 73.0477 94.4166 73.0818 94.4664 73.1379C94.5162 73.194 94.5416 73.2676 94.5371 73.3425C94.3847 75.8724 96.6435 89.894 96.6661 90.0352C96.6717 90.0719 96.67 90.1093 96.6611 90.1454C96.6522 90.1815 96.6363 90.2154 96.6143 90.2453C96.5922 90.2752 96.5645 90.3005 96.5327 90.3197C96.5009 90.3388 96.4656 90.3515 96.4289 90.3571L96.3894 90.3627Z" fill="white"/>
<path d="M117.098 71.0104C117.03 71.0101 116.965 70.9862 116.913 70.9429C116.862 70.8996 116.827 70.8395 116.815 70.7732L110.265 38.3309C110.257 38.2935 110.257 38.2549 110.265 38.2175C110.273 38.1801 110.288 38.1446 110.309 38.1131C110.331 38.0815 110.359 38.0546 110.391 38.0338C110.423 38.0131 110.459 37.9989 110.496 37.9921C110.533 37.9839 110.572 37.9833 110.609 37.9903C110.646 37.9973 110.682 38.0118 110.714 38.0329C110.745 38.054 110.772 38.0813 110.793 38.1131C110.814 38.1449 110.828 38.1806 110.835 38.218L117.403 70.6602C117.411 70.6974 117.411 70.7358 117.404 70.7732C117.397 70.8105 117.383 70.8461 117.362 70.8778C117.341 70.9094 117.313 70.9365 117.282 70.9573C117.25 70.9781 117.214 70.9924 117.177 70.9991L117.098 71.0104Z" fill="#231F20"/>
<path d="M27.5184 101.521L26.4512 126.696C26.4512 126.696 36.7062 132.795 36.2431 133.433C35.7801 134.071 17.8281 130.909 17.8281 130.909L19.0366 101.826" fill="white"/>
<path d="M35.5764 133.755C33.4135 133.755 27.4503 132.902 17.7769 131.196C17.7066 131.185 17.6429 131.149 17.598 131.093C17.5532 131.038 17.5304 130.968 17.5341 130.897L18.7425 101.815C18.7469 101.738 18.7813 101.666 18.8384 101.614C18.8954 101.562 18.9705 101.535 19.0475 101.538C19.0858 101.54 19.1235 101.549 19.1582 101.565C19.193 101.581 19.2242 101.604 19.25 101.632C19.2758 101.661 19.2956 101.694 19.3083 101.73C19.3211 101.767 19.3265 101.805 19.3242 101.843L18.127 130.643C24.3388 131.733 34.0008 133.275 35.8248 133.212C34.9439 132.298 30.494 129.418 26.3039 126.927C26.2591 126.899 26.2224 126.86 26.1976 126.814C26.1728 126.767 26.1608 126.715 26.1627 126.662L27.23 101.487C27.2308 101.449 27.2391 101.411 27.2546 101.376C27.2701 101.341 27.2925 101.31 27.3204 101.283C27.3482 101.257 27.3811 101.237 27.417 101.223C27.4528 101.21 27.491 101.204 27.5293 101.205C27.5679 101.207 27.6058 101.216 27.6409 101.232C27.676 101.248 27.7075 101.271 27.7337 101.299C27.76 101.327 27.7803 101.361 27.7937 101.397C27.8071 101.433 27.8132 101.471 27.8117 101.51L26.75 126.515C29.7486 128.3 36.35 132.326 36.5364 133.292C36.5507 133.344 36.5525 133.398 36.5417 133.451C36.5309 133.504 36.5078 133.554 36.4742 133.596C36.4027 133.702 36.1034 133.755 35.5764 133.755Z" fill="#231F20"/>
<path d="M29.9801 127.537L26.6596 130.536L17.1274 129.209V132.992C17.1274 132.992 38.174 135.771 39.1509 134.026C40.1278 132.281 29.9801 127.537 29.9801 127.537Z" fill="#231F20"/>
<path d="M20.6513 106.858L19.5896 132.038C19.5896 132.038 29.839 138.137 29.3759 138.769C28.9129 139.402 10.9609 136.251 10.9609 136.251L12.1694 107.168" fill="white"/>
<path d="M28.7095 139.097C26.5466 139.097 20.5834 138.238 10.91 136.539C10.8402 136.526 10.7772 136.489 10.7326 136.434C10.688 136.379 10.6647 136.31 10.6672 136.239L11.8756 107.157C11.8813 107.08 11.916 107.008 11.9726 106.956C12.0291 106.903 12.1035 106.874 12.1806 106.875C12.2191 106.876 12.2571 106.885 12.2921 106.901C12.3272 106.917 12.3587 106.94 12.385 106.969C12.4112 106.997 12.4316 107.03 12.445 107.066C12.4583 107.103 12.4644 107.141 12.4629 107.18L11.2601 135.98C17.4718 137.069 27.1283 138.611 28.9579 138.543C28.077 137.628 23.6328 134.754 19.437 132.258C19.3922 132.23 19.3555 132.191 19.3307 132.144C19.3059 132.098 19.2939 132.045 19.2958 131.993L20.3631 106.818C20.3807 106.757 20.4177 106.703 20.4686 106.664C20.5196 106.626 20.5817 106.605 20.6455 106.605C20.7093 106.605 20.7714 106.626 20.8223 106.664C20.8733 106.703 20.9103 106.757 20.9278 106.818L19.8662 131.823C22.8648 133.608 29.4662 137.634 29.6582 138.6C29.6698 138.653 29.6703 138.708 29.6596 138.762C29.6489 138.815 29.6272 138.866 29.596 138.91C29.5339 139.046 29.2346 139.097 28.7095 139.097Z" fill="#231F20"/>
<path d="M23.0285 132.834L19.7758 135.906L10.2153 134.777L10.2831 138.555C10.2831 138.555 31.3861 140.859 32.3065 139.091C33.227 137.324 23.0285 132.834 23.0285 132.834Z" fill="#231F20"/>
<path d="M32.4708 60.9023C33.2953 66.5154 29.0826 122.043 29.0826 122.043C22.9986 122.659 16.8632 122.556 10.8031 121.738C5.96924 111.703 0.85302 80.3112 2.27607 72.9982C3.69913 65.6853 7.14947 58.0731 7.14947 58.0731C7.14947 58.0731 32.499 61.1056 32.4708 60.9023Z" fill="#231F20"/>
<path d="M32.521 63.7596C32.521 63.7596 35.3107 33.9602 33.9441 31.724C29.3531 24.2303 5.51126 24.4675 3.48397 31.5715C1.88586 37.1621 4.69808 60.2076 4.69808 60.2076L32.521 63.7596Z" fill="#FD6868"/>
<path d="M17.6975 58.0729C17.6975 58.0729 34.6386 61.7322 40.8503 60.6141L42.375 52.7083C42.375 52.7083 22.6782 49.9694 21.1535 48.953C19.6288 47.9365 19.5271 37.5798 19.5271 37.5798C19.5271 37.5798 14.7554 38.5963 13.5413 41.1375C12.3272 43.6786 11.1977 55.3511 17.6975 58.0729Z" fill="#FD6868"/>
<path d="M15.4616 28.81C15.0437 29.0528 25.3608 46.3158 25.3608 46.3158L22.0234 28.4542C22.0234 28.4542 19.4202 26.5511 15.4616 28.81Z" fill="white"/>
<path d="M36.2256 61.5629C35.9489 61.5629 8.55514 59.5243 8.08079 42.5493C8.07928 42.511 8.08543 42.4728 8.09887 42.4369C8.11231 42.4011 8.13278 42.3682 8.15907 42.3403C8.18537 42.3125 8.21696 42.2901 8.252 42.2746C8.28704 42.2591 8.32483 42.2507 8.36314 42.25C8.40162 42.2477 8.44016 42.2533 8.4764 42.2664C8.51264 42.2796 8.5458 42.3 8.57384 42.3265C8.60188 42.3529 8.6242 42.3848 8.63944 42.4203C8.65468 42.4557 8.6625 42.4938 8.66243 42.5324C9.10855 58.9822 35.9941 60.9643 36.2652 60.9812C36.3265 60.9988 36.3805 61.0358 36.4189 61.0868C36.4574 61.1377 36.4782 61.1998 36.4782 61.2636C36.4782 61.3274 36.4574 61.3895 36.4189 61.4404C36.3805 61.4914 36.3265 61.5284 36.2652 61.5459L36.2256 61.5629Z" fill="#231F20"/>
<path d="M15.4614 28.81C15.1452 25.0039 14.8967 21.6552 14.603 17.8491C14.507 16.443 14.3546 15.0256 14.315 13.6195C14.2586 11.5809 15.1451 12.0552 17.1386 12.0383C17.2816 10.7282 17.4811 9.42937 17.7371 8.14185L18.7141 11.3663C21.7578 10.508 28.0825 11.3663 28.0825 11.3663C28.0825 11.3663 28.7206 17.499 27.9131 20.4016C26.7498 24.5917 21.3061 23.6712 21.3061 23.6712L22.0119 28.4542C22.0119 28.4542 22.2152 30.0241 20.3178 30.5606C17.5847 31.3342 15.4614 28.81 15.4614 28.81Z" fill="white"/>
<path d="M19.2563 31.0012C18.1245 30.97 17.0331 30.5739 16.1448 29.8718C16.1448 29.8718 15.2243 29.1716 15.1735 28.878C14.8685 25.23 14.6088 21.7853 14.3151 17.9114C14.2812 17.4653 14.2474 17.0135 14.2078 16.5618C14.1288 15.6131 14.0497 14.6361 14.0215 13.6705C14.0215 12.863 14.1175 12.3943 14.4168 12.1006C14.8064 11.7166 15.3881 11.7392 16.1956 11.7731H16.8902C17.0314 10.5477 17.2234 9.31661 17.4549 8.11379C17.4644 8.04762 17.4965 7.98681 17.5459 7.94177C17.5953 7.89673 17.6588 7.87027 17.7256 7.86694C17.7924 7.8636 17.8582 7.88359 17.9118 7.92348C17.9655 7.96336 18.0036 8.02066 18.0196 8.08556L18.9118 11.039C22.0572 10.2936 27.868 11.039 28.1165 11.0728C28.1819 11.0813 28.2425 11.1116 28.2886 11.1587C28.3347 11.2058 28.3636 11.2671 28.3706 11.3326C28.3706 11.5867 29.0087 17.5443 28.1899 20.4865C27.1621 24.1966 22.9607 24.1288 21.6506 24.0102L22.3 28.4149C22.3 28.4149 22.5146 30.2502 20.4026 30.8431C20.0295 30.948 19.6438 31.0012 19.2563 31.0012ZM15.7551 28.7085C16.1052 29.0869 17.9744 30.9278 20.2728 30.2784C21.8878 29.821 21.7579 28.5391 21.7523 28.4883L21.0295 23.7279C21.0229 23.6827 21.0271 23.6366 21.0419 23.5934C21.0566 23.5502 21.0814 23.5111 21.1142 23.4794C21.1468 23.4463 21.187 23.4218 21.2313 23.408C21.2756 23.3943 21.3227 23.3916 21.3683 23.4003C21.5772 23.4342 26.5636 24.2248 27.6421 20.3396C28.3367 17.8323 27.9301 12.7726 27.8228 11.6375C26.6652 11.502 21.4304 10.943 18.7876 11.6827C18.7516 11.694 18.7138 11.6979 18.6763 11.6943C18.6388 11.6907 18.6024 11.6796 18.5692 11.6617C18.5361 11.6438 18.5068 11.6195 18.4832 11.5901C18.4596 11.5607 18.4422 11.527 18.4318 11.4907L17.7994 9.40697C17.6469 10.3048 17.517 11.2084 17.421 12.1063C17.4128 12.1772 17.379 12.2426 17.326 12.2904C17.273 12.3383 17.2044 12.3651 17.133 12.366C16.7772 12.366 16.4497 12.366 16.1561 12.366C15.4954 12.366 15.0267 12.3208 14.8064 12.5241C14.6035 12.8634 14.5256 13.2629 14.5862 13.6535C14.6144 14.6022 14.6935 15.5735 14.7725 16.5109C14.8064 16.9684 14.846 17.4201 14.8798 17.8719C15.1904 21.6836 15.4445 25.1001 15.7551 28.7085Z" fill="#231F20"/>
<path d="M21.3175 23.6712C21.3175 23.6712 19.0587 23.3888 17.9575 22.2764C17.9575 22.2764 19.4427 25.9865 21.7297 26.5455L21.3175 23.6712Z" fill="#231F20"/>
<path d="M21.7295 26.9296C21.6996 26.9351 21.669 26.9351 21.6391 26.9296C19.1827 26.3367 17.6862 22.5927 17.5959 22.412C17.5658 22.3297 17.5644 22.2396 17.5919 22.1564C17.6193 22.0732 17.674 22.0017 17.7471 21.9533C17.8202 21.905 17.9075 21.8828 17.9948 21.8902C18.0821 21.8976 18.1644 21.9342 18.2283 21.9941C19.2392 23.0049 21.3455 23.276 21.3681 23.2816C21.4519 23.292 21.53 23.3297 21.5902 23.3889C21.6505 23.4481 21.6895 23.5255 21.7013 23.6092L22.1135 26.4835C22.1217 26.5385 22.1178 26.5945 22.1022 26.6479C22.0866 26.7012 22.0596 26.7505 22.0231 26.7923C21.9866 26.8342 21.9415 26.8677 21.8908 26.8904C21.8401 26.9131 21.7851 26.9246 21.7295 26.924V26.9296ZM18.9399 23.3889C19.4717 24.433 20.2706 25.3175 21.2551 25.9527L20.9728 24.0101C20.273 23.8842 19.5905 23.6757 18.9399 23.3889Z" fill="#231F20"/>
<path d="M15.4731 16.3302C15.3761 15.8482 15.1475 15.4025 14.8125 15.0427C14.4776 14.6828 14.0495 14.4228 13.5757 14.2916C13.3643 14.2223 13.1406 14.199 12.9195 14.2234C12.6984 14.2477 12.485 14.3191 12.2938 14.4327C12.0704 14.6245 11.9008 14.8712 11.8018 15.1485C11.7028 15.4257 11.6777 15.724 11.7291 16.0139C11.794 16.9431 12.2124 17.8121 12.8982 18.4423C13.5841 19.0725 14.4853 19.416 15.4166 19.4021" fill="white"/>
<path d="M15.3483 19.6959C14.3489 19.6986 13.3855 19.3227 12.6521 18.6438C11.9186 17.9648 11.4696 17.0333 11.3954 16.0366C11.3424 15.6934 11.3802 15.3424 11.505 15.0184C11.6298 14.6945 11.8374 14.4088 12.1069 14.19C12.335 14.0542 12.5892 13.9679 12.8528 13.9368C13.1165 13.9056 13.3838 13.9303 13.6372 14.0093C14.1623 14.1553 14.6368 14.4435 15.0085 14.8421C15.3802 15.2407 15.6346 15.7341 15.7436 16.2681C15.7526 16.3407 15.7336 16.4141 15.6905 16.4732C15.6474 16.5323 15.5834 16.5728 15.5115 16.5865C15.4396 16.6002 15.3653 16.5859 15.3035 16.5467C15.2417 16.5075 15.1971 16.4463 15.1789 16.3754C15.0864 15.9491 14.8799 15.5559 14.5816 15.2377C14.2833 14.9195 13.9042 14.6882 13.4848 14.5683C13.3135 14.5095 13.1316 14.4882 12.9514 14.5057C12.7711 14.5232 12.5968 14.5793 12.4401 14.67C12.2629 14.8372 12.1284 15.0445 12.0479 15.2744C11.9673 15.5043 11.943 15.7502 11.977 15.9914C12.0388 16.8442 12.424 17.6411 13.0537 18.2195C13.6835 18.7978 14.5103 19.1138 15.3652 19.1029C15.4089 19.0904 15.4549 19.0883 15.4996 19.0966C15.5443 19.1049 15.5864 19.1235 15.6227 19.1508C15.659 19.1782 15.6884 19.2136 15.7087 19.2543C15.729 19.295 15.7395 19.3398 15.7395 19.3853C15.7395 19.4307 15.729 19.4755 15.7087 19.5162C15.6884 19.5569 15.659 19.5923 15.6227 19.6197C15.5864 19.6471 15.5443 19.6656 15.4996 19.674C15.4549 19.6823 15.4089 19.6801 15.3652 19.6676L15.3483 19.6959Z" fill="#231F20"/>
<path d="M27.26 12.76C27.2791 12.3768 27.1279 12.0579 26.9223 12.0477C26.7167 12.0375 26.5346 12.3398 26.5155 12.7229C26.4964 13.106 26.6476 13.4249 26.8532 13.4352C27.0588 13.4454 27.2409 13.1431 27.26 12.76Z" fill="#231F20"/>
<path d="M23.8249 13.2368C23.844 12.8536 23.6928 12.5347 23.4872 12.5245C23.2816 12.5143 23.0995 12.8166 23.0804 13.1997C23.0614 13.5828 23.2126 13.9017 23.4181 13.912C23.6237 13.9222 23.8058 13.6199 23.8249 13.2368Z" fill="#231F20"/>
<path d="M26.9477 20.0966C26.457 20.4109 25.9195 20.6454 25.3552 20.7912C24.6042 20.9888 23.695 20.9832 23.1755 20.4072C22.9633 20.1478 22.8058 19.8481 22.7124 19.5262" fill="white"/>
<path d="M24.5024 21.1979C24.2207 21.2129 23.9391 21.1678 23.6762 21.0656C23.4133 20.9634 23.1752 20.8063 22.9777 20.605C22.743 20.316 22.5666 19.9842 22.4582 19.6281C22.4312 19.5532 22.4351 19.4706 22.469 19.3986C22.5029 19.3266 22.564 19.271 22.6389 19.2441C22.7138 19.2171 22.7963 19.221 22.8683 19.2549C22.9403 19.2888 22.9959 19.3499 23.0229 19.4248C23.11 19.7105 23.2477 19.9783 23.4295 20.2153C23.9942 20.7801 25.0106 20.5881 25.3156 20.509C25.8435 20.3694 26.3465 20.1484 26.8064 19.8539C26.8708 19.812 26.9492 19.7974 27.0244 19.8133C27.0996 19.8291 27.1654 19.8742 27.2073 19.9386C27.2493 20.003 27.2639 20.0815 27.248 20.1567C27.2321 20.2318 27.187 20.2976 27.1226 20.3396C26.6136 20.6706 26.055 20.9184 25.468 21.0737C25.1528 21.1561 24.8283 21.1978 24.5024 21.1979Z" fill="#231F20"/>
<path d="M26.1797 14.0374C26.1797 14.0374 29.3195 17.6119 28.5458 18.3799C27.7722 19.1479 25.9595 18.7639 25.9595 18.7639" fill="white"/>
<path d="M26.9534 19.1535C26.6009 19.1521 26.2492 19.1181 25.903 19.0519C25.8399 19.0256 25.7879 18.9781 25.756 18.9176C25.7241 18.8571 25.7144 18.7874 25.7284 18.7204C25.7425 18.6535 25.7795 18.5936 25.833 18.551C25.8865 18.5084 25.9532 18.4858 26.0216 18.4872C26.4847 18.5832 27.8004 18.7187 28.3425 18.1822C28.6418 17.8773 27.5068 15.9968 25.9595 14.2293C25.9103 14.1701 25.8858 14.0943 25.891 14.0175C25.8963 13.9408 25.9309 13.869 25.9877 13.8171C26.0145 13.7896 26.0466 13.7677 26.082 13.7528C26.1174 13.7379 26.1554 13.7302 26.1938 13.7302C26.2322 13.7302 26.2703 13.7379 26.3057 13.7528C26.3411 13.7677 26.3731 13.7896 26.4 13.8171C27.3995 14.9465 29.6244 17.6909 28.7548 18.5606C28.2513 18.9797 27.6073 19.1917 26.9534 19.1535Z" fill="#231F20"/>
<path d="M32.4199 51.6636H32.3465C22.8933 49.2015 17.9578 44.266 15.4788 40.5559C13.8944 38.2892 12.8212 35.7054 12.3334 32.9832C12.3237 32.9076 12.3445 32.8312 12.3911 32.7709C12.4376 32.7106 12.5062 32.6712 12.5818 32.6613C12.6589 32.6517 12.7367 32.6731 12.7981 32.7207C12.8595 32.7683 12.8995 32.8383 12.9093 32.9154C12.9093 33.0509 14.7842 46.4683 32.4933 51.0989C32.5595 51.1179 32.6167 51.1601 32.6544 51.2177C32.6922 51.2753 32.7081 51.3445 32.6992 51.4128C32.6904 51.4811 32.6573 51.544 32.606 51.59C32.5548 51.636 32.4887 51.6621 32.4199 51.6636Z" fill="#231F20"/>
<path d="M8.53268 23.4793C8.47138 23.4806 8.41152 23.4606 8.36327 23.4228C8.326 23.3965 8.29538 23.3619 8.27381 23.3217C8.25225 23.2815 8.24034 23.2369 8.23903 23.1913L8.17692 14.5287C8.17692 11.9254 8.13739 8.97203 9.30632 6.38569C10.0235 4.76499 11.4522 2.81676 13.3044 2.20688C13.7796 2.04651 14.2828 1.98629 14.7823 2.03003C15.2819 2.07377 15.767 2.2205 16.207 2.461C16.8657 1.94255 17.5519 1.45997 18.2625 1.01535C19.1518 0.570017 20.104 0.263409 21.086 0.106181C22.8987 -0.198759 24.4743 0.14571 26.4451 1.23559C27.6136 1.94503 28.6302 2.87853 29.4366 3.98239C30.2429 5.08625 30.823 6.33866 31.1434 7.66757C31.7689 10.3001 31.7689 13.0425 31.1434 15.6751C31.1426 15.7183 31.1322 15.7607 31.1131 15.7994C31.0939 15.8382 31.0665 15.8722 31.0327 15.8991C30.9989 15.926 30.9595 15.9451 30.9175 15.955C30.8755 15.965 30.8318 15.9655 30.7895 15.9567C30.7472 15.9478 30.7074 15.9297 30.6729 15.9037C30.6385 15.8776 30.6101 15.8443 30.59 15.8061C30.5699 15.7679 30.5584 15.7257 30.5565 15.6826C30.5545 15.6394 30.5621 15.5964 30.5787 15.5565C31.1815 13.011 31.1815 10.3599 30.5787 7.81439C30.2783 6.56098 29.733 5.37936 28.9742 4.33752C28.2153 3.29569 27.2579 2.41421 26.1571 1.74382C24.3162 0.69912 22.8705 0.39418 21.182 0.670885C20.2644 0.82404 19.3753 1.11535 18.5449 1.53488C18.3698 1.62523 16.6249 2.86194 16.4385 3.00876L16.399 3.04264C16.3535 3.06891 16.3019 3.08274 16.2494 3.08274C16.1968 3.08274 16.1452 3.06891 16.0997 3.04264C15.7158 2.80879 15.2856 2.66137 14.8389 2.61066C14.3923 2.55995 13.9399 2.60716 13.5134 2.749C11.8193 3.3137 10.5261 5.10381 9.85973 6.61157C8.76421 9.08497 8.78115 11.9706 8.80374 14.5174L8.86021 22.7847C9.44731 22.6268 10.0538 22.5527 10.6616 22.5645C10.6421 21.9767 10.8038 21.3971 11.1247 20.9042C11.1576 20.8604 11.2017 20.8263 11.2524 20.8054C11.3031 20.7845 11.3584 20.7777 11.4127 20.7856C11.4663 20.7948 11.5164 20.8186 11.5572 20.8545C11.5981 20.8904 11.6282 20.9369 11.6442 20.9889C11.7898 21.4746 11.8659 21.9784 11.8701 22.4854L13.2084 22.4007C13.247 22.3984 13.2857 22.4037 13.3222 22.4164C13.3587 22.4291 13.3923 22.4489 13.4212 22.4746C13.45 22.5003 13.4735 22.5314 13.4903 22.5662C13.5071 22.601 13.5169 22.6388 13.519 22.6774C13.5213 22.7152 13.5161 22.7531 13.5037 22.789C13.4913 22.8248 13.472 22.8578 13.4468 22.8861C13.4216 22.9145 13.3911 22.9376 13.357 22.9541C13.3228 22.9706 13.2858 22.9802 13.248 22.9823L11.5877 23.084C11.547 23.0874 11.506 23.0815 11.4679 23.0669C11.4298 23.0522 11.3954 23.0291 11.3675 22.9993C11.3376 22.9711 11.3141 22.9369 11.2985 22.8989C11.2829 22.8609 11.2756 22.8201 11.2771 22.779C11.286 22.5299 11.2728 22.2805 11.2376 22.0336C11.1756 22.2964 11.1641 22.5685 11.2037 22.8355C11.2092 22.8784 11.205 22.9221 11.1913 22.9631C11.1776 23.0042 11.1548 23.0416 11.1247 23.0727C11.0955 23.106 11.0587 23.1316 11.0173 23.1473C10.976 23.1631 10.9314 23.1685 10.8875 23.163C10.1229 23.1082 9.35505 23.2061 8.62868 23.451C8.59857 23.466 8.56608 23.4755 8.53268 23.4793Z" fill="#231F20"/>
<path d="M32.724 48.7723C32.6466 48.7694 32.5734 48.7365 32.5197 48.6807C32.466 48.6249 32.436 48.5505 32.436 48.473C32.436 48.377 32.5772 38.4156 31.38 34.09C31.3637 34.0167 31.3762 33.9399 31.4148 33.8754C31.4534 33.811 31.5152 33.7638 31.5875 33.7435C31.6598 33.7233 31.7372 33.7315 31.8036 33.7666C31.8701 33.8016 31.9206 33.8607 31.9447 33.9319C33.1589 38.3422 33.029 48.0495 33.0177 48.4843C33.0177 48.5226 33.0101 48.5605 32.9952 48.5958C32.9804 48.6311 32.9587 48.6631 32.9313 48.69C32.904 48.7168 32.8716 48.7379 32.836 48.752C32.8004 48.7661 32.7623 48.773 32.724 48.7723Z" fill="#231F20"/>
<path d="M28.8678 136.335C28.7926 136.335 28.7202 136.307 28.6645 136.256C28.0264 135.613 24.2937 133.749 22.9045 133.088C22.8381 133.054 22.7874 132.996 22.7632 132.925C22.7389 132.855 22.743 132.778 22.7746 132.71C22.8075 132.644 22.8649 132.593 22.9345 132.569C23.0042 132.545 23.0805 132.549 23.1473 132.58C23.3563 132.682 28.2297 135.02 29.0654 135.855C29.1175 135.909 29.1467 135.981 29.1467 136.056C29.1467 136.131 29.1175 136.203 29.0654 136.256C29.0112 136.306 28.941 136.334 28.8678 136.335Z" fill="white"/>
<path d="M5.91869 71.7615C5.88161 71.7685 5.8435 71.7682 5.80655 71.7605C5.7696 71.7528 5.73452 71.738 5.70332 71.7167C5.67212 71.6955 5.64541 71.6683 5.62471 71.6368C5.60401 71.6052 5.58973 71.5699 5.58269 71.5328C5.57564 71.4957 5.57597 71.4576 5.58365 71.4206C5.59133 71.3837 5.60622 71.3486 5.62745 71.3174C5.64869 71.2862 5.67586 71.2595 5.70742 71.2388C5.73898 71.2181 5.77431 71.2038 5.81139 71.1968C9.29562 69.7399 10.5097 65.3352 10.521 65.29C10.5307 65.2529 10.5475 65.2181 10.5706 65.1875C10.5937 65.157 10.6226 65.1312 10.6556 65.1118C10.6887 65.0924 10.7252 65.0797 10.7631 65.0744C10.8011 65.0692 10.8397 65.0714 10.8768 65.081C10.9139 65.0907 10.9487 65.1075 10.9792 65.1306C11.0098 65.1537 11.0355 65.1826 11.0549 65.2157C11.0743 65.2487 11.087 65.2852 11.0923 65.3232C11.0976 65.3611 11.0954 65.3997 11.0857 65.4368C11.0349 65.6288 9.79256 70.1577 6.04857 71.7163C6.00851 71.7394 5.96444 71.7547 5.91869 71.7615Z" fill="white"/>
</svg>
