<svg width="83" height="80" viewBox="0 0 83 80" fill="none" xmlns="http://www.w3.org/2000/svg">
<ellipse cx="41.5" cy="40" rx="41.5" ry="40" fill="#D9D9D9"/>
<path d="M30.6666 52.7502C29.8874 52.7502 29.2202 52.4725 28.6648 51.9172C28.1095 51.3618 27.8323 50.6951 27.8333 49.9168V34.3335C27.8333 33.5543 28.1109 32.8871 28.6663 32.3317C29.2216 31.7764 29.8884 31.4992 30.6666 31.5002H36.3333V28.6668C36.3333 27.8877 36.6109 27.2204 37.1663 26.6651C37.7216 26.1097 38.3884 25.8326 39.1666 25.8335H44.8333C45.6124 25.8335 46.2797 26.1112 46.835 26.6665C47.3903 27.2218 47.6675 27.8886 47.6666 28.6668V31.5002H53.3333C54.1124 31.5002 54.7797 31.7778 55.335 32.3332C55.8903 32.8885 56.1675 33.5553 56.1666 34.3335V49.9168C56.1666 50.696 55.8889 51.3632 55.3336 51.9186C54.7783 52.4739 54.1115 52.7511 53.3333 52.7502H30.6666ZM39.1666 31.5002H44.8333V28.6668H39.1666V31.5002Z" fill="#20AC69"/>
</svg>
