<svg width="33" height="33" viewBox="0 0 33 33" fill="none" xmlns="http://www.w3.org/2000/svg">
<path d="M26.125 4.125C26.8543 4.125 27.5538 4.41473 28.0695 4.93046C28.5853 5.44618 28.875 6.14565 28.875 6.875V26.125C28.875 26.8543 28.5853 27.5538 28.0695 28.0695C27.5538 28.5853 26.8543 28.875 26.125 28.875H6.875C6.14565 28.875 5.44618 28.5853 4.93046 28.0695C4.41473 27.5538 4.125 26.8543 4.125 26.125V6.875C4.125 6.14565 4.41473 5.44618 4.93046 4.93046C5.44618 4.41473 6.14565 4.125 6.875 4.125H26.125ZM25.4375 25.4375V18.15C25.4375 16.9612 24.9652 15.821 24.1246 14.9804C23.284 14.1398 22.1438 13.6675 20.955 13.6675C19.7863 13.6675 18.425 14.3825 17.765 15.455V13.9288H13.9288V25.4375H17.765V18.6587C17.765 17.6 18.6175 16.7338 19.6763 16.7338C20.1868 16.7338 20.6764 16.9366 21.0374 17.2976C21.3984 17.6586 21.6012 18.1482 21.6012 18.6587V25.4375H25.4375ZM9.46 11.77C10.0727 11.77 10.6602 11.5266 11.0934 11.0934C11.5266 10.6602 11.77 10.0727 11.77 9.46C11.77 8.18125 10.7387 7.13625 9.46 7.13625C8.8437 7.13625 8.25265 7.38107 7.81686 7.81686C7.38107 8.25265 7.13625 8.8437 7.13625 9.46C7.13625 10.7387 8.18125 11.77 9.46 11.77ZM11.3713 25.4375V13.9288H7.5625V25.4375H11.3713Z" fill="#20AC69"/>
</svg>
