<svg width="33" height="6" viewBox="0 0 33 6" fill="none" xmlns="http://www.w3.org/2000/svg">
<path d="M6.6 3C6.6 1.34315 5.12254 0 3.3 0C1.47746 0 0 1.34315 0 3C0 4.65685 1.47746 6 3.3 6C5.12254 6 6.6 4.65685 6.6 3Z" fill="#161616" fill-opacity="0.6"/>
<path d="M19.8002 3C19.8002 1.34315 18.3227 0 16.5002 0C14.6777 0 13.2002 1.34315 13.2002 3C13.2002 4.65685 14.6777 6 16.5002 6C18.3227 6 19.8002 4.65685 19.8002 3Z" fill="#161616" fill-opacity="0.6"/>
<path d="M32.9999 3C32.9999 1.34315 31.5224 0 29.6999 0C27.8774 0 26.3999 1.34315 26.3999 3C26.3999 4.65685 27.8774 6 29.6999 6C31.5224 6 32.9999 4.65685 32.9999 3Z" fill="#161616" fill-opacity="0.6"/>
</svg>
