<svg width="83" height="80" viewBox="0 0 83 80" fill="none" xmlns="http://www.w3.org/2000/svg">
<ellipse cx="41.5" cy="40" rx="41.5" ry="40" fill="#D9D9D9"/>
<path d="M49.375 40.2188C49.375 41.6712 48.9443 43.091 48.1374 44.2987C47.3304 45.5064 46.1835 46.4477 44.8416 47.0035C43.4997 47.5593 42.0231 47.7048 40.5986 47.4214C39.174 47.138 37.8655 46.4386 36.8384 45.4116C35.8114 44.3845 35.112 43.076 34.8286 41.6514C34.5452 40.2269 34.6907 38.7503 35.2465 37.4084C35.8023 36.0665 36.7436 34.9196 37.9513 34.1126C39.159 33.3057 40.5788 32.875 42.0312 32.875C43.9789 32.875 45.8468 33.6487 47.2241 35.0259C48.6013 36.4032 49.375 38.2711 49.375 40.2188ZM64.0625 28.4688V51.9688C64.0625 52.3583 63.9078 52.7319 63.6323 53.0073C63.3569 53.2828 62.9833 53.4375 62.5938 53.4375H21.4688C21.0792 53.4375 20.7056 53.2828 20.4302 53.0073C20.1547 52.7319 20 52.3583 20 51.9688V28.4688C20 28.0792 20.1547 27.7056 20.4302 27.4302C20.7056 27.1547 21.0792 27 21.4688 27H62.5938C62.9833 27 63.3569 27.1547 63.6323 27.4302C63.9078 27.7056 64.0625 28.0792 64.0625 28.4688ZM61.125 36.9783C59.4572 36.4852 57.9394 35.5827 56.7096 34.3529C55.4798 33.1231 54.5773 31.6053 54.0842 29.9375H29.9783C29.4852 31.6053 28.5827 33.1231 27.3529 34.3529C26.1231 35.5827 24.6053 36.4852 22.9375 36.9783V43.4592C24.6053 43.9523 26.1231 44.8548 27.3529 46.0846C28.5827 47.3144 29.4852 48.8322 29.9783 50.5H54.0842C54.5773 48.8322 55.4798 47.3144 56.7096 46.0846C57.9394 44.8548 59.4572 43.9523 61.125 43.4592V36.9783Z" fill="#20AC69"/>
</svg>
