<svg width="654" height="291" viewBox="0 0 654 291" fill="none" xmlns="http://www.w3.org/2000/svg">
<path d="M65.0029 271.846H608.579" stroke="#CCCCCC" stroke-dasharray="4 2"/>
<path d="M65.0029 181.721H608.579" stroke="#CCCCCC" stroke-dasharray="4 2"/>
<path d="M65.0029 91.5962H608.579" stroke="#CCCCCC" stroke-dasharray="4 2"/>
<path d="M65.0029 1.47119H608.579" stroke="#CCCCCC" stroke-dasharray="4 2"/>
<path d="M65.4741 1V272.317" stroke="#CCCCCC" stroke-dasharray="4 2"/>
<path d="M201.133 1V272.317" stroke="#CCCCCC" stroke-dasharray="4 2"/>
<path d="M336.791 1V272.317" stroke="#CCCCCC" stroke-dasharray="4 2"/>
<path d="M472.45 1V272.317" stroke="#CCCCCC" stroke-dasharray="4 2"/>
<path d="M608.108 1V272.317" stroke="#CCCCCC" stroke-dasharray="4 2"/>
<path d="M31.1683 50.2258C31.0163 50.2338 30.9003 50.1938 30.8203 50.1058C30.7323 50.0178 30.6883 49.9098 30.6883 49.7818C30.6883 49.6858 30.7203 49.5978 30.7843 49.5178C30.8403 49.4378 30.9323 49.3938 31.0603 49.3858L31.4323 49.3618C31.8403 49.3298 32.1523 49.1898 32.3683 48.9418C32.5843 48.6858 32.6923 48.3378 32.6923 47.8978V42.1138C32.6923 41.9458 32.7323 41.8218 32.8123 41.7418C32.9003 41.6538 33.0243 41.6098 33.1843 41.6098C33.3443 41.6098 33.4643 41.6538 33.5443 41.7418C33.6323 41.8218 33.6763 41.9458 33.6763 42.1138V47.9098C33.6763 48.3658 33.5963 48.7618 33.4363 49.0978C33.2763 49.4258 33.0363 49.6818 32.7163 49.8658C32.4043 50.0498 32.0203 50.1578 31.5643 50.1898L31.1683 50.2258ZM38.0589 50.2618C37.4909 50.2618 36.9989 50.1378 36.5829 49.8898C36.1669 49.6418 35.8429 49.2938 35.6109 48.8458C35.3869 48.3898 35.2749 47.8538 35.2749 47.2378C35.2749 46.7738 35.3389 46.3578 35.4669 45.9898C35.5949 45.6138 35.7829 45.2938 36.0309 45.0298C36.2789 44.7658 36.5709 44.5658 36.9069 44.4298C37.2509 44.2858 37.6349 44.2138 38.0589 44.2138C38.6269 44.2138 39.1189 44.3378 39.5349 44.5858C39.9509 44.8338 40.2709 45.1858 40.4949 45.6418C40.7269 46.0898 40.8429 46.6218 40.8429 47.2378C40.8429 47.7018 40.7789 48.1178 40.6509 48.4858C40.5229 48.8538 40.3349 49.1738 40.0869 49.4458C39.8389 49.7098 39.5429 49.9138 39.1989 50.0578C38.8629 50.1938 38.4829 50.2618 38.0589 50.2618ZM38.0589 49.4818C38.4189 49.4818 38.7349 49.3938 39.0069 49.2178C39.2789 49.0418 39.4869 48.7858 39.6309 48.4498C39.7829 48.1138 39.8589 47.7098 39.8589 47.2378C39.8589 46.5098 39.6949 45.9538 39.3669 45.5698C39.0469 45.1858 38.6109 44.9938 38.0589 44.9938C37.6909 44.9938 37.3709 45.0818 37.0989 45.2578C36.8349 45.4258 36.6269 45.6778 36.4749 46.0138C36.3309 46.3418 36.2589 46.7498 36.2589 47.2378C36.2589 47.9578 36.4229 48.5138 36.7509 48.9058C37.0789 49.2898 37.5149 49.4818 38.0589 49.4818ZM45.2549 50.2618C44.7269 50.2618 44.2709 50.1258 43.8869 49.8538C43.5109 49.5818 43.2589 49.2178 43.1309 48.7618L43.2629 48.6298V49.7338C43.2629 49.8938 43.2189 50.0178 43.1309 50.1058C43.0509 50.1938 42.9349 50.2378 42.7829 50.2378C42.6229 50.2378 42.5029 50.1938 42.4229 50.1058C42.3429 50.0178 42.3029 49.8938 42.3029 49.7338V42.1018C42.3029 41.9418 42.3429 41.8218 42.4229 41.7418C42.5029 41.6538 42.6229 41.6098 42.7829 41.6098C42.9349 41.6098 43.0549 41.6538 43.1429 41.7418C43.2309 41.8218 43.2749 41.9418 43.2749 42.1018V45.6778H43.1309C43.2669 45.2298 43.5229 44.8738 43.8989 44.6098C44.2749 44.3458 44.7269 44.2138 45.2549 44.2138C45.7829 44.2138 46.2389 44.3378 46.6229 44.5858C47.0069 44.8258 47.3029 45.1738 47.5109 45.6298C47.7269 46.0778 47.8349 46.6138 47.8349 47.2378C47.8349 47.8538 47.7269 48.3898 47.5109 48.8458C47.3029 49.2938 47.0029 49.6418 46.6109 49.8898C46.2269 50.1378 45.7749 50.2618 45.2549 50.2618ZM45.0509 49.4818C45.4189 49.4818 45.7349 49.3938 45.9989 49.2178C46.2709 49.0418 46.4789 48.7858 46.6229 48.4498C46.7749 48.1138 46.8509 47.7098 46.8509 47.2378C46.8509 46.5098 46.6869 45.9538 46.3589 45.5698C46.0389 45.1858 45.6029 44.9938 45.0509 44.9938C44.6909 44.9938 44.3749 45.0818 44.1029 45.2578C43.8309 45.4258 43.6189 45.6778 43.4669 46.0138C43.3229 46.3418 43.2509 46.7498 43.2509 47.2378C43.2509 47.9578 43.4149 48.5138 43.7429 48.9058C44.0709 49.2898 44.5069 49.4818 45.0509 49.4818ZM50.247 50.1538C50.103 50.1538 49.991 50.1178 49.911 50.0458C49.831 49.9658 49.791 49.8578 49.791 49.7218C49.791 49.5858 49.831 49.4858 49.911 49.4218C49.991 49.3498 50.103 49.3138 50.247 49.3138H51.807V42.5098H52.323L50.583 43.6618C50.479 43.7178 50.379 43.7418 50.283 43.7338C50.195 43.7258 50.119 43.6938 50.055 43.6378C49.999 43.5738 49.959 43.5018 49.935 43.4218C49.911 43.3338 49.915 43.2458 49.947 43.1578C49.979 43.0618 50.047 42.9818 50.151 42.9178L51.807 41.8258C51.911 41.7618 52.011 41.7098 52.107 41.6698C52.203 41.6298 52.299 41.6098 52.395 41.6098C52.507 41.6098 52.599 41.6458 52.671 41.7178C52.751 41.7818 52.791 41.8858 52.791 42.0298V49.3138H54.231C54.375 49.3138 54.487 49.3498 54.567 49.4218C54.647 49.4858 54.687 49.5858 54.687 49.7218C54.687 49.8658 54.647 49.9738 54.567 50.0458C54.487 50.1178 54.375 50.1538 54.231 50.1538H50.247Z" fill="#333333"/>
<path d="M31.1684 140.665C31.0164 140.673 30.9004 140.633 30.8204 140.545C30.7324 140.457 30.6884 140.349 30.6884 140.221C30.6884 140.125 30.7204 140.037 30.7844 139.957C30.8404 139.877 30.9324 139.833 31.0604 139.825L31.4324 139.801C31.8404 139.769 32.1524 139.629 32.3684 139.381C32.5844 139.125 32.6924 138.777 32.6924 138.337V132.553C32.6924 132.385 32.7324 132.261 32.8124 132.181C32.9004 132.093 33.0244 132.049 33.1844 132.049C33.3444 132.049 33.4644 132.093 33.5444 132.181C33.6324 132.261 33.6764 132.385 33.6764 132.553V138.349C33.6764 138.805 33.5964 139.201 33.4364 139.537C33.2764 139.865 33.0364 140.121 32.7164 140.305C32.4044 140.489 32.0204 140.597 31.5644 140.629L31.1684 140.665ZM38.059 140.701C37.491 140.701 36.999 140.577 36.583 140.329C36.167 140.081 35.843 139.733 35.611 139.285C35.387 138.829 35.275 138.293 35.275 137.677C35.275 137.213 35.339 136.797 35.467 136.429C35.595 136.053 35.783 135.733 36.031 135.469C36.279 135.205 36.571 135.005 36.907 134.869C37.251 134.725 37.635 134.653 38.059 134.653C38.627 134.653 39.119 134.777 39.535 135.025C39.951 135.273 40.271 135.625 40.495 136.081C40.727 136.529 40.843 137.061 40.843 137.677C40.843 138.141 40.779 138.557 40.651 138.925C40.523 139.293 40.335 139.613 40.087 139.885C39.839 140.149 39.543 140.353 39.199 140.497C38.863 140.633 38.483 140.701 38.059 140.701ZM38.059 139.921C38.419 139.921 38.735 139.833 39.007 139.657C39.279 139.481 39.487 139.225 39.631 138.889C39.783 138.553 39.859 138.149 39.859 137.677C39.859 136.949 39.695 136.393 39.367 136.009C39.047 135.625 38.611 135.433 38.059 135.433C37.691 135.433 37.371 135.521 37.099 135.697C36.835 135.865 36.627 136.117 36.475 136.453C36.331 136.781 36.259 137.189 36.259 137.677C36.259 138.397 36.423 138.953 36.751 139.345C37.079 139.729 37.515 139.921 38.059 139.921ZM45.2549 140.701C44.7269 140.701 44.2709 140.565 43.8869 140.293C43.5109 140.021 43.2589 139.657 43.1309 139.201L43.2629 139.069V140.173C43.2629 140.333 43.2189 140.457 43.1309 140.545C43.0509 140.633 42.9349 140.677 42.7829 140.677C42.6229 140.677 42.5029 140.633 42.4229 140.545C42.3429 140.457 42.3029 140.333 42.3029 140.173V132.541C42.3029 132.381 42.3429 132.261 42.4229 132.181C42.5029 132.093 42.6229 132.049 42.7829 132.049C42.9349 132.049 43.0549 132.093 43.1429 132.181C43.2309 132.261 43.2749 132.381 43.2749 132.541V136.117H43.1309C43.2669 135.669 43.5229 135.313 43.8989 135.049C44.2749 134.785 44.7269 134.653 45.2549 134.653C45.7829 134.653 46.2389 134.777 46.6229 135.025C47.0069 135.265 47.3029 135.613 47.5109 136.069C47.7269 136.517 47.8349 137.053 47.8349 137.677C47.8349 138.293 47.7269 138.829 47.5109 139.285C47.3029 139.733 47.0029 140.081 46.6109 140.329C46.2269 140.577 45.7749 140.701 45.2549 140.701ZM45.0509 139.921C45.4189 139.921 45.7349 139.833 45.9989 139.657C46.2709 139.481 46.4789 139.225 46.6229 138.889C46.7749 138.553 46.8509 138.149 46.8509 137.677C46.8509 136.949 46.6869 136.393 46.3589 136.009C46.0389 135.625 45.6029 135.433 45.0509 135.433C44.6909 135.433 44.3749 135.521 44.1029 135.697C43.8309 135.865 43.6189 136.117 43.4669 136.453C43.3229 136.781 43.2509 137.189 43.2509 137.677C43.2509 138.397 43.4149 138.953 43.7429 139.345C44.0709 139.729 44.5069 139.921 45.0509 139.921ZM49.935 140.593C49.759 140.593 49.627 140.553 49.539 140.473C49.459 140.385 49.419 140.269 49.419 140.125C49.419 140.037 49.439 139.953 49.479 139.873C49.527 139.785 49.591 139.697 49.671 139.609L52.359 136.729C52.767 136.289 53.059 135.885 53.235 135.517C53.419 135.141 53.511 134.761 53.511 134.377C53.511 133.897 53.363 133.533 53.067 133.285C52.779 133.029 52.355 132.901 51.795 132.901C51.435 132.901 51.095 132.957 50.775 133.069C50.455 133.181 50.147 133.353 49.851 133.585C49.747 133.665 49.651 133.701 49.563 133.693C49.483 133.685 49.411 133.653 49.347 133.597C49.283 133.541 49.239 133.469 49.215 133.381C49.191 133.293 49.191 133.205 49.215 133.117C49.247 133.029 49.311 132.949 49.407 132.877C49.719 132.621 50.095 132.417 50.535 132.265C50.975 132.105 51.423 132.025 51.879 132.025C52.447 132.025 52.927 132.113 53.319 132.289C53.711 132.465 54.007 132.725 54.207 133.069C54.407 133.405 54.507 133.817 54.507 134.305C54.507 134.641 54.451 134.973 54.339 135.301C54.235 135.621 54.071 135.949 53.847 136.285C53.631 136.621 53.347 136.969 52.995 137.329L50.439 140.029V139.753H54.483C54.635 139.753 54.747 139.789 54.819 139.861C54.899 139.925 54.939 140.025 54.939 140.161C54.939 140.305 54.899 140.413 54.819 140.485C54.747 140.557 54.635 140.593 54.483 140.593H49.935Z" fill="#333333"/>
<path d="M31.586 230.072C31.434 230.08 31.318 230.04 31.238 229.952C31.15 229.864 31.106 229.756 31.106 229.628C31.106 229.532 31.138 229.444 31.202 229.364C31.258 229.284 31.35 229.24 31.478 229.232L31.85 229.208C32.258 229.176 32.57 229.036 32.786 228.788C33.002 228.532 33.11 228.184 33.11 227.744V221.96C33.11 221.792 33.15 221.668 33.23 221.588C33.318 221.5 33.442 221.456 33.602 221.456C33.762 221.456 33.882 221.5 33.962 221.588C34.05 221.668 34.094 221.792 34.094 221.96V227.756C34.094 228.212 34.014 228.608 33.854 228.944C33.694 229.272 33.454 229.528 33.134 229.712C32.822 229.896 32.438 230.004 31.982 230.036L31.586 230.072ZM38.4766 230.108C37.9086 230.108 37.4166 229.984 37.0006 229.736C36.5846 229.488 36.2606 229.14 36.0286 228.692C35.8046 228.236 35.6926 227.7 35.6926 227.084C35.6926 226.62 35.7566 226.204 35.8846 225.836C36.0126 225.46 36.2006 225.14 36.4486 224.876C36.6966 224.612 36.9886 224.412 37.3246 224.276C37.6686 224.132 38.0526 224.06 38.4766 224.06C39.0446 224.06 39.5366 224.184 39.9526 224.432C40.3686 224.68 40.6886 225.032 40.9126 225.488C41.1446 225.936 41.2606 226.468 41.2606 227.084C41.2606 227.548 41.1966 227.964 41.0686 228.332C40.9406 228.7 40.7526 229.02 40.5046 229.292C40.2566 229.556 39.9606 229.76 39.6166 229.904C39.2806 230.04 38.9006 230.108 38.4766 230.108ZM38.4766 229.328C38.8366 229.328 39.1526 229.24 39.4246 229.064C39.6966 228.888 39.9046 228.632 40.0486 228.296C40.2006 227.96 40.2766 227.556 40.2766 227.084C40.2766 226.356 40.1126 225.8 39.7846 225.416C39.4646 225.032 39.0286 224.84 38.4766 224.84C38.1086 224.84 37.7886 224.928 37.5166 225.104C37.2526 225.272 37.0446 225.524 36.8926 225.86C36.7486 226.188 36.6766 226.596 36.6766 227.084C36.6766 227.804 36.8406 228.36 37.1686 228.752C37.4966 229.136 37.9326 229.328 38.4766 229.328ZM45.6726 230.108C45.1446 230.108 44.6886 229.972 44.3046 229.7C43.9286 229.428 43.6766 229.064 43.5486 228.608L43.6806 228.476V229.58C43.6806 229.74 43.6366 229.864 43.5486 229.952C43.4686 230.04 43.3526 230.084 43.2006 230.084C43.0406 230.084 42.9206 230.04 42.8406 229.952C42.7606 229.864 42.7206 229.74 42.7206 229.58V221.948C42.7206 221.788 42.7606 221.668 42.8406 221.588C42.9206 221.5 43.0406 221.456 43.2006 221.456C43.3526 221.456 43.4726 221.5 43.5606 221.588C43.6486 221.668 43.6926 221.788 43.6926 221.948V225.524H43.5486C43.6846 225.076 43.9406 224.72 44.3166 224.456C44.6926 224.192 45.1446 224.06 45.6726 224.06C46.2006 224.06 46.6566 224.184 47.0406 224.432C47.4246 224.672 47.7206 225.02 47.9286 225.476C48.1446 225.924 48.2526 226.46 48.2526 227.084C48.2526 227.7 48.1446 228.236 47.9286 228.692C47.7206 229.14 47.4206 229.488 47.0286 229.736C46.6446 229.984 46.1926 230.108 45.6726 230.108ZM45.4686 229.328C45.8366 229.328 46.1526 229.24 46.4166 229.064C46.6886 228.888 46.8966 228.632 47.0406 228.296C47.1926 227.96 47.2686 227.556 47.2686 227.084C47.2686 226.356 47.1046 225.8 46.7766 225.416C46.4566 225.032 46.0206 224.84 45.4686 224.84C45.1086 224.84 44.7926 224.928 44.5206 225.104C44.2486 225.272 44.0366 225.524 43.8846 225.86C43.7406 226.188 43.6686 226.596 43.6686 227.084C43.6686 227.804 43.8326 228.36 44.1606 228.752C44.4886 229.136 44.9246 229.328 45.4686 229.328ZM52.3087 230.108C51.8447 230.108 51.3767 230.04 50.9047 229.904C50.4407 229.768 50.0367 229.568 49.6927 229.304C49.5887 229.232 49.5207 229.152 49.4887 229.064C49.4567 228.968 49.4487 228.88 49.4647 228.8C49.4887 228.712 49.5327 228.64 49.5967 228.584C49.6607 228.52 49.7367 228.484 49.8247 228.476C49.9207 228.468 50.0247 228.5 50.1367 228.572C50.4887 228.804 50.8407 228.972 51.1927 229.076C51.5447 229.18 51.9087 229.232 52.2847 229.232C52.6927 229.232 53.0367 229.172 53.3167 229.052C53.5967 228.932 53.8087 228.756 53.9527 228.524C54.0967 228.284 54.1687 227.992 54.1687 227.648C54.1687 227.152 54.0047 226.776 53.6767 226.52C53.3487 226.264 52.8727 226.136 52.2487 226.136H51.3967C51.2447 226.136 51.1287 226.1 51.0487 226.028C50.9687 225.948 50.9287 225.84 50.9287 225.704C50.9287 225.576 50.9687 225.476 51.0487 225.404C51.1287 225.324 51.2447 225.284 51.3967 225.284H52.1647C52.5327 225.284 52.8447 225.22 53.1007 225.092C53.3647 224.964 53.5687 224.784 53.7127 224.552C53.8567 224.312 53.9287 224.024 53.9287 223.688C53.9287 223.24 53.7847 222.9 53.4967 222.668C53.2087 222.428 52.7927 222.308 52.2487 222.308C51.8887 222.308 51.5487 222.36 51.2287 222.464C50.9087 222.568 50.5927 222.744 50.2807 222.992C50.1847 223.064 50.0887 223.1 49.9927 223.1C49.9047 223.092 49.8287 223.064 49.7647 223.016C49.7087 222.96 49.6647 222.888 49.6327 222.8C49.6087 222.712 49.6127 222.624 49.6447 222.536C49.6767 222.44 49.7447 222.352 49.8487 222.272C50.1687 222 50.5447 221.792 50.9767 221.648C51.4087 221.504 51.8527 221.432 52.3087 221.432C52.8527 221.432 53.3167 221.52 53.7007 221.696C54.0927 221.864 54.3927 222.112 54.6007 222.44C54.8087 222.76 54.9127 223.148 54.9127 223.604C54.9127 223.948 54.8447 224.264 54.7087 224.552C54.5807 224.832 54.3967 225.072 54.1567 225.272C53.9247 225.472 53.6407 225.616 53.3047 225.704V225.572C53.8887 225.668 54.3407 225.908 54.6607 226.292C54.9887 226.668 55.1527 227.144 55.1527 227.72C55.1527 228.208 55.0367 228.632 54.8047 228.992C54.5807 229.344 54.2567 229.62 53.8327 229.82C53.4087 230.012 52.9007 230.108 52.3087 230.108Z" fill="#333333"/>
<path d="M73.043 279.469H75.8672C76.5078 279.469 77.0488 279.566 77.4902 279.762C77.9355 279.957 78.2734 280.246 78.5039 280.629C78.7383 281.008 78.8555 281.475 78.8555 282.029C78.8555 282.42 78.7754 282.777 78.6152 283.102C78.459 283.422 78.2324 283.695 77.9355 283.922C77.6426 284.145 77.291 284.311 76.8809 284.42L76.5645 284.543H73.9102L73.8984 283.623H75.9023C76.3086 283.623 76.6465 283.553 76.916 283.412C77.1855 283.268 77.3887 283.074 77.5254 282.832C77.6621 282.59 77.7305 282.322 77.7305 282.029C77.7305 281.701 77.666 281.414 77.5371 281.168C77.4082 280.922 77.2051 280.732 76.9277 280.6C76.6543 280.463 76.3008 280.395 75.8672 280.395H74.1738V288H73.043V279.469ZM78.0293 288L75.9551 284.133L77.1328 284.127L79.2363 287.93V288H78.0293ZM83.3965 278.086V279.873H82.5176V278.086H83.3965ZM83.291 287.654V289.219H82.418V287.654H83.291ZM84.4629 285.803C84.4629 285.568 84.4102 285.357 84.3047 285.17C84.1992 284.982 84.0254 284.811 83.7832 284.654C83.541 284.498 83.2168 284.354 82.8105 284.221C82.3184 284.068 81.8926 283.883 81.5332 283.664C81.1777 283.445 80.9023 283.174 80.707 282.85C80.5156 282.525 80.4199 282.133 80.4199 281.672C80.4199 281.191 80.5234 280.777 80.7305 280.43C80.9375 280.082 81.2305 279.814 81.6094 279.627C81.9883 279.439 82.4336 279.346 82.9453 279.346C83.3438 279.346 83.6992 279.406 84.0117 279.527C84.3242 279.645 84.5879 279.82 84.8027 280.055C85.0215 280.289 85.1875 280.576 85.3008 280.916C85.418 281.256 85.4766 281.648 85.4766 282.094H84.3984C84.3984 281.832 84.3672 281.592 84.3047 281.373C84.2422 281.154 84.1484 280.965 84.0234 280.805C83.8984 280.641 83.7461 280.516 83.5664 280.43C83.3867 280.34 83.1797 280.295 82.9453 280.295C82.6172 280.295 82.3457 280.352 82.1309 280.465C81.9199 280.578 81.7637 280.738 81.6621 280.945C81.5605 281.148 81.5098 281.385 81.5098 281.654C81.5098 281.904 81.5605 282.123 81.6621 282.311C81.7637 282.498 81.9355 282.668 82.1777 282.82C82.4238 282.969 82.7617 283.115 83.1914 283.26C83.6953 283.42 84.123 283.609 84.4746 283.828C84.8262 284.043 85.0938 284.309 85.2773 284.625C85.4609 284.938 85.5527 285.326 85.5527 285.791C85.5527 286.295 85.4395 286.721 85.2129 287.068C84.9863 287.412 84.668 287.674 84.2578 287.854C83.8477 288.033 83.3672 288.123 82.8164 288.123C82.4844 288.123 82.1562 288.078 81.832 287.988C81.5078 287.898 81.2148 287.752 80.9531 287.549C80.6914 287.342 80.4824 287.07 80.3262 286.734C80.1699 286.395 80.0918 285.979 80.0918 285.486H81.1816C81.1816 285.818 81.2285 286.094 81.3223 286.312C81.4199 286.527 81.5488 286.699 81.709 286.828C81.8691 286.953 82.0449 287.043 82.2363 287.098C82.4316 287.148 82.625 287.174 82.8164 287.174C83.168 287.174 83.4648 287.119 83.707 287.01C83.9531 286.896 84.1406 286.736 84.2695 286.529C84.3984 286.322 84.4629 286.08 84.4629 285.803ZM92.2617 283.055V284.355C92.2617 285.055 92.1992 285.645 92.0742 286.125C91.9492 286.605 91.7695 286.992 91.5352 287.285C91.3008 287.578 91.0176 287.791 90.6855 287.924C90.3574 288.053 89.9863 288.117 89.5723 288.117C89.2441 288.117 88.9414 288.076 88.6641 287.994C88.3867 287.912 88.1367 287.781 87.9141 287.602C87.6953 287.418 87.5078 287.18 87.3516 286.887C87.1953 286.594 87.0762 286.238 86.9941 285.82C86.9121 285.402 86.8711 284.914 86.8711 284.355V283.055C86.8711 282.355 86.9336 281.77 87.0586 281.297C87.1875 280.824 87.3691 280.445 87.6035 280.16C87.8379 279.871 88.1191 279.664 88.4473 279.539C88.7793 279.414 89.1504 279.352 89.5605 279.352C89.8926 279.352 90.1973 279.393 90.4746 279.475C90.7559 279.553 91.0059 279.68 91.2246 279.855C91.4434 280.027 91.6289 280.258 91.7812 280.547C91.9375 280.832 92.0566 281.182 92.1387 281.596C92.2207 282.01 92.2617 282.496 92.2617 283.055ZM91.1719 284.531V282.873C91.1719 282.49 91.1484 282.154 91.1016 281.865C91.0586 281.572 90.9941 281.322 90.9082 281.115C90.8223 280.908 90.7129 280.74 90.5801 280.611C90.4512 280.482 90.3008 280.389 90.1289 280.33C89.9609 280.268 89.7715 280.236 89.5605 280.236C89.3027 280.236 89.0742 280.285 88.875 280.383C88.6758 280.477 88.5078 280.627 88.3711 280.834C88.2383 281.041 88.1367 281.312 88.0664 281.648C87.9961 281.984 87.9609 282.393 87.9609 282.873V284.531C87.9609 284.914 87.9824 285.252 88.0254 285.545C88.0723 285.838 88.1406 286.092 88.2305 286.307C88.3203 286.518 88.4297 286.691 88.5586 286.828C88.6875 286.965 88.8359 287.066 89.0039 287.133C89.1758 287.195 89.3652 287.227 89.5723 287.227C89.8379 287.227 90.0703 287.176 90.2695 287.074C90.4688 286.973 90.6348 286.814 90.7676 286.6C90.9043 286.381 91.0059 286.102 91.0723 285.762C91.1387 285.418 91.1719 285.008 91.1719 284.531Z" fill="#333333"/>
<path d="M204.293 279.469H207.117C207.758 279.469 208.299 279.566 208.74 279.762C209.186 279.957 209.523 280.246 209.754 280.629C209.988 281.008 210.105 281.475 210.105 282.029C210.105 282.42 210.025 282.777 209.865 283.102C209.709 283.422 209.482 283.695 209.186 283.922C208.893 284.145 208.541 284.311 208.131 284.42L207.814 284.543H205.16L205.148 283.623H207.152C207.559 283.623 207.896 283.553 208.166 283.412C208.436 283.268 208.639 283.074 208.775 282.832C208.912 282.59 208.98 282.322 208.98 282.029C208.98 281.701 208.916 281.414 208.787 281.168C208.658 280.922 208.455 280.732 208.178 280.6C207.904 280.463 207.551 280.395 207.117 280.395H205.424V288H204.293V279.469ZM209.279 288L207.205 284.133L208.383 284.127L210.486 287.93V288H209.279ZM214.646 278.086V279.873H213.768V278.086H214.646ZM214.541 287.654V289.219H213.668V287.654H214.541ZM215.713 285.803C215.713 285.568 215.66 285.357 215.555 285.17C215.449 284.982 215.275 284.811 215.033 284.654C214.791 284.498 214.467 284.354 214.061 284.221C213.568 284.068 213.143 283.883 212.783 283.664C212.428 283.445 212.152 283.174 211.957 282.85C211.766 282.525 211.67 282.133 211.67 281.672C211.67 281.191 211.773 280.777 211.98 280.43C212.188 280.082 212.48 279.814 212.859 279.627C213.238 279.439 213.684 279.346 214.195 279.346C214.594 279.346 214.949 279.406 215.262 279.527C215.574 279.645 215.838 279.82 216.053 280.055C216.271 280.289 216.438 280.576 216.551 280.916C216.668 281.256 216.727 281.648 216.727 282.094H215.648C215.648 281.832 215.617 281.592 215.555 281.373C215.492 281.154 215.398 280.965 215.273 280.805C215.148 280.641 214.996 280.516 214.816 280.43C214.637 280.34 214.43 280.295 214.195 280.295C213.867 280.295 213.596 280.352 213.381 280.465C213.17 280.578 213.014 280.738 212.912 280.945C212.811 281.148 212.76 281.385 212.76 281.654C212.76 281.904 212.811 282.123 212.912 282.311C213.014 282.498 213.186 282.668 213.428 282.82C213.674 282.969 214.012 283.115 214.441 283.26C214.945 283.42 215.373 283.609 215.725 283.828C216.076 284.043 216.344 284.309 216.527 284.625C216.711 284.938 216.803 285.326 216.803 285.791C216.803 286.295 216.689 286.721 216.463 287.068C216.236 287.412 215.918 287.674 215.508 287.854C215.098 288.033 214.617 288.123 214.066 288.123C213.734 288.123 213.406 288.078 213.082 287.988C212.758 287.898 212.465 287.752 212.203 287.549C211.941 287.342 211.732 287.07 211.576 286.734C211.42 286.395 211.342 285.979 211.342 285.486H212.432C212.432 285.818 212.479 286.094 212.572 286.312C212.67 286.527 212.799 286.699 212.959 286.828C213.119 286.953 213.295 287.043 213.486 287.098C213.682 287.148 213.875 287.174 214.066 287.174C214.418 287.174 214.715 287.119 214.957 287.01C215.203 286.896 215.391 286.736 215.52 286.529C215.648 286.322 215.713 286.08 215.713 285.803ZM219.527 283.939L218.66 283.717L219.088 279.469H223.465V280.471H220.008L219.75 282.791C219.906 282.701 220.104 282.617 220.342 282.539C220.584 282.461 220.861 282.422 221.174 282.422C221.568 282.422 221.922 282.49 222.234 282.627C222.547 282.76 222.812 282.951 223.031 283.201C223.254 283.451 223.424 283.752 223.541 284.104C223.658 284.455 223.717 284.848 223.717 285.281C223.717 285.691 223.66 286.068 223.547 286.412C223.438 286.756 223.271 287.057 223.049 287.314C222.826 287.568 222.545 287.766 222.205 287.906C221.869 288.047 221.473 288.117 221.016 288.117C220.672 288.117 220.346 288.07 220.037 287.977C219.732 287.879 219.459 287.732 219.217 287.537C218.979 287.338 218.783 287.092 218.631 286.799C218.482 286.502 218.389 286.154 218.35 285.756H219.381C219.428 286.076 219.521 286.346 219.662 286.564C219.803 286.783 219.986 286.949 220.213 287.062C220.443 287.172 220.711 287.227 221.016 287.227C221.273 287.227 221.502 287.182 221.701 287.092C221.9 287.002 222.068 286.873 222.205 286.705C222.342 286.537 222.445 286.334 222.516 286.096C222.59 285.857 222.627 285.59 222.627 285.293C222.627 285.023 222.59 284.773 222.516 284.543C222.441 284.312 222.33 284.111 222.182 283.939C222.037 283.768 221.859 283.635 221.648 283.541C221.438 283.443 221.195 283.395 220.922 283.395C220.559 283.395 220.283 283.443 220.096 283.541C219.912 283.639 219.723 283.771 219.527 283.939ZM230.262 283.055V284.355C230.262 285.055 230.199 285.645 230.074 286.125C229.949 286.605 229.77 286.992 229.535 287.285C229.301 287.578 229.018 287.791 228.686 287.924C228.357 288.053 227.986 288.117 227.572 288.117C227.244 288.117 226.941 288.076 226.664 287.994C226.387 287.912 226.137 287.781 225.914 287.602C225.695 287.418 225.508 287.18 225.352 286.887C225.195 286.594 225.076 286.238 224.994 285.82C224.912 285.402 224.871 284.914 224.871 284.355V283.055C224.871 282.355 224.934 281.77 225.059 281.297C225.188 280.824 225.369 280.445 225.604 280.16C225.838 279.871 226.119 279.664 226.447 279.539C226.779 279.414 227.15 279.352 227.561 279.352C227.893 279.352 228.197 279.393 228.475 279.475C228.756 279.553 229.006 279.68 229.225 279.855C229.443 280.027 229.629 280.258 229.781 280.547C229.938 280.832 230.057 281.182 230.139 281.596C230.221 282.01 230.262 282.496 230.262 283.055ZM229.172 284.531V282.873C229.172 282.49 229.148 282.154 229.102 281.865C229.059 281.572 228.994 281.322 228.908 281.115C228.822 280.908 228.713 280.74 228.58 280.611C228.451 280.482 228.301 280.389 228.129 280.33C227.961 280.268 227.771 280.236 227.561 280.236C227.303 280.236 227.074 280.285 226.875 280.383C226.676 280.477 226.508 280.627 226.371 280.834C226.238 281.041 226.137 281.312 226.066 281.648C225.996 281.984 225.961 282.393 225.961 282.873V284.531C225.961 284.914 225.982 285.252 226.025 285.545C226.072 285.838 226.141 286.092 226.23 286.307C226.32 286.518 226.43 286.691 226.559 286.828C226.688 286.965 226.836 287.066 227.004 287.133C227.176 287.195 227.365 287.227 227.572 287.227C227.838 287.227 228.07 287.176 228.27 287.074C228.469 286.973 228.635 286.814 228.768 286.6C228.904 286.381 229.006 286.102 229.072 285.762C229.139 285.418 229.172 285.008 229.172 284.531ZM237.012 283.055V284.355C237.012 285.055 236.949 285.645 236.824 286.125C236.699 286.605 236.52 286.992 236.285 287.285C236.051 287.578 235.768 287.791 235.436 287.924C235.107 288.053 234.736 288.117 234.322 288.117C233.994 288.117 233.691 288.076 233.414 287.994C233.137 287.912 232.887 287.781 232.664 287.602C232.445 287.418 232.258 287.18 232.102 286.887C231.945 286.594 231.826 286.238 231.744 285.82C231.662 285.402 231.621 284.914 231.621 284.355V283.055C231.621 282.355 231.684 281.77 231.809 281.297C231.938 280.824 232.119 280.445 232.354 280.16C232.588 279.871 232.869 279.664 233.197 279.539C233.529 279.414 233.9 279.352 234.311 279.352C234.643 279.352 234.947 279.393 235.225 279.475C235.506 279.553 235.756 279.68 235.975 279.855C236.193 280.027 236.379 280.258 236.531 280.547C236.688 280.832 236.807 281.182 236.889 281.596C236.971 282.01 237.012 282.496 237.012 283.055ZM235.922 284.531V282.873C235.922 282.49 235.898 282.154 235.852 281.865C235.809 281.572 235.744 281.322 235.658 281.115C235.572 280.908 235.463 280.74 235.33 280.611C235.201 280.482 235.051 280.389 234.879 280.33C234.711 280.268 234.521 280.236 234.311 280.236C234.053 280.236 233.824 280.285 233.625 280.383C233.426 280.477 233.258 280.627 233.121 280.834C232.988 281.041 232.887 281.312 232.816 281.648C232.746 281.984 232.711 282.393 232.711 282.873V284.531C232.711 284.914 232.732 285.252 232.775 285.545C232.822 285.838 232.891 286.092 232.98 286.307C233.07 286.518 233.18 286.691 233.309 286.828C233.438 286.965 233.586 287.066 233.754 287.133C233.926 287.195 234.115 287.227 234.322 287.227C234.588 287.227 234.82 287.176 235.02 287.074C235.219 286.973 235.385 286.814 235.518 286.6C235.654 286.381 235.756 286.102 235.822 285.762C235.889 285.418 235.922 285.008 235.922 284.531Z" fill="#333333"/>
<path d="M339.918 279.469H342.742C343.383 279.469 343.924 279.566 344.365 279.762C344.811 279.957 345.148 280.246 345.379 280.629C345.613 281.008 345.73 281.475 345.73 282.029C345.73 282.42 345.65 282.777 345.49 283.102C345.334 283.422 345.107 283.695 344.811 283.922C344.518 284.145 344.166 284.311 343.756 284.42L343.439 284.543H340.785L340.773 283.623H342.777C343.184 283.623 343.521 283.553 343.791 283.412C344.061 283.268 344.264 283.074 344.4 282.832C344.537 282.59 344.605 282.322 344.605 282.029C344.605 281.701 344.541 281.414 344.412 281.168C344.283 280.922 344.08 280.732 343.803 280.6C343.529 280.463 343.176 280.395 342.742 280.395H341.049V288H339.918V279.469ZM344.904 288L342.83 284.133L344.008 284.127L346.111 287.93V288H344.904ZM350.271 278.086V279.873H349.393V278.086H350.271ZM350.166 287.654V289.219H349.293V287.654H350.166ZM351.338 285.803C351.338 285.568 351.285 285.357 351.18 285.17C351.074 284.982 350.9 284.811 350.658 284.654C350.416 284.498 350.092 284.354 349.686 284.221C349.193 284.068 348.768 283.883 348.408 283.664C348.053 283.445 347.777 283.174 347.582 282.85C347.391 282.525 347.295 282.133 347.295 281.672C347.295 281.191 347.398 280.777 347.605 280.43C347.812 280.082 348.105 279.814 348.484 279.627C348.863 279.439 349.309 279.346 349.82 279.346C350.219 279.346 350.574 279.406 350.887 279.527C351.199 279.645 351.463 279.82 351.678 280.055C351.896 280.289 352.062 280.576 352.176 280.916C352.293 281.256 352.352 281.648 352.352 282.094H351.273C351.273 281.832 351.242 281.592 351.18 281.373C351.117 281.154 351.023 280.965 350.898 280.805C350.773 280.641 350.621 280.516 350.441 280.43C350.262 280.34 350.055 280.295 349.82 280.295C349.492 280.295 349.221 280.352 349.006 280.465C348.795 280.578 348.639 280.738 348.537 280.945C348.436 281.148 348.385 281.385 348.385 281.654C348.385 281.904 348.436 282.123 348.537 282.311C348.639 282.498 348.811 282.668 349.053 282.82C349.299 282.969 349.637 283.115 350.066 283.26C350.57 283.42 350.998 283.609 351.35 283.828C351.701 284.043 351.969 284.309 352.152 284.625C352.336 284.938 352.428 285.326 352.428 285.791C352.428 286.295 352.314 286.721 352.088 287.068C351.861 287.412 351.543 287.674 351.133 287.854C350.723 288.033 350.242 288.123 349.691 288.123C349.359 288.123 349.031 288.078 348.707 287.988C348.383 287.898 348.09 287.752 347.828 287.549C347.566 287.342 347.357 287.07 347.201 286.734C347.045 286.395 346.967 285.979 346.967 285.486H348.057C348.057 285.818 348.104 286.094 348.197 286.312C348.295 286.527 348.424 286.699 348.584 286.828C348.744 286.953 348.92 287.043 349.111 287.098C349.307 287.148 349.5 287.174 349.691 287.174C350.043 287.174 350.34 287.119 350.582 287.01C350.828 286.896 351.016 286.736 351.145 286.529C351.273 286.322 351.338 286.08 351.338 285.803ZM357.344 279.422V288H356.26V280.775L354.074 281.572V280.594L357.174 279.422H357.344ZM365.887 283.055V284.355C365.887 285.055 365.824 285.645 365.699 286.125C365.574 286.605 365.395 286.992 365.16 287.285C364.926 287.578 364.643 287.791 364.311 287.924C363.982 288.053 363.611 288.117 363.197 288.117C362.869 288.117 362.566 288.076 362.289 287.994C362.012 287.912 361.762 287.781 361.539 287.602C361.32 287.418 361.133 287.18 360.977 286.887C360.82 286.594 360.701 286.238 360.619 285.82C360.537 285.402 360.496 284.914 360.496 284.355V283.055C360.496 282.355 360.559 281.77 360.684 281.297C360.812 280.824 360.994 280.445 361.229 280.16C361.463 279.871 361.744 279.664 362.072 279.539C362.404 279.414 362.775 279.352 363.186 279.352C363.518 279.352 363.822 279.393 364.1 279.475C364.381 279.553 364.631 279.68 364.85 279.855C365.068 280.027 365.254 280.258 365.406 280.547C365.562 280.832 365.682 281.182 365.764 281.596C365.846 282.01 365.887 282.496 365.887 283.055ZM364.797 284.531V282.873C364.797 282.49 364.773 282.154 364.727 281.865C364.684 281.572 364.619 281.322 364.533 281.115C364.447 280.908 364.338 280.74 364.205 280.611C364.076 280.482 363.926 280.389 363.754 280.33C363.586 280.268 363.396 280.236 363.186 280.236C362.928 280.236 362.699 280.285 362.5 280.383C362.301 280.477 362.133 280.627 361.996 280.834C361.863 281.041 361.762 281.312 361.691 281.648C361.621 281.984 361.586 282.393 361.586 282.873V284.531C361.586 284.914 361.607 285.252 361.65 285.545C361.697 285.838 361.766 286.092 361.855 286.307C361.945 286.518 362.055 286.691 362.184 286.828C362.312 286.965 362.461 287.066 362.629 287.133C362.801 287.195 362.99 287.227 363.197 287.227C363.463 287.227 363.695 287.176 363.895 287.074C364.094 286.973 364.26 286.814 364.393 286.6C364.529 286.381 364.631 286.102 364.697 285.762C364.764 285.418 364.797 285.008 364.797 284.531ZM372.637 283.055V284.355C372.637 285.055 372.574 285.645 372.449 286.125C372.324 286.605 372.145 286.992 371.91 287.285C371.676 287.578 371.393 287.791 371.061 287.924C370.732 288.053 370.361 288.117 369.947 288.117C369.619 288.117 369.316 288.076 369.039 287.994C368.762 287.912 368.512 287.781 368.289 287.602C368.07 287.418 367.883 287.18 367.727 286.887C367.57 286.594 367.451 286.238 367.369 285.82C367.287 285.402 367.246 284.914 367.246 284.355V283.055C367.246 282.355 367.309 281.77 367.434 281.297C367.562 280.824 367.744 280.445 367.979 280.16C368.213 279.871 368.494 279.664 368.822 279.539C369.154 279.414 369.525 279.352 369.936 279.352C370.268 279.352 370.572 279.393 370.85 279.475C371.131 279.553 371.381 279.68 371.6 279.855C371.818 280.027 372.004 280.258 372.156 280.547C372.312 280.832 372.432 281.182 372.514 281.596C372.596 282.01 372.637 282.496 372.637 283.055ZM371.547 284.531V282.873C371.547 282.49 371.523 282.154 371.477 281.865C371.434 281.572 371.369 281.322 371.283 281.115C371.197 280.908 371.088 280.74 370.955 280.611C370.826 280.482 370.676 280.389 370.504 280.33C370.336 280.268 370.146 280.236 369.936 280.236C369.678 280.236 369.449 280.285 369.25 280.383C369.051 280.477 368.883 280.627 368.746 280.834C368.613 281.041 368.512 281.312 368.441 281.648C368.371 281.984 368.336 282.393 368.336 282.873V284.531C368.336 284.914 368.357 285.252 368.4 285.545C368.447 285.838 368.516 286.092 368.605 286.307C368.695 286.518 368.805 286.691 368.934 286.828C369.062 286.965 369.211 287.066 369.379 287.133C369.551 287.195 369.74 287.227 369.947 287.227C370.213 287.227 370.445 287.176 370.645 287.074C370.844 286.973 371.01 286.814 371.143 286.6C371.279 286.381 371.381 286.102 371.447 285.762C371.514 285.418 371.547 285.008 371.547 284.531ZM379.387 283.055V284.355C379.387 285.055 379.324 285.645 379.199 286.125C379.074 286.605 378.895 286.992 378.66 287.285C378.426 287.578 378.143 287.791 377.811 287.924C377.482 288.053 377.111 288.117 376.697 288.117C376.369 288.117 376.066 288.076 375.789 287.994C375.512 287.912 375.262 287.781 375.039 287.602C374.82 287.418 374.633 287.18 374.477 286.887C374.32 286.594 374.201 286.238 374.119 285.82C374.037 285.402 373.996 284.914 373.996 284.355V283.055C373.996 282.355 374.059 281.77 374.184 281.297C374.312 280.824 374.494 280.445 374.729 280.16C374.963 279.871 375.244 279.664 375.572 279.539C375.904 279.414 376.275 279.352 376.686 279.352C377.018 279.352 377.322 279.393 377.6 279.475C377.881 279.553 378.131 279.68 378.35 279.855C378.568 280.027 378.754 280.258 378.906 280.547C379.062 280.832 379.182 281.182 379.264 281.596C379.346 282.01 379.387 282.496 379.387 283.055ZM378.297 284.531V282.873C378.297 282.49 378.273 282.154 378.227 281.865C378.184 281.572 378.119 281.322 378.033 281.115C377.947 280.908 377.838 280.74 377.705 280.611C377.576 280.482 377.426 280.389 377.254 280.33C377.086 280.268 376.896 280.236 376.686 280.236C376.428 280.236 376.199 280.285 376 280.383C375.801 280.477 375.633 280.627 375.496 280.834C375.363 281.041 375.262 281.312 375.191 281.648C375.121 281.984 375.086 282.393 375.086 282.873V284.531C375.086 284.914 375.107 285.252 375.15 285.545C375.197 285.838 375.266 286.092 375.355 286.307C375.445 286.518 375.555 286.691 375.684 286.828C375.812 286.965 375.961 287.066 376.129 287.133C376.301 287.195 376.49 287.227 376.697 287.227C376.963 287.227 377.195 287.176 377.395 287.074C377.594 286.973 377.76 286.814 377.893 286.6C378.029 286.381 378.131 286.102 378.197 285.762C378.264 285.418 378.297 285.008 378.297 284.531Z" fill="#333333"/>
<path d="M415.918 41.4688H418.742C419.383 41.4688 419.924 41.5664 420.365 41.7617C420.811 41.957 421.148 42.2461 421.379 42.6289C421.613 43.0078 421.73 43.4746 421.73 44.0293C421.73 44.4199 421.65 44.7773 421.49 45.1016C421.334 45.4219 421.107 45.6953 420.811 45.9219C420.518 46.1445 420.166 46.3105 419.756 46.4199L419.439 46.543H416.785L416.773 45.623H418.777C419.184 45.623 419.521 45.5527 419.791 45.4121C420.061 45.2676 420.264 45.0742 420.4 44.832C420.537 44.5898 420.605 44.3223 420.605 44.0293C420.605 43.7012 420.541 43.4141 420.412 43.168C420.283 42.9219 420.08 42.7324 419.803 42.5996C419.529 42.4629 419.176 42.3945 418.742 42.3945H417.049V50H415.918V41.4688ZM420.904 50L418.83 46.1328L420.008 46.127L422.111 49.9297V50H420.904ZM426.271 40.0859V41.873H425.393V40.0859H426.271ZM426.166 49.6543V51.2188H425.293V49.6543H426.166ZM427.338 47.8027C427.338 47.5684 427.285 47.3574 427.18 47.1699C427.074 46.9824 426.9 46.8105 426.658 46.6543C426.416 46.498 426.092 46.3535 425.686 46.2207C425.193 46.0684 424.768 45.8828 424.408 45.6641C424.053 45.4453 423.777 45.1738 423.582 44.8496C423.391 44.5254 423.295 44.1328 423.295 43.6719C423.295 43.1914 423.398 42.7773 423.605 42.4297C423.812 42.082 424.105 41.8145 424.484 41.627C424.863 41.4395 425.309 41.3457 425.82 41.3457C426.219 41.3457 426.574 41.4062 426.887 41.5273C427.199 41.6445 427.463 41.8203 427.678 42.0547C427.896 42.2891 428.062 42.5762 428.176 42.916C428.293 43.2559 428.352 43.6484 428.352 44.0938H427.273C427.273 43.832 427.242 43.5918 427.18 43.373C427.117 43.1543 427.023 42.9648 426.898 42.8047C426.773 42.6406 426.621 42.5156 426.441 42.4297C426.262 42.3398 426.055 42.2949 425.82 42.2949C425.492 42.2949 425.221 42.3516 425.006 42.4648C424.795 42.5781 424.639 42.7383 424.537 42.9453C424.436 43.1484 424.385 43.3848 424.385 43.6543C424.385 43.9043 424.436 44.123 424.537 44.3105C424.639 44.498 424.811 44.668 425.053 44.8203C425.299 44.9688 425.637 45.1152 426.066 45.2598C426.57 45.4199 426.998 45.6094 427.35 45.8281C427.701 46.043 427.969 46.3086 428.152 46.625C428.336 46.9375 428.428 47.3262 428.428 47.791C428.428 48.2949 428.314 48.7207 428.088 49.0684C427.861 49.4121 427.543 49.6738 427.133 49.8535C426.723 50.0332 426.242 50.123 425.691 50.123C425.359 50.123 425.031 50.0781 424.707 49.9883C424.383 49.8984 424.09 49.752 423.828 49.5488C423.566 49.3418 423.357 49.0703 423.201 48.7344C423.045 48.3945 422.967 47.9785 422.967 47.4863H424.057C424.057 47.8184 424.104 48.0938 424.197 48.3125C424.295 48.5273 424.424 48.6992 424.584 48.8281C424.744 48.9531 424.92 49.043 425.111 49.0977C425.307 49.1484 425.5 49.1738 425.691 49.1738C426.043 49.1738 426.34 49.1191 426.582 49.0098C426.828 48.8965 427.016 48.7363 427.145 48.5293C427.273 48.3223 427.338 48.0801 427.338 47.8027ZM433.344 41.4219V50H432.26V42.7754L430.074 43.5723V42.5938L433.174 41.4219H433.344ZM437.902 45.9395L437.035 45.7168L437.463 41.4688H441.84V42.4707H438.383L438.125 44.791C438.281 44.7012 438.479 44.6172 438.717 44.5391C438.959 44.4609 439.236 44.4219 439.549 44.4219C439.943 44.4219 440.297 44.4902 440.609 44.627C440.922 44.7598 441.188 44.9512 441.406 45.2012C441.629 45.4512 441.799 45.752 441.916 46.1035C442.033 46.4551 442.092 46.8477 442.092 47.2812C442.092 47.6914 442.035 48.0684 441.922 48.4121C441.812 48.7559 441.646 49.0566 441.424 49.3145C441.201 49.5684 440.92 49.7656 440.58 49.9062C440.244 50.0469 439.848 50.1172 439.391 50.1172C439.047 50.1172 438.721 50.0703 438.412 49.9766C438.107 49.8789 437.834 49.7324 437.592 49.5371C437.354 49.3379 437.158 49.0918 437.006 48.7988C436.857 48.502 436.764 48.1543 436.725 47.7559H437.756C437.803 48.0762 437.896 48.3457 438.037 48.5645C438.178 48.7832 438.361 48.9492 438.588 49.0625C438.818 49.1719 439.086 49.2266 439.391 49.2266C439.648 49.2266 439.877 49.1816 440.076 49.0918C440.275 49.002 440.443 48.873 440.58 48.7051C440.717 48.5371 440.82 48.334 440.891 48.0957C440.965 47.8574 441.002 47.5898 441.002 47.293C441.002 47.0234 440.965 46.7734 440.891 46.543C440.816 46.3125 440.705 46.1113 440.557 45.9395C440.412 45.7676 440.234 45.6348 440.023 45.541C439.812 45.4434 439.57 45.3945 439.297 45.3945C438.934 45.3945 438.658 45.4434 438.471 45.541C438.287 45.6387 438.098 45.7715 437.902 45.9395ZM448.637 45.0547V46.3555C448.637 47.0547 448.574 47.6445 448.449 48.125C448.324 48.6055 448.145 48.9922 447.91 49.2852C447.676 49.5781 447.393 49.791 447.061 49.9238C446.732 50.0527 446.361 50.1172 445.947 50.1172C445.619 50.1172 445.316 50.0762 445.039 49.9941C444.762 49.9121 444.512 49.7812 444.289 49.6016C444.07 49.418 443.883 49.1797 443.727 48.8867C443.57 48.5938 443.451 48.2383 443.369 47.8203C443.287 47.4023 443.246 46.9141 443.246 46.3555V45.0547C443.246 44.3555 443.309 43.7695 443.434 43.2969C443.562 42.8242 443.744 42.4453 443.979 42.1602C444.213 41.8711 444.494 41.6641 444.822 41.5391C445.154 41.4141 445.525 41.3516 445.936 41.3516C446.268 41.3516 446.572 41.3926 446.85 41.4746C447.131 41.5527 447.381 41.6797 447.6 41.8555C447.818 42.0273 448.004 42.2578 448.156 42.5469C448.312 42.832 448.432 43.1816 448.514 43.5957C448.596 44.0098 448.637 44.4961 448.637 45.0547ZM447.547 46.5312V44.873C447.547 44.4902 447.523 44.1543 447.477 43.8652C447.434 43.5723 447.369 43.3223 447.283 43.1152C447.197 42.9082 447.088 42.7402 446.955 42.6113C446.826 42.4824 446.676 42.3887 446.504 42.3301C446.336 42.2676 446.146 42.2363 445.936 42.2363C445.678 42.2363 445.449 42.2852 445.25 42.3828C445.051 42.4766 444.883 42.627 444.746 42.834C444.613 43.041 444.512 43.3125 444.441 43.6484C444.371 43.9844 444.336 44.3926 444.336 44.873V46.5312C444.336 46.9141 444.357 47.252 444.4 47.5449C444.447 47.8379 444.516 48.0918 444.605 48.3066C444.695 48.5176 444.805 48.6914 444.934 48.8281C445.062 48.9648 445.211 49.0664 445.379 49.1328C445.551 49.1953 445.74 49.2266 445.947 49.2266C446.213 49.2266 446.445 49.1758 446.645 49.0742C446.844 48.9727 447.01 48.8145 447.143 48.5996C447.279 48.3809 447.381 48.1016 447.447 47.7617C447.514 47.418 447.547 47.0078 447.547 46.5312ZM455.387 45.0547V46.3555C455.387 47.0547 455.324 47.6445 455.199 48.125C455.074 48.6055 454.895 48.9922 454.66 49.2852C454.426 49.5781 454.143 49.791 453.811 49.9238C453.482 50.0527 453.111 50.1172 452.697 50.1172C452.369 50.1172 452.066 50.0762 451.789 49.9941C451.512 49.9121 451.262 49.7812 451.039 49.6016C450.82 49.418 450.633 49.1797 450.477 48.8867C450.32 48.5938 450.201 48.2383 450.119 47.8203C450.037 47.4023 449.996 46.9141 449.996 46.3555V45.0547C449.996 44.3555 450.059 43.7695 450.184 43.2969C450.312 42.8242 450.494 42.4453 450.729 42.1602C450.963 41.8711 451.244 41.6641 451.572 41.5391C451.904 41.4141 452.275 41.3516 452.686 41.3516C453.018 41.3516 453.322 41.3926 453.6 41.4746C453.881 41.5527 454.131 41.6797 454.35 41.8555C454.568 42.0273 454.754 42.2578 454.906 42.5469C455.062 42.832 455.182 43.1816 455.264 43.5957C455.346 44.0098 455.387 44.4961 455.387 45.0547ZM454.297 46.5312V44.873C454.297 44.4902 454.273 44.1543 454.227 43.8652C454.184 43.5723 454.119 43.3223 454.033 43.1152C453.947 42.9082 453.838 42.7402 453.705 42.6113C453.576 42.4824 453.426 42.3887 453.254 42.3301C453.086 42.2676 452.896 42.2363 452.686 42.2363C452.428 42.2363 452.199 42.2852 452 42.3828C451.801 42.4766 451.633 42.627 451.496 42.834C451.363 43.041 451.262 43.3125 451.191 43.6484C451.121 43.9844 451.086 44.3926 451.086 44.873V46.5312C451.086 46.9141 451.107 47.252 451.15 47.5449C451.197 47.8379 451.266 48.0918 451.355 48.3066C451.445 48.5176 451.555 48.6914 451.684 48.8281C451.812 48.9648 451.961 49.0664 452.129 49.1328C452.301 49.1953 452.49 49.2266 452.697 49.2266C452.963 49.2266 453.195 49.1758 453.395 49.0742C453.594 48.9727 453.76 48.8145 453.893 48.5996C454.029 48.3809 454.131 48.1016 454.197 47.7617C454.264 47.418 454.297 47.0078 454.297 46.5312Z" fill="#333333"/>
<path d="M214.293 132.469H217.117C217.758 132.469 218.299 132.566 218.74 132.762C219.186 132.957 219.523 133.246 219.754 133.629C219.988 134.008 220.105 134.475 220.105 135.029C220.105 135.42 220.025 135.777 219.865 136.102C219.709 136.422 219.482 136.695 219.186 136.922C218.893 137.145 218.541 137.311 218.131 137.42L217.814 137.543H215.16L215.148 136.623H217.152C217.559 136.623 217.896 136.553 218.166 136.412C218.436 136.268 218.639 136.074 218.775 135.832C218.912 135.59 218.98 135.322 218.98 135.029C218.98 134.701 218.916 134.414 218.787 134.168C218.658 133.922 218.455 133.732 218.178 133.6C217.904 133.463 217.551 133.395 217.117 133.395H215.424V141H214.293V132.469ZM219.279 141L217.205 137.133L218.383 137.127L220.486 140.93V141H219.279ZM224.646 131.086V132.873H223.768V131.086H224.646ZM224.541 140.654V142.219H223.668V140.654H224.541ZM225.713 138.803C225.713 138.568 225.66 138.357 225.555 138.17C225.449 137.982 225.275 137.811 225.033 137.654C224.791 137.498 224.467 137.354 224.061 137.221C223.568 137.068 223.143 136.883 222.783 136.664C222.428 136.445 222.152 136.174 221.957 135.85C221.766 135.525 221.67 135.133 221.67 134.672C221.67 134.191 221.773 133.777 221.98 133.43C222.188 133.082 222.48 132.814 222.859 132.627C223.238 132.439 223.684 132.346 224.195 132.346C224.594 132.346 224.949 132.406 225.262 132.527C225.574 132.645 225.838 132.82 226.053 133.055C226.271 133.289 226.438 133.576 226.551 133.916C226.668 134.256 226.727 134.648 226.727 135.094H225.648C225.648 134.832 225.617 134.592 225.555 134.373C225.492 134.154 225.398 133.965 225.273 133.805C225.148 133.641 224.996 133.516 224.816 133.43C224.637 133.34 224.43 133.295 224.195 133.295C223.867 133.295 223.596 133.352 223.381 133.465C223.17 133.578 223.014 133.738 222.912 133.945C222.811 134.148 222.76 134.385 222.76 134.654C222.76 134.904 222.811 135.123 222.912 135.311C223.014 135.498 223.186 135.668 223.428 135.82C223.674 135.969 224.012 136.115 224.441 136.26C224.945 136.42 225.373 136.609 225.725 136.828C226.076 137.043 226.344 137.309 226.527 137.625C226.711 137.938 226.803 138.326 226.803 138.791C226.803 139.295 226.689 139.721 226.463 140.068C226.236 140.412 225.918 140.674 225.508 140.854C225.098 141.033 224.617 141.123 224.066 141.123C223.734 141.123 223.406 141.078 223.082 140.988C222.758 140.898 222.465 140.752 222.203 140.549C221.941 140.342 221.732 140.07 221.576 139.734C221.42 139.395 221.342 138.979 221.342 138.486H222.432C222.432 138.818 222.479 139.094 222.572 139.312C222.67 139.527 222.799 139.699 222.959 139.828C223.119 139.953 223.295 140.043 223.486 140.098C223.682 140.148 223.875 140.174 224.066 140.174C224.418 140.174 224.715 140.119 224.957 140.01C225.203 139.896 225.391 139.736 225.52 139.529C225.648 139.322 225.713 139.08 225.713 138.803ZM229.527 136.939L228.66 136.717L229.088 132.469H233.465V133.471H230.008L229.75 135.791C229.906 135.701 230.104 135.617 230.342 135.539C230.584 135.461 230.861 135.422 231.174 135.422C231.568 135.422 231.922 135.49 232.234 135.627C232.547 135.76 232.812 135.951 233.031 136.201C233.254 136.451 233.424 136.752 233.541 137.104C233.658 137.455 233.717 137.848 233.717 138.281C233.717 138.691 233.66 139.068 233.547 139.412C233.438 139.756 233.271 140.057 233.049 140.314C232.826 140.568 232.545 140.766 232.205 140.906C231.869 141.047 231.473 141.117 231.016 141.117C230.672 141.117 230.346 141.07 230.037 140.977C229.732 140.879 229.459 140.732 229.217 140.537C228.979 140.338 228.783 140.092 228.631 139.799C228.482 139.502 228.389 139.154 228.35 138.756H229.381C229.428 139.076 229.521 139.346 229.662 139.564C229.803 139.783 229.986 139.949 230.213 140.062C230.443 140.172 230.711 140.227 231.016 140.227C231.273 140.227 231.502 140.182 231.701 140.092C231.9 140.002 232.068 139.873 232.205 139.705C232.342 139.537 232.445 139.334 232.516 139.096C232.59 138.857 232.627 138.59 232.627 138.293C232.627 138.023 232.59 137.773 232.516 137.543C232.441 137.312 232.33 137.111 232.182 136.939C232.037 136.768 231.859 136.635 231.648 136.541C231.438 136.443 231.195 136.395 230.922 136.395C230.559 136.395 230.283 136.443 230.096 136.541C229.912 136.639 229.723 136.771 229.527 136.939ZM240.262 136.055V137.355C240.262 138.055 240.199 138.645 240.074 139.125C239.949 139.605 239.77 139.992 239.535 140.285C239.301 140.578 239.018 140.791 238.686 140.924C238.357 141.053 237.986 141.117 237.572 141.117C237.244 141.117 236.941 141.076 236.664 140.994C236.387 140.912 236.137 140.781 235.914 140.602C235.695 140.418 235.508 140.18 235.352 139.887C235.195 139.594 235.076 139.238 234.994 138.82C234.912 138.402 234.871 137.914 234.871 137.355V136.055C234.871 135.355 234.934 134.77 235.059 134.297C235.188 133.824 235.369 133.445 235.604 133.16C235.838 132.871 236.119 132.664 236.447 132.539C236.779 132.414 237.15 132.352 237.561 132.352C237.893 132.352 238.197 132.393 238.475 132.475C238.756 132.553 239.006 132.68 239.225 132.855C239.443 133.027 239.629 133.258 239.781 133.547C239.938 133.832 240.057 134.182 240.139 134.596C240.221 135.01 240.262 135.496 240.262 136.055ZM239.172 137.531V135.873C239.172 135.49 239.148 135.154 239.102 134.865C239.059 134.572 238.994 134.322 238.908 134.115C238.822 133.908 238.713 133.74 238.58 133.611C238.451 133.482 238.301 133.389 238.129 133.33C237.961 133.268 237.771 133.236 237.561 133.236C237.303 133.236 237.074 133.285 236.875 133.383C236.676 133.477 236.508 133.627 236.371 133.834C236.238 134.041 236.137 134.312 236.066 134.648C235.996 134.984 235.961 135.393 235.961 135.873V137.531C235.961 137.914 235.982 138.252 236.025 138.545C236.072 138.838 236.141 139.092 236.23 139.307C236.32 139.518 236.43 139.691 236.559 139.828C236.688 139.965 236.836 140.066 237.004 140.133C237.176 140.195 237.365 140.227 237.572 140.227C237.838 140.227 238.07 140.176 238.27 140.074C238.469 139.973 238.635 139.814 238.768 139.6C238.904 139.381 239.006 139.102 239.072 138.762C239.139 138.418 239.172 138.008 239.172 137.531ZM247.012 136.055V137.355C247.012 138.055 246.949 138.645 246.824 139.125C246.699 139.605 246.52 139.992 246.285 140.285C246.051 140.578 245.768 140.791 245.436 140.924C245.107 141.053 244.736 141.117 244.322 141.117C243.994 141.117 243.691 141.076 243.414 140.994C243.137 140.912 242.887 140.781 242.664 140.602C242.445 140.418 242.258 140.18 242.102 139.887C241.945 139.594 241.826 139.238 241.744 138.82C241.662 138.402 241.621 137.914 241.621 137.355V136.055C241.621 135.355 241.684 134.77 241.809 134.297C241.938 133.824 242.119 133.445 242.354 133.16C242.588 132.871 242.869 132.664 243.197 132.539C243.529 132.414 243.9 132.352 244.311 132.352C244.643 132.352 244.947 132.393 245.225 132.475C245.506 132.553 245.756 132.68 245.975 132.855C246.193 133.027 246.379 133.258 246.531 133.547C246.688 133.832 246.807 134.182 246.889 134.596C246.971 135.01 247.012 135.496 247.012 136.055ZM245.922 137.531V135.873C245.922 135.49 245.898 135.154 245.852 134.865C245.809 134.572 245.744 134.322 245.658 134.115C245.572 133.908 245.463 133.74 245.33 133.611C245.201 133.482 245.051 133.389 244.879 133.33C244.711 133.268 244.521 133.236 244.311 133.236C244.053 133.236 243.824 133.285 243.625 133.383C243.426 133.477 243.258 133.627 243.121 133.834C242.988 134.041 242.887 134.312 242.816 134.648C242.746 134.984 242.711 135.393 242.711 135.873V137.531C242.711 137.914 242.732 138.252 242.775 138.545C242.822 138.838 242.891 139.092 242.98 139.307C243.07 139.518 243.18 139.691 243.309 139.828C243.438 139.965 243.586 140.066 243.754 140.133C243.926 140.195 244.115 140.227 244.322 140.227C244.588 140.227 244.82 140.176 245.02 140.074C245.219 139.973 245.385 139.814 245.518 139.6C245.654 139.381 245.756 139.102 245.822 138.762C245.889 138.418 245.922 138.008 245.922 137.531Z" fill="#333333"/>
<path d="M477.418 279.469H480.242C480.883 279.469 481.424 279.566 481.865 279.762C482.311 279.957 482.648 280.246 482.879 280.629C483.113 281.008 483.23 281.475 483.23 282.029C483.23 282.42 483.15 282.777 482.99 283.102C482.834 283.422 482.607 283.695 482.311 283.922C482.018 284.145 481.666 284.311 481.256 284.42L480.939 284.543H478.285L478.273 283.623H480.277C480.684 283.623 481.021 283.553 481.291 283.412C481.561 283.268 481.764 283.074 481.9 282.832C482.037 282.59 482.105 282.322 482.105 282.029C482.105 281.701 482.041 281.414 481.912 281.168C481.783 280.922 481.58 280.732 481.303 280.6C481.029 280.463 480.676 280.395 480.242 280.395H478.549V288H477.418V279.469ZM482.404 288L480.33 284.133L481.508 284.127L483.611 287.93V288H482.404ZM487.771 278.086V279.873H486.893V278.086H487.771ZM487.666 287.654V289.219H486.793V287.654H487.666ZM488.838 285.803C488.838 285.568 488.785 285.357 488.68 285.17C488.574 284.982 488.4 284.811 488.158 284.654C487.916 284.498 487.592 284.354 487.186 284.221C486.693 284.068 486.268 283.883 485.908 283.664C485.553 283.445 485.277 283.174 485.082 282.85C484.891 282.525 484.795 282.133 484.795 281.672C484.795 281.191 484.898 280.777 485.105 280.43C485.312 280.082 485.605 279.814 485.984 279.627C486.363 279.439 486.809 279.346 487.32 279.346C487.719 279.346 488.074 279.406 488.387 279.527C488.699 279.645 488.963 279.82 489.178 280.055C489.396 280.289 489.562 280.576 489.676 280.916C489.793 281.256 489.852 281.648 489.852 282.094H488.773C488.773 281.832 488.742 281.592 488.68 281.373C488.617 281.154 488.523 280.965 488.398 280.805C488.273 280.641 488.121 280.516 487.941 280.43C487.762 280.34 487.555 280.295 487.32 280.295C486.992 280.295 486.721 280.352 486.506 280.465C486.295 280.578 486.139 280.738 486.037 280.945C485.936 281.148 485.885 281.385 485.885 281.654C485.885 281.904 485.936 282.123 486.037 282.311C486.139 282.498 486.311 282.668 486.553 282.82C486.799 282.969 487.137 283.115 487.566 283.26C488.07 283.42 488.498 283.609 488.85 283.828C489.201 284.043 489.469 284.309 489.652 284.625C489.836 284.938 489.928 285.326 489.928 285.791C489.928 286.295 489.814 286.721 489.588 287.068C489.361 287.412 489.043 287.674 488.633 287.854C488.223 288.033 487.742 288.123 487.191 288.123C486.859 288.123 486.531 288.078 486.207 287.988C485.883 287.898 485.59 287.752 485.328 287.549C485.066 287.342 484.857 287.07 484.701 286.734C484.545 286.395 484.467 285.979 484.467 285.486H485.557C485.557 285.818 485.604 286.094 485.697 286.312C485.795 286.527 485.924 286.699 486.084 286.828C486.244 286.953 486.42 287.043 486.611 287.098C486.807 287.148 487 287.174 487.191 287.174C487.543 287.174 487.84 287.119 488.082 287.01C488.328 286.896 488.516 286.736 488.645 286.529C488.773 286.322 488.838 286.08 488.838 285.803ZM494.844 279.422V288H493.76V280.775L491.574 281.572V280.594L494.674 279.422H494.844ZM499.402 283.939L498.535 283.717L498.963 279.469H503.34V280.471H499.883L499.625 282.791C499.781 282.701 499.979 282.617 500.217 282.539C500.459 282.461 500.736 282.422 501.049 282.422C501.443 282.422 501.797 282.49 502.109 282.627C502.422 282.76 502.688 282.951 502.906 283.201C503.129 283.451 503.299 283.752 503.416 284.104C503.533 284.455 503.592 284.848 503.592 285.281C503.592 285.691 503.535 286.068 503.422 286.412C503.312 286.756 503.146 287.057 502.924 287.314C502.701 287.568 502.42 287.766 502.08 287.906C501.744 288.047 501.348 288.117 500.891 288.117C500.547 288.117 500.221 288.07 499.912 287.977C499.607 287.879 499.334 287.732 499.092 287.537C498.854 287.338 498.658 287.092 498.506 286.799C498.357 286.502 498.264 286.154 498.225 285.756H499.256C499.303 286.076 499.396 286.346 499.537 286.564C499.678 286.783 499.861 286.949 500.088 287.062C500.318 287.172 500.586 287.227 500.891 287.227C501.148 287.227 501.377 287.182 501.576 287.092C501.775 287.002 501.943 286.873 502.08 286.705C502.217 286.537 502.32 286.334 502.391 286.096C502.465 285.857 502.502 285.59 502.502 285.293C502.502 285.023 502.465 284.773 502.391 284.543C502.316 284.312 502.205 284.111 502.057 283.939C501.912 283.768 501.734 283.635 501.523 283.541C501.312 283.443 501.07 283.395 500.797 283.395C500.434 283.395 500.158 283.443 499.971 283.541C499.787 283.639 499.598 283.771 499.402 283.939ZM510.137 283.055V284.355C510.137 285.055 510.074 285.645 509.949 286.125C509.824 286.605 509.645 286.992 509.41 287.285C509.176 287.578 508.893 287.791 508.561 287.924C508.232 288.053 507.861 288.117 507.447 288.117C507.119 288.117 506.816 288.076 506.539 287.994C506.262 287.912 506.012 287.781 505.789 287.602C505.57 287.418 505.383 287.18 505.227 286.887C505.07 286.594 504.951 286.238 504.869 285.82C504.787 285.402 504.746 284.914 504.746 284.355V283.055C504.746 282.355 504.809 281.77 504.934 281.297C505.062 280.824 505.244 280.445 505.479 280.16C505.713 279.871 505.994 279.664 506.322 279.539C506.654 279.414 507.025 279.352 507.436 279.352C507.768 279.352 508.072 279.393 508.35 279.475C508.631 279.553 508.881 279.68 509.1 279.855C509.318 280.027 509.504 280.258 509.656 280.547C509.812 280.832 509.932 281.182 510.014 281.596C510.096 282.01 510.137 282.496 510.137 283.055ZM509.047 284.531V282.873C509.047 282.49 509.023 282.154 508.977 281.865C508.934 281.572 508.869 281.322 508.783 281.115C508.697 280.908 508.588 280.74 508.455 280.611C508.326 280.482 508.176 280.389 508.004 280.33C507.836 280.268 507.646 280.236 507.436 280.236C507.178 280.236 506.949 280.285 506.75 280.383C506.551 280.477 506.383 280.627 506.246 280.834C506.113 281.041 506.012 281.312 505.941 281.648C505.871 281.984 505.836 282.393 505.836 282.873V284.531C505.836 284.914 505.857 285.252 505.9 285.545C505.947 285.838 506.016 286.092 506.105 286.307C506.195 286.518 506.305 286.691 506.434 286.828C506.562 286.965 506.711 287.066 506.879 287.133C507.051 287.195 507.24 287.227 507.447 287.227C507.713 287.227 507.945 287.176 508.145 287.074C508.344 286.973 508.51 286.814 508.643 286.6C508.779 286.381 508.881 286.102 508.947 285.762C509.014 285.418 509.047 285.008 509.047 284.531ZM516.887 283.055V284.355C516.887 285.055 516.824 285.645 516.699 286.125C516.574 286.605 516.395 286.992 516.16 287.285C515.926 287.578 515.643 287.791 515.311 287.924C514.982 288.053 514.611 288.117 514.197 288.117C513.869 288.117 513.566 288.076 513.289 287.994C513.012 287.912 512.762 287.781 512.539 287.602C512.32 287.418 512.133 287.18 511.977 286.887C511.82 286.594 511.701 286.238 511.619 285.82C511.537 285.402 511.496 284.914 511.496 284.355V283.055C511.496 282.355 511.559 281.77 511.684 281.297C511.812 280.824 511.994 280.445 512.229 280.16C512.463 279.871 512.744 279.664 513.072 279.539C513.404 279.414 513.775 279.352 514.186 279.352C514.518 279.352 514.822 279.393 515.1 279.475C515.381 279.553 515.631 279.68 515.85 279.855C516.068 280.027 516.254 280.258 516.406 280.547C516.562 280.832 516.682 281.182 516.764 281.596C516.846 282.01 516.887 282.496 516.887 283.055ZM515.797 284.531V282.873C515.797 282.49 515.773 282.154 515.727 281.865C515.684 281.572 515.619 281.322 515.533 281.115C515.447 280.908 515.338 280.74 515.205 280.611C515.076 280.482 514.926 280.389 514.754 280.33C514.586 280.268 514.396 280.236 514.186 280.236C513.928 280.236 513.699 280.285 513.5 280.383C513.301 280.477 513.133 280.627 512.996 280.834C512.863 281.041 512.762 281.312 512.691 281.648C512.621 281.984 512.586 282.393 512.586 282.873V284.531C512.586 284.914 512.607 285.252 512.65 285.545C512.697 285.838 512.766 286.092 512.855 286.307C512.945 286.518 513.055 286.691 513.184 286.828C513.312 286.965 513.461 287.066 513.629 287.133C513.801 287.195 513.99 287.227 514.197 287.227C514.463 287.227 514.695 287.176 514.895 287.074C515.094 286.973 515.26 286.814 515.393 286.6C515.529 286.381 515.631 286.102 515.697 285.762C515.764 285.418 515.797 285.008 515.797 284.531Z" fill="#333333"/>
<path d="M609.918 279.469H612.742C613.383 279.469 613.924 279.566 614.365 279.762C614.811 279.957 615.148 280.246 615.379 280.629C615.613 281.008 615.73 281.475 615.73 282.029C615.73 282.42 615.65 282.777 615.49 283.102C615.334 283.422 615.107 283.695 614.811 283.922C614.518 284.145 614.166 284.311 613.756 284.42L613.439 284.543H610.785L610.773 283.623H612.777C613.184 283.623 613.521 283.553 613.791 283.412C614.061 283.268 614.264 283.074 614.4 282.832C614.537 282.59 614.605 282.322 614.605 282.029C614.605 281.701 614.541 281.414 614.412 281.168C614.283 280.922 614.08 280.732 613.803 280.6C613.529 280.463 613.176 280.395 612.742 280.395H611.049V288H609.918V279.469ZM614.904 288L612.83 284.133L614.008 284.127L616.111 287.93V288H614.904ZM620.271 278.086V279.873H619.393V278.086H620.271ZM620.166 287.654V289.219H619.293V287.654H620.166ZM621.338 285.803C621.338 285.568 621.285 285.357 621.18 285.17C621.074 284.982 620.9 284.811 620.658 284.654C620.416 284.498 620.092 284.354 619.686 284.221C619.193 284.068 618.768 283.883 618.408 283.664C618.053 283.445 617.777 283.174 617.582 282.85C617.391 282.525 617.295 282.133 617.295 281.672C617.295 281.191 617.398 280.777 617.605 280.43C617.812 280.082 618.105 279.814 618.484 279.627C618.863 279.439 619.309 279.346 619.82 279.346C620.219 279.346 620.574 279.406 620.887 279.527C621.199 279.645 621.463 279.82 621.678 280.055C621.896 280.289 622.062 280.576 622.176 280.916C622.293 281.256 622.352 281.648 622.352 282.094H621.273C621.273 281.832 621.242 281.592 621.18 281.373C621.117 281.154 621.023 280.965 620.898 280.805C620.773 280.641 620.621 280.516 620.441 280.43C620.262 280.34 620.055 280.295 619.82 280.295C619.492 280.295 619.221 280.352 619.006 280.465C618.795 280.578 618.639 280.738 618.537 280.945C618.436 281.148 618.385 281.385 618.385 281.654C618.385 281.904 618.436 282.123 618.537 282.311C618.639 282.498 618.811 282.668 619.053 282.82C619.299 282.969 619.637 283.115 620.066 283.26C620.57 283.42 620.998 283.609 621.35 283.828C621.701 284.043 621.969 284.309 622.152 284.625C622.336 284.938 622.428 285.326 622.428 285.791C622.428 286.295 622.314 286.721 622.088 287.068C621.861 287.412 621.543 287.674 621.133 287.854C620.723 288.033 620.242 288.123 619.691 288.123C619.359 288.123 619.031 288.078 618.707 287.988C618.383 287.898 618.09 287.752 617.828 287.549C617.566 287.342 617.357 287.07 617.201 286.734C617.045 286.395 616.967 285.979 616.967 285.486H618.057C618.057 285.818 618.104 286.094 618.197 286.312C618.295 286.527 618.424 286.699 618.584 286.828C618.744 286.953 618.92 287.043 619.111 287.098C619.307 287.148 619.5 287.174 619.691 287.174C620.043 287.174 620.34 287.119 620.582 287.01C620.828 286.896 621.016 286.736 621.145 286.529C621.273 286.322 621.338 286.08 621.338 285.803ZM629.371 287.109V288H623.787V287.221L626.582 284.109C626.926 283.727 627.191 283.402 627.379 283.137C627.57 282.867 627.703 282.627 627.777 282.416C627.855 282.201 627.895 281.982 627.895 281.76C627.895 281.479 627.836 281.225 627.719 280.998C627.605 280.768 627.438 280.584 627.215 280.447C626.992 280.311 626.723 280.242 626.406 280.242C626.027 280.242 625.711 280.316 625.457 280.465C625.207 280.609 625.02 280.812 624.895 281.074C624.77 281.336 624.707 281.637 624.707 281.977H623.623C623.623 281.496 623.729 281.057 623.939 280.658C624.15 280.26 624.463 279.943 624.877 279.709C625.291 279.471 625.801 279.352 626.406 279.352C626.945 279.352 627.406 279.447 627.789 279.639C628.172 279.826 628.465 280.092 628.668 280.436C628.875 280.775 628.979 281.174 628.979 281.631C628.979 281.881 628.936 282.135 628.85 282.393C628.768 282.646 628.652 282.9 628.504 283.154C628.359 283.408 628.189 283.658 627.994 283.904C627.803 284.15 627.598 284.393 627.379 284.631L625.094 287.109H629.371ZM635.887 283.055V284.355C635.887 285.055 635.824 285.645 635.699 286.125C635.574 286.605 635.395 286.992 635.16 287.285C634.926 287.578 634.643 287.791 634.311 287.924C633.982 288.053 633.611 288.117 633.197 288.117C632.869 288.117 632.566 288.076 632.289 287.994C632.012 287.912 631.762 287.781 631.539 287.602C631.32 287.418 631.133 287.18 630.977 286.887C630.82 286.594 630.701 286.238 630.619 285.82C630.537 285.402 630.496 284.914 630.496 284.355V283.055C630.496 282.355 630.559 281.77 630.684 281.297C630.812 280.824 630.994 280.445 631.229 280.16C631.463 279.871 631.744 279.664 632.072 279.539C632.404 279.414 632.775 279.352 633.186 279.352C633.518 279.352 633.822 279.393 634.1 279.475C634.381 279.553 634.631 279.68 634.85 279.855C635.068 280.027 635.254 280.258 635.406 280.547C635.562 280.832 635.682 281.182 635.764 281.596C635.846 282.01 635.887 282.496 635.887 283.055ZM634.797 284.531V282.873C634.797 282.49 634.773 282.154 634.727 281.865C634.684 281.572 634.619 281.322 634.533 281.115C634.447 280.908 634.338 280.74 634.205 280.611C634.076 280.482 633.926 280.389 633.754 280.33C633.586 280.268 633.396 280.236 633.186 280.236C632.928 280.236 632.699 280.285 632.5 280.383C632.301 280.477 632.133 280.627 631.996 280.834C631.863 281.041 631.762 281.312 631.691 281.648C631.621 281.984 631.586 282.393 631.586 282.873V284.531C631.586 284.914 631.607 285.252 631.65 285.545C631.697 285.838 631.766 286.092 631.855 286.307C631.945 286.518 632.055 286.691 632.184 286.828C632.312 286.965 632.461 287.066 632.629 287.133C632.801 287.195 632.99 287.227 633.197 287.227C633.463 287.227 633.695 287.176 633.895 287.074C634.094 286.973 634.26 286.814 634.393 286.6C634.529 286.381 634.631 286.102 634.697 285.762C634.764 285.418 634.797 285.008 634.797 284.531ZM642.637 283.055V284.355C642.637 285.055 642.574 285.645 642.449 286.125C642.324 286.605 642.145 286.992 641.91 287.285C641.676 287.578 641.393 287.791 641.061 287.924C640.732 288.053 640.361 288.117 639.947 288.117C639.619 288.117 639.316 288.076 639.039 287.994C638.762 287.912 638.512 287.781 638.289 287.602C638.07 287.418 637.883 287.18 637.727 286.887C637.57 286.594 637.451 286.238 637.369 285.82C637.287 285.402 637.246 284.914 637.246 284.355V283.055C637.246 282.355 637.309 281.77 637.434 281.297C637.562 280.824 637.744 280.445 637.979 280.16C638.213 279.871 638.494 279.664 638.822 279.539C639.154 279.414 639.525 279.352 639.936 279.352C640.268 279.352 640.572 279.393 640.85 279.475C641.131 279.553 641.381 279.68 641.6 279.855C641.818 280.027 642.004 280.258 642.156 280.547C642.312 280.832 642.432 281.182 642.514 281.596C642.596 282.01 642.637 282.496 642.637 283.055ZM641.547 284.531V282.873C641.547 282.49 641.523 282.154 641.477 281.865C641.434 281.572 641.369 281.322 641.283 281.115C641.197 280.908 641.088 280.74 640.955 280.611C640.826 280.482 640.676 280.389 640.504 280.33C640.336 280.268 640.146 280.236 639.936 280.236C639.678 280.236 639.449 280.285 639.25 280.383C639.051 280.477 638.883 280.627 638.746 280.834C638.613 281.041 638.512 281.312 638.441 281.648C638.371 281.984 638.336 282.393 638.336 282.873V284.531C638.336 284.914 638.357 285.252 638.4 285.545C638.447 285.838 638.516 286.092 638.605 286.307C638.695 286.518 638.805 286.691 638.934 286.828C639.062 286.965 639.211 287.066 639.379 287.133C639.551 287.195 639.74 287.227 639.947 287.227C640.213 287.227 640.445 287.176 640.645 287.074C640.844 286.973 641.01 286.814 641.143 286.6C641.279 286.381 641.381 286.102 641.447 285.762C641.514 285.418 641.547 285.008 641.547 284.531ZM649.387 283.055V284.355C649.387 285.055 649.324 285.645 649.199 286.125C649.074 286.605 648.895 286.992 648.66 287.285C648.426 287.578 648.143 287.791 647.811 287.924C647.482 288.053 647.111 288.117 646.697 288.117C646.369 288.117 646.066 288.076 645.789 287.994C645.512 287.912 645.262 287.781 645.039 287.602C644.82 287.418 644.633 287.18 644.477 286.887C644.32 286.594 644.201 286.238 644.119 285.82C644.037 285.402 643.996 284.914 643.996 284.355V283.055C643.996 282.355 644.059 281.77 644.184 281.297C644.312 280.824 644.494 280.445 644.729 280.16C644.963 279.871 645.244 279.664 645.572 279.539C645.904 279.414 646.275 279.352 646.686 279.352C647.018 279.352 647.322 279.393 647.6 279.475C647.881 279.553 648.131 279.68 648.35 279.855C648.568 280.027 648.754 280.258 648.906 280.547C649.062 280.832 649.182 281.182 649.264 281.596C649.346 282.01 649.387 282.496 649.387 283.055ZM648.297 284.531V282.873C648.297 282.49 648.273 282.154 648.227 281.865C648.184 281.572 648.119 281.322 648.033 281.115C647.947 280.908 647.838 280.74 647.705 280.611C647.576 280.482 647.426 280.389 647.254 280.33C647.086 280.268 646.896 280.236 646.686 280.236C646.428 280.236 646.199 280.285 646 280.383C645.801 280.477 645.633 280.627 645.496 280.834C645.363 281.041 645.262 281.312 645.191 281.648C645.121 281.984 645.086 282.393 645.086 282.873V284.531C645.086 284.914 645.107 285.252 645.15 285.545C645.197 285.838 645.266 286.092 645.355 286.307C645.445 286.518 645.555 286.691 645.684 286.828C645.812 286.965 645.961 287.066 646.129 287.133C646.301 287.195 646.49 287.227 646.697 287.227C646.963 287.227 647.195 287.176 647.395 287.074C647.594 286.973 647.76 286.814 647.893 286.6C648.029 286.381 648.131 286.102 648.197 285.762C648.264 285.418 648.297 285.008 648.297 284.531Z" fill="#333333"/>
<path d="M65 37H408V56H65V37Z" fill="#0263FF"/>
<path d="M65 127H203V146H65V127Z" fill="#FF7723"/>
<path d="M65 217H608V236H65V217Z" fill="#8E30FF"/>
</svg>
