<svg width="14" height="13" viewBox="0 0 14 13" fill="none" xmlns="http://www.w3.org/2000/svg">
<path d="M13.2558 4.35099L9.29712 4.01737L7.75128 0.482561C7.47319 -0.160854 6.52442 -0.160854 6.24633 0.482561L4.70048 4.02531L0.749987 4.35099C0.0302278 4.40659 -0.264219 5.28037 0.283779 5.74108L3.2855 8.26708L2.3858 12.0164C2.22222 12.6995 2.98287 13.2396 3.60448 12.8742L6.9988 10.8884L10.3931 12.8822C11.0147 13.2476 11.7754 12.7074 11.6118 12.0243L10.7121 8.26708L13.7138 5.74108C14.2618 5.28037 13.9756 4.40659 13.2558 4.35099ZM6.9988 9.40298L3.92347 11.2061L4.74138 7.80636L2.02592 5.51867L5.60836 5.21682L6.9988 2.01563L8.39743 5.22476L11.9799 5.52661L9.26441 7.81431L10.0823 11.2141L6.9988 9.40298Z" fill="#161616"/>
</svg>
