<svg width="36" height="36" viewBox="0 0 36 36" fill="none" xmlns="http://www.w3.org/2000/svg">
<path d="M6.71484 7.31268H29.2148C29.4777 7.31255 29.7402 7.32923 30.0009 7.3626C29.9126 6.74228 29.6995 6.14629 29.3746 5.61054C29.0496 5.0748 28.6196 4.61041 28.1103 4.24537C27.601 3.88033 27.0231 3.62219 26.4114 3.48653C25.7997 3.35088 25.1669 3.3405 24.551 3.45604L6.04688 6.61518H6.02578C4.86427 6.83729 3.83137 7.49445 3.13805 8.45244C4.18261 7.70947 5.433 7.31102 6.71484 7.31268ZM29.2148 9.00018H6.71484C5.52177 9.00148 4.37793 9.476 3.5343 10.3196C2.69067 11.1633 2.21615 12.3071 2.21484 13.5002V27.0002C2.21615 28.1933 2.69067 29.3371 3.5343 30.1807C4.37793 31.0244 5.52177 31.4989 6.71484 31.5002H29.2148C30.4079 31.4989 31.5518 31.0244 32.3954 30.1807C33.239 29.3371 33.7135 28.1933 33.7148 27.0002V13.5002C33.7135 12.3071 33.239 11.1633 32.3954 10.3196C31.5518 9.476 30.4079 9.00148 29.2148 9.00018ZM25.875 22.5002C25.43 22.5002 24.995 22.3682 24.625 22.121C24.255 21.8738 23.9666 21.5224 23.7963 21.1112C23.626 20.7001 23.5814 20.2477 23.6682 19.8112C23.755 19.3748 23.9693 18.9739 24.284 18.6592C24.5987 18.3445 24.9996 18.1302 25.436 18.0434C25.8725 17.9566 26.3249 18.0012 26.736 18.1714C27.1472 18.3417 27.4986 18.6301 27.7458 19.0001C27.993 19.3702 28.125 19.8052 28.125 20.2502C28.125 20.8469 27.8879 21.4192 27.466 21.8412C27.044 22.2631 26.4717 22.5002 25.875 22.5002Z" fill="black"/>
<path d="M2.25 18.2461V11.25C2.25 9.72633 3.09375 7.17187 6.02227 6.61852C8.50781 6.15234 10.9688 6.15234 10.9688 6.15234C10.9688 6.15234 12.5859 7.27734 11.25 7.27734C9.91406 7.27734 9.94922 9 11.25 9C12.5508 9 11.25 10.6523 11.25 10.6523L6.01172 16.5938L2.25 18.2461Z" fill="black"/>
</svg>
