<svg width="20" height="21" viewBox="0 0 20 21" fill="none" xmlns="http://www.w3.org/2000/svg">
<path d="M2 20.9393C1.45 20.9393 0.979333 20.7272 0.588 20.303C0.196 19.8781 0 19.3676 0 18.7715V6.84856C0 6.25241 0.196 5.74226 0.588 5.31809C0.979333 4.8932 1.45 4.68076 2 4.68076H6V2.51296C6 1.91681 6.196 1.40629 6.588 0.981404C6.97933 0.557237 7.45 0.345154 8 0.345154H12C12.55 0.345154 13.021 0.557237 13.413 0.981404C13.8043 1.40629 14 1.91681 14 2.51296V4.68076H18C18.55 4.68076 19.021 4.8932 19.413 5.31809C19.8043 5.74226 20 6.25241 20 6.84856V18.7715C20 19.3676 19.8043 19.8781 19.413 20.303C19.021 20.7272 18.55 20.9393 18 20.9393H2ZM2 18.7715H18V6.84856H2V18.7715ZM8 4.68076H12V2.51296H8V4.68076Z" fill="#20AC69"/>
</svg>
