<svg width="22" height="22" viewBox="0 0 22 22" fill="none" xmlns="http://www.w3.org/2000/svg">
<path d="M1 21.8753C0.716667 21.8753 0.479333 21.7605 0.288 21.5309C0.096 21.302 0 21.0181 0 20.6792C0 20.3403 0.096 20.0564 0.288 19.8276C0.479333 19.5979 0.716667 19.4831 1 19.4831H21C21.2833 19.4831 21.5207 19.5979 21.712 19.8276C21.904 20.0564 22 20.3403 22 20.6792C22 21.0181 21.904 21.302 21.712 21.5309C21.5207 21.7605 21.2833 21.8753 21 21.8753H1ZM3 18.287C2.45 18.287 1.97933 18.0529 1.588 17.5848C1.196 17.116 1 16.5526 1 15.8947V2.73737C1 2.0795 1.196 1.51613 1.588 1.04725C1.97933 0.579165 2.45 0.345123 3 0.345123H19C19.55 0.345123 20.021 0.579165 20.413 1.04725C20.8043 1.51613 21 2.0795 21 2.73737V15.8947C21 16.5526 20.8043 17.116 20.413 17.5848C20.021 18.0529 19.55 18.287 19 18.287H3ZM3 15.8947H19V2.73737H3V15.8947Z" fill="#20AC69"/>
</svg>
