<svg width="22" height="22" viewBox="0 0 22 22" fill="none" xmlns="http://www.w3.org/2000/svg">
<path fill-rule="evenodd" clip-rule="evenodd" d="M12.1303 0.0234919C14.6774 0.180104 17.0652 1.433 18.8162 3.15574C20.8857 5.34832 22 8.01073 22 11.143C22 13.6488 21.0449 15.998 19.453 18.0339C17.8611 19.9133 15.6325 21.3228 13.0855 21.7926C10.5385 22.2625 7.99146 21.9492 5.76283 20.6963C3.53419 19.4434 1.78313 17.5641 0.827999 15.2149C-0.127129 12.8657 -0.286317 10.2033 0.509623 7.85411C1.30556 5.34831 2.73825 3.31235 4.96689 1.90284C7.03633 0.493329 9.58334 -0.133121 12.1303 0.0234919ZM12.9263 20.2265C14.9957 19.7567 16.906 18.6604 18.3387 16.9376C19.6122 15.2149 20.4081 13.1789 20.2489 10.9864C20.2489 8.48056 19.2938 5.97477 17.5427 4.25203C15.9509 2.6859 14.0406 1.74623 11.812 1.58962C9.74253 1.433 7.51389 1.90284 5.76283 3.15574C4.01176 4.40864 2.73825 6.13138 2.1015 8.32395C1.46475 10.3599 1.46475 12.5525 2.41988 14.5884C3.37501 16.6244 4.8077 18.1905 6.71795 19.2868C8.62821 20.3831 10.8568 20.6963 12.9263 20.2265ZM11.016 10.2033L14.8365 6.28799L15.9509 7.38428L12.1303 11.2996L15.9509 15.2149L14.8365 16.3112L11.016 12.3959L7.19552 16.3112L6.0812 15.2149L9.90171 11.2996L6.0812 7.38428L7.19552 6.28799L11.016 10.2033Z" fill="#FD6868"/>
</svg>
