<svg width="16" height="16" viewBox="0 0 16 16" fill="none" xmlns="http://www.w3.org/2000/svg">
<path d="M15.3334 6.6665C15.3334 6.31288 15.1929 5.97374 14.9429 5.72369C14.6928 5.47365 14.3537 5.33317 14.0001 5.33317H9.78675L10.4267 2.2865C10.4401 2.21984 10.4467 2.1465 10.4467 2.07317C10.4467 1.79984 10.3334 1.5465 10.1534 1.3665L9.44675 0.666504L5.06008 5.05317C4.81342 5.29984 4.66675 5.63317 4.66675 5.99984V12.6665C4.66675 13.0201 4.80722 13.3593 5.05727 13.6093C5.30732 13.8594 5.64646 13.9998 6.00008 13.9998H12.0001C12.5534 13.9998 13.0267 13.6665 13.2267 13.1865L15.2401 8.4865C15.3001 8.33317 15.3334 8.17317 15.3334 7.99984V6.6665ZM0.666748 13.9998H3.33341V5.99984H0.666748V13.9998Z" fill="black"/>
</svg>
