<svg width="16" height="16" viewBox="0 0 16 16" fill="none" xmlns="http://www.w3.org/2000/svg">
<path d="M4.72633 14.885C3.99207 14.2995 3.46833 13.5266 3.22314 12.6669C2.97794 11.8071 3.02262 10.9001 3.35138 10.0637L5.05409 5.75147C5.09323 5.65183 5.16281 5.56441 5.25465 5.49947C5.34649 5.43453 5.45679 5.39476 5.5726 5.38484C5.6884 5.37491 5.80492 5.39524 5.90848 5.44344C6.01204 5.49163 6.09833 5.56569 6.15725 5.65693L6.40506 6.05689C6.59692 6.34049 6.63689 6.68955 6.51698 7.00224L5.73357 8.99474L6.07731 9.27108L10.8417 4.36253C11.1215 4.07166 11.6011 4.04257 11.9289 4.29709C12.2406 4.5516 12.2726 4.99519 12.0008 5.2788L8.44352 8.93657L8.90716 9.30744L13.2639 4.81339C13.5437 4.52252 14.0313 4.49343 14.343 4.74795C14.6628 5.00246 14.6948 5.45332 14.399 5.73693L10.0503 10.231L10.5139 10.6018L14.2631 6.73318C14.5429 6.4423 15.0305 6.41321 15.3423 6.66773C15.6541 6.92225 15.694 7.36583 15.4142 7.63489L11.6651 11.5181L12.1207 11.889L14.6548 9.27835C14.9346 8.98747 15.4222 8.95838 15.742 9.2129C16.0617 9.46742 16.0857 9.911 15.8059 10.1801L11.6491 14.485C11.2237 14.9253 10.7071 15.2849 10.1288 15.5433C9.55055 15.8017 8.9219 15.9539 8.27889 15.991C7.63588 16.0282 6.99113 15.9496 6.38154 15.7598C5.77194 15.57 5.20948 15.2728 4.72633 14.885ZM7.6761 5.9769L9.94638 3.63534C10.1382 3.439 10.378 3.27175 10.6418 3.17721L10.9456 2.61C10.9908 2.52806 11.0176 2.43874 11.0243 2.34727C11.031 2.2558 11.0176 2.16403 10.9849 2.07733C10.9521 1.99063 10.9007 1.91076 10.8335 1.84239C10.7664 1.77403 10.6849 1.71854 10.5939 1.6792C10.4113 1.59956 10.2016 1.58848 10.0102 1.64835C9.81869 1.70823 9.66081 1.83424 9.57066 1.99916L7.56418 5.73693C7.60415 5.81692 7.65212 5.89691 7.6761 5.9769ZM7.20446 5.08973V5.12609L9.42677 1.00291C9.51354 0.835919 9.52444 0.644541 9.45709 0.470289C9.38975 0.296037 9.2496 0.152965 9.06704 0.0721055C8.97688 0.0313976 8.87873 0.00738189 8.77829 0.0014519C8.67785 -0.0044781 8.57711 0.00779565 8.48192 0.037561C8.38674 0.0673263 8.29899 0.113991 8.22379 0.174846C8.14858 0.235702 8.08741 0.309538 8.04382 0.39207L5.93342 4.32617C6.45302 4.40617 6.90868 4.67523 7.20446 5.08973ZM2.22423 9.69285L3.92694 5.3806C4.14278 4.83521 4.64639 4.46434 5.24594 4.34072L6.95664 1.14835C7.04484 0.982365 7.05735 0.791403 6.99147 0.617061C6.92559 0.442718 6.78665 0.299119 6.60491 0.217544C6.51473 0.176935 6.41659 0.152999 6.31618 0.147119C6.21576 0.141239 6.11506 0.153534 6.0199 0.18329C5.92474 0.213046 5.83701 0.259674 5.76179 0.320475C5.68658 0.381276 5.62536 0.455043 5.58169 0.537508L2.40809 6.42776L2.00839 6.24596L2.17627 4.12983C2.20824 3.8026 2.06435 3.47536 1.80855 3.24266L1.44082 2.90815C1.06511 2.59546 0.449575 2.80634 0.409606 3.27175L0.00990868 7.84578C-0.0940126 9.32925 0.625442 10.7473 1.88848 11.6344C1.8725 10.9945 1.97642 10.3328 2.22423 9.69285Z" fill="#A5624E"/>
</svg>
