<svg width="56" height="56" viewBox="0 0 56 56" fill="none" xmlns="http://www.w3.org/2000/svg">
<path d="M28 0C24.323 0 20.682 0.724241 17.2849 2.13137C13.8877 3.5385 10.8011 5.60097 8.20101 8.20101C2.94999 13.452 0 20.5739 0 28C0 35.4261 2.94999 42.548 8.20101 47.799C10.8011 50.399 13.8877 52.4615 17.2849 53.8686C20.682 55.2758 24.323 56 28 56C35.4261 56 42.548 53.05 47.799 47.799C53.05 42.548 56 35.4261 56 28C56 24.323 55.2758 20.682 53.8686 17.2849C52.4615 13.8877 50.399 10.8011 47.799 8.20101C45.1989 5.60097 42.1123 3.5385 38.7151 2.13137C35.318 0.724241 31.677 0 28 0ZM14.196 45.584C15.4 43.064 22.736 40.6 28 40.6C33.264 40.6 40.6 43.064 41.804 45.584C37.8823 48.7089 33.0145 50.4072 28 50.4C22.792 50.4 18.004 48.608 14.196 45.584ZM45.808 41.524C41.804 36.652 32.088 35 28 35C23.912 35 14.196 36.652 10.192 41.524C7.21332 37.6449 5.59906 32.8908 5.6 28C5.6 15.652 15.652 5.6 28 5.6C40.348 5.6 50.4 15.652 50.4 28C50.4 33.096 48.664 37.8 45.808 41.524ZM28 11.2C22.568 11.2 18.2 15.568 18.2 21C18.2 26.432 22.568 30.8 28 30.8C33.432 30.8 37.8 26.432 37.8 21C37.8 15.568 33.432 11.2 28 11.2ZM28 25.2C26.8861 25.2 25.8178 24.7575 25.0302 23.9698C24.2425 23.1822 23.8 22.1139 23.8 21C23.8 19.8861 24.2425 18.8178 25.0302 18.0302C25.8178 17.2425 26.8861 16.8 28 16.8C29.1139 16.8 30.1822 17.2425 30.9698 18.0302C31.7575 18.8178 32.2 19.8861 32.2 21C32.2 22.1139 31.7575 23.1822 30.9698 23.9698C30.1822 24.7575 29.1139 25.2 28 25.2Z" fill="#4DFF7E"/>
</svg>
