<svg width="40" height="40" viewBox="0 0 40 40" fill="none" xmlns="http://www.w3.org/2000/svg">
<path d="M12.1914 23.1055C12.3125 23.2266 12.5117 23.2266 12.6328 23.1055L16.6094 19.1289L19.9727 22.4961C20.0937 22.6172 20.293 22.6172 20.4141 22.4961L29.2539 13.6484C29.375 13.5273 29.375 13.3281 29.2539 13.207L27.8164 11.7695C27.6953 11.6484 27.4961 11.6484 27.375 11.7695L20.1953 18.957L16.832 15.5898C16.7109 15.4688 16.5117 15.4688 16.3906 15.5898L10.7539 21.2266C10.6328 21.3477 10.6328 21.5469 10.7539 21.668L12.1914 23.1055Z" fill="white"/>
<path d="M35.3125 6.25H21.4062V3.75C21.4062 3.57812 21.2656 3.4375 21.0938 3.4375H18.9062C18.7344 3.4375 18.5938 3.57812 18.5938 3.75V6.25H4.6875C3.99609 6.25 3.4375 6.80859 3.4375 7.5V27.8125C3.4375 28.5039 3.99609 29.0625 4.6875 29.0625H18.6094V30.3125L12.1719 34.5352C12.0273 34.6289 11.9883 34.8203 12.082 34.9648L13.2656 36.8086V36.8125C13.3594 36.957 13.5547 36.9961 13.6992 36.9023L20 32.7695L26.3008 36.9023C26.4453 36.9961 26.6406 36.957 26.7344 36.8125V36.8086L27.918 34.9648C28.0117 34.8203 27.9688 34.6289 27.8281 34.5352L21.4062 30.3242V29.0625H35.3125C36.0039 29.0625 36.5625 28.5039 36.5625 27.8125V7.5C36.5625 6.80859 36.0039 6.25 35.3125 6.25ZM33.75 26.25H6.25V9.0625H33.75V26.25Z" fill="white"/>
</svg>
