<svg width="16" height="16" viewBox="0 0 16 16" fill="none" xmlns="http://www.w3.org/2000/svg">
<path d="M13.3333 16C12.5926 16 11.963 15.7667 11.4444 15.3C10.9259 14.8333 10.6667 14.2667 10.6667 13.6C10.6667 13.5067 10.6741 13.4099 10.6889 13.3096C10.7037 13.2093 10.7259 13.1195 10.7556 13.04L4.48889 9.76C4.23704 9.96 3.95556 10.1168 3.64444 10.2304C3.33333 10.344 3.00741 10.4005 2.66667 10.4C1.92593 10.4 1.2963 10.1667 0.777778 9.7C0.259259 9.23333 0 8.66667 0 8C0 7.33333 0.259259 6.76667 0.777778 6.3C1.2963 5.83333 1.92593 5.6 2.66667 5.6C3.00741 5.6 3.33333 5.6568 3.64444 5.7704C3.95556 5.884 4.23704 6.04053 4.48889 6.24L10.7556 2.96C10.7259 2.88 10.7037 2.79013 10.6889 2.6904C10.6741 2.59067 10.6667 2.49387 10.6667 2.4C10.6667 1.73333 10.9259 1.16667 11.4444 0.7C11.963 0.233333 12.5926 0 13.3333 0C14.0741 0 14.7037 0.233333 15.2222 0.7C15.7407 1.16667 16 1.73333 16 2.4C16 3.06667 15.7407 3.63333 15.2222 4.1C14.7037 4.56667 14.0741 4.8 13.3333 4.8C12.9926 4.8 12.6667 4.74347 12.3556 4.6304C12.0444 4.51733 11.763 4.36053 11.5111 4.16L5.24444 7.44C5.27407 7.52 5.2963 7.61013 5.31111 7.7104C5.32593 7.81067 5.33333 7.9072 5.33333 8C5.33333 8.09333 5.32593 8.19013 5.31111 8.2904C5.2963 8.39067 5.27407 8.48053 5.24444 8.56L11.5111 11.84C11.763 11.64 12.0444 11.4835 12.3556 11.3704C12.6667 11.2573 12.9926 11.2005 13.3333 11.2C14.0741 11.2 14.7037 11.4333 15.2222 11.9C15.7407 12.3667 16 12.9333 16 13.6C16 14.2667 15.7407 14.8333 15.2222 15.3C14.7037 15.7667 14.0741 16 13.3333 16Z" fill="black"/>
</svg>
