<svg width="56" height="56" viewBox="0 0 56 56" fill="none" xmlns="http://www.w3.org/2000/svg">
<path d="M56 17.2677C56.0005 16.6695 55.8826 16.077 55.6529 15.5247C55.4232 14.9723 55.0864 14.4709 54.6619 14.0495L41.936 1.31911C41.0784 0.473831 39.9228 0 38.7189 0C37.515 0 36.3594 0.473831 35.5018 1.31911L1.33814 35.4947C0.887792 35.9369 0.538192 36.4712 0.31323 37.061C0.28476 37.118 0.284761 37.175 0.256291 37.2319C0.0840638 37.7065 -0.00268807 38.208 6.34553e-05 38.7129V51.4433C6.34553e-05 52.6518 0.47998 53.8108 1.33424 54.6654C2.18849 55.5199 3.34712 56 4.55522 56H17.2812C17.795 56.0003 18.3052 55.9136 18.7901 55.7437L18.9324 55.6867C19.5221 55.4617 20.0562 55.112 20.4983 54.6615L44.3274 30.824L45.2954 34.7827L34.8185 45.2632C34.3908 45.6951 34.1509 46.2785 34.1509 46.8865C34.1509 47.4945 34.3908 48.0779 34.8185 48.5099C35.2539 48.9309 35.8357 49.1663 36.4413 49.1663C37.0469 49.1663 37.6287 48.9309 38.0641 48.5099L49.452 37.118C49.719 36.8324 49.9128 36.4863 50.017 36.1093C50.1211 35.7324 50.1324 35.3358 50.0498 34.9536L48.0854 27.0932L54.6619 20.4859C55.0864 20.0645 55.4232 19.5631 55.6529 19.0107C55.8826 18.4584 56.0005 17.866 56 17.2677ZM4.55522 43.2696L12.726 51.4433H4.55522V43.2696ZM18.2207 50.5034L5.49472 37.773L29.6086 13.6508L42.3345 26.3812L18.2207 50.5034ZM45.5516 23.163L32.8256 10.4326L38.7189 4.53731L51.4448 17.2677L45.5516 23.163Z" fill="#4DFF7E"/>
</svg>
