    <svg width="33" height="34" viewBox="0 0 33 34" fill="none" xmlns="http://www.w3.org/2000/svg">
<path d="M16.5 23.7999L23.1 17L16.5 10.2L14.19 12.58L16.83 15.3H9.9V18.7H16.83L14.19 21.4199L16.5 23.7999ZM16.5 33.9999C14.2175 33.9999 12.0725 33.5534 10.065 32.6603C8.0575 31.7684 6.31125 30.5574 4.82625 29.0274C3.34125 27.4974 2.1659 25.6983 1.3002 23.6299C0.4334 21.5616 0 19.3516 0 17C0 14.6483 0.4334 12.4383 1.3002 10.37C2.1659 8.30165 3.34125 6.50248 4.82625 4.97249C6.31125 3.44249 8.0575 2.23096 10.065 1.3379C12.0725 0.445965 14.2175 0 16.5 0C18.7825 0 20.9275 0.445965 22.935 1.3379C24.9425 2.23096 26.6887 3.44249 28.1737 4.97249C29.6588 6.50248 30.8341 8.30165 31.6998 10.37C32.5666 12.4383 33 14.6483 33 17C33 19.3516 32.5666 21.5616 31.6998 23.6299C30.8341 25.6983 29.6588 27.4974 28.1737 29.0274C26.6887 30.5574 24.9425 31.7684 22.935 32.6603C20.9275 33.5534 18.7825 33.9999 16.5 33.9999Z" fill="#18F255"/>
</svg>
