<svg width="33" height="34" viewBox="0 0 33 34" fill="none" xmlns="http://www.w3.org/2000/svg">
<path d="M16.5 10.2001L9.9 17L16.5 23.8L18.81 21.42L16.17 18.7H23.1V15.3L16.17 15.3L18.81 12.5801L16.5 10.2001ZM16.5 8.4877e-05C18.7825 8.4877e-05 20.9275 0.446617 22.935 1.33968C24.9425 2.23161 26.6887 3.44258 28.1737 4.97257C29.6587 6.50257 30.8341 8.30173 31.6998 10.3701C32.5666 12.4384 33 14.6484 33 17C33 19.3517 32.5666 21.5617 31.6998 23.63C30.8341 25.6984 29.6587 27.4975 28.1737 29.0275C26.6887 30.5575 24.9425 31.769 22.935 32.6621C20.9275 33.554 18.7825 34 16.5 34C14.2175 34 12.0725 33.554 10.065 32.6621C8.0575 31.769 6.31125 30.5575 4.82625 29.0275C3.34125 27.4975 2.1659 25.6984 1.3002 23.63C0.433401 21.5617 4.76837e-07 19.3517 4.76837e-07 17C4.76837e-07 14.6484 0.433401 12.4384 1.3002 10.3701C2.1659 8.30173 3.34125 6.50257 4.82625 4.97257C6.31125 3.44258 8.0575 2.23161 10.065 1.33968C12.0725 0.446617 14.2175 8.4877e-05 16.5 8.4877e-05Z" fill="#161616"/>
</svg>
