<svg width="56" height="56" viewBox="0 0 56 56" fill="none" xmlns="http://www.w3.org/2000/svg">
<path d="M53.0232 18.7427L37.1885 17.3056L31.0051 2.07872C29.8928 -0.692908 26.0977 -0.692908 24.9853 2.07872L18.8019 17.3398L2.99995 18.7427C0.120911 18.9823 -1.05688 22.7462 1.13512 24.7308L13.142 35.612L9.54321 51.7628C8.88888 54.7055 11.9315 57.0323 14.4179 55.4583L27.9952 46.9039L41.5725 55.4925C44.0589 57.0665 47.1015 54.7397 46.4472 51.797L42.8484 35.612L54.8553 24.7308C57.0473 22.7462 55.9022 18.9823 53.0232 18.7427ZM27.9952 40.5052L15.6939 48.2726L18.9655 33.6274L8.10369 23.7727L22.4334 22.4725L27.9952 8.68273L33.5897 22.5067L47.9194 23.8069L37.0576 33.6616L40.3293 48.3068L27.9952 40.5052Z" fill="#4DFF7E"/>
</svg>
