<svg width="22" height="22" viewBox="0 0 22 22" fill="none" xmlns="http://www.w3.org/2000/svg">
<path d="M10.875 18.125C11.2979 18.125 11.6556 17.9788 11.948 17.6864C12.2404 17.394 12.3862 17.0367 12.3854 16.6146C12.3854 16.1917 12.2392 15.834 11.9468 15.5416C11.6544 15.2492 11.2971 15.1034 10.875 15.1042C10.4521 15.1042 10.0944 15.2504 9.802 15.5428C9.50959 15.8352 9.36378 16.1925 9.36458 16.6146C9.36458 17.0375 9.51079 17.3952 9.80321 17.6876C10.0956 17.98 10.4529 18.1258 10.875 18.125ZM9.7875 13.4729H12.0229C12.0229 12.7479 12.1035 12.2142 12.2646 11.8719C12.4257 11.5295 12.7681 11.0965 13.2917 10.5729C13.9965 9.86806 14.4948 9.27879 14.7864 8.80513C15.078 8.33146 15.2242 7.79295 15.225 7.18958C15.225 6.12222 14.8625 5.26149 14.1375 4.60738C13.4125 3.95327 12.4358 3.62581 11.2073 3.625C10.0997 3.625 9.15836 3.89688 8.38342 4.44063C7.60847 4.98438 7.06956 5.73959 6.76667 6.70625L8.76042 7.49167C8.90139 6.94792 9.18333 6.5101 9.60625 6.17821C10.0292 5.84632 10.5226 5.67997 11.0865 5.67917C11.6302 5.67917 12.0833 5.82538 12.4458 6.11779C12.8083 6.41021 12.9896 6.79768 12.9896 7.28021C12.9896 7.62257 12.8788 7.98507 12.6573 8.36771C12.4358 8.75035 12.0632 9.17327 11.5396 9.63646C10.875 10.2205 10.4166 10.7795 10.1645 11.3136C9.91236 11.8477 9.7867 12.5675 9.7875 13.4729ZM2.41667 21.75C1.75209 21.75 1.18296 21.5132 0.709293 21.0395C0.235627 20.5658 -0.000803504 19.9971 2.0515e-06 19.3333V2.41667C2.0515e-06 1.75209 0.236835 1.18296 0.710502 0.709293C1.18417 0.235627 1.75289 -0.000803504 2.41667 2.0515e-06H19.3333C19.9979 2.0515e-06 20.567 0.236835 21.0407 0.710502C21.5144 1.18417 21.7508 1.75289 21.75 2.41667V19.3333C21.75 19.9979 21.5132 20.567 21.0395 21.0407C20.5658 21.5144 19.9971 21.7508 19.3333 21.75H2.41667Z" fill="#4DFF7E" fill-opacity="0.65"/>
</svg>
