<svg width="26" height="27" viewBox="0 0 26 27" fill="none" xmlns="http://www.w3.org/2000/svg">
<g clip-path="url(#clip0_24_166)">
<path d="M0.520117 3.46906C0.347726 3.46906 0.182396 3.53723 0.0604978 3.65859C-0.0614009 3.77995 -0.129883 3.94455 -0.129883 4.11618V22.4945C-0.129883 22.6661 -0.0614009 22.8307 0.0604978 22.9521C0.182396 23.0734 0.347726 23.1416 0.520117 23.1416H17.9089C17.6817 22.8439 17.455 22.546 17.2267 22.2486C16.9428 21.8316 16.5304 21.4746 16.4095 20.9678C14.7377 21.6548 12.8168 21.7185 11.1013 21.1482C11.0636 21.1361 11.0267 21.121 10.9893 21.1084C10.7925 21.2999 10.5803 21.6338 10.5468 21.8474H8.07494C8.26058 21.2212 7.86642 20.2435 8.23926 19.6063C8.2689 19.5985 8.30478 19.5485 8.32116 19.497C8.27904 19.4577 8.2364 19.4194 8.19532 19.3792C7.82976 19.49 7.68364 19.7642 7.48032 20.0046C7.59134 20.5285 6.79002 20.4045 6.87088 20.9391C7.4291 21.3701 6.35556 21.0416 6.03628 21.076C5.6975 21.0796 4.70638 20.7266 5.05036 21.4487C4.99654 21.647 5.0462 21.7687 5.14526 21.8474H4.99342C4.96976 21.6206 4.54076 21.587 4.3754 21.4757C4.09694 21.4084 3.7644 21.3747 3.47606 21.2468C3.40196 21.4519 2.73324 21.6864 2.58686 21.8474H1.17012V12.3913C1.36954 12.5244 1.81674 12.4716 1.2073 12.1843H1.17012V9.20387C1.28842 9.14433 1.37292 9.12544 1.36772 9.22509C1.66074 9.12673 1.7884 8.41671 2.2954 8.70739C2.61156 8.75373 3.13468 9.24166 2.87182 9.30275C3.0767 9.80077 3.22204 9.48006 3.47346 10.0736C3.30134 10.8854 3.96044 11.4869 4.3221 12.0044C4.75526 12.1835 4.9266 12.741 5.63068 12.7628C5.72636 12.8461 5.84908 12.9217 5.977 12.9942C6.0121 12.7266 6.06176 12.461 6.12442 12.1985C6.10752 12.1946 6.09114 12.1923 6.07294 12.1863C5.39564 12.8083 5.2568 11.7315 5.91824 11.6893C5.96244 11.6865 6.01002 11.6888 6.06124 11.6958C6.13794 11.6868 6.20164 11.6958 6.25546 11.7147C6.47266 11.0058 6.7945 10.3329 7.21044 9.7182C7.4338 9.38637 7.68453 9.07364 7.96002 8.78324C7.82326 8.55545 7.68338 8.42835 7.51828 8.72577C7.5058 8.28443 6.3072 7.82187 7.18912 8.24535C7.65166 8.64216 7.80324 8.17649 7.8763 7.85863C8.2728 7.44706 7.46992 7.3065 7.6163 7.03755C7.37294 6.67439 7.01258 6.30242 6.64234 6.07748C5.92422 6.16031 5.67254 6.0094 6.63272 6.00889C6.7193 5.56237 6.86308 5.24606 6.96214 4.87021C6.85814 4.84044 6.74946 4.8451 6.64234 4.84484C6.18292 4.78349 5.91018 4.96029 5.91954 5.30948C5.57452 5.28204 5.88444 4.69652 5.35248 4.87539C4.54596 4.8627 5.52096 5.13398 5.44608 5.17306C5.35378 5.37911 4.77268 5.25072 4.84106 5.45961C4.57482 4.96935 4.45366 5.69335 4.24644 5.19739C4.12164 5.07832 4.76904 5.31491 4.62162 4.88082C4.29558 4.75657 4.17884 4.97401 3.92482 5.06279C3.16666 5.48058 4.05716 5.87351 4.44222 6.01277C5.02254 5.85875 5.02202 5.6641 5.42554 5.87817C5.87794 6.12796 4.96872 5.95246 4.99654 6.33685C4.94454 6.09793 4.87954 5.95375 4.59874 6.25997C4.22434 6.32727 4.05716 5.81501 3.77766 5.85099C3.14066 5.76479 3.37856 7.19105 3.90324 6.70545C4.2207 7.2524 3.49764 6.84885 3.28314 6.78777C2.79876 7.32643 2.27694 6.77379 1.6987 6.75153C1.51358 6.62883 1.3321 6.62728 1.17012 6.68966V4.7633H7.9881C7.5019 4.7765 7.0677 4.84044 7.2445 5.18859C7.2159 5.86005 8.08846 5.32682 8.21404 5.93408C8.57648 6.35833 7.9985 7.26042 8.62536 7.10201C8.39474 7.38131 8.4236 7.82627 8.60352 8.17701C9.26909 7.62086 10.0239 7.18019 10.8364 6.87344C10.8507 6.79372 10.8395 6.70209 10.7917 6.59389C10.7103 6.18775 11.0889 6.05807 10.9563 5.60767C11.1346 5.26858 10.9963 4.90981 10.6905 4.7633H24.8301V6.59544C24.7898 6.57823 24.7484 6.5637 24.7061 6.55195C24.3398 6.8825 24.6359 6.91383 24.8301 6.83954V7.12841C24.397 6.88587 23.9212 6.85921 23.4591 6.96016C23.2493 6.59699 22.5065 6.60554 22.2621 6.27861C21.8315 5.76505 22.3934 5.91829 22.7691 5.87869C22.6625 5.55771 22.0229 5.40551 21.7528 5.45857C21.2647 5.72467 22.0091 5.96333 21.934 6.32054C21.934 6.58017 21.616 6.58198 21.3386 6.56774C21.4506 6.29285 20.8074 5.95479 20.5523 6.17843C20.0695 6.03296 19.8854 6.11838 20.2039 5.61777C20.0927 5.23286 19.6327 5.22561 19.4265 4.95848C19.1632 5.51448 18.724 5.34597 18.2534 5.68455C18.0649 5.95893 17.6723 6.20535 17.6528 6.38655C17.3611 6.52296 17.0691 5.82692 16.8645 6.4435C16.6789 6.96534 16.8749 7.21823 16.2486 6.79113C15.6004 6.10337 17.5506 5.51423 16.8258 5.22147C16.2241 5.39619 15.8625 5.81837 15.7429 6.41813C15.6781 6.55454 15.7075 6.64954 15.7759 6.72642C18.0597 7.4046 19.9497 9.23312 20.718 11.4763C20.7299 11.3412 20.7525 11.2112 20.798 11.1162C20.9902 10.9703 20.8378 11.6767 21.2348 11.2749C20.9423 11.9 21.9701 11.3578 22.1092 11.0997C21.9054 10.5903 22.8424 10.3503 22.8206 10.2543C22.4756 9.89396 22.6716 10.2525 22.291 10.335C22.1649 10.1678 22.5328 9.25098 22.0432 9.3351C21.3121 9.1477 22.6651 8.61162 23.0304 8.80886C23.1968 8.19591 23.436 8.6841 23.0249 8.96598C22.8684 9.50983 22.9433 10.2517 23.4038 9.52484C23.6107 9.32423 23.5592 8.80136 23.8286 8.71024C24.1905 8.54044 24.8364 8.40765 24.8195 7.8827C24.8231 7.88166 24.8265 7.88192 24.8301 7.88115V21.8474H23.8008C24.0239 21.5399 24.319 21.0139 24.0064 20.8231C23.5356 20.7421 23.1838 20.1768 22.6147 20.2003C22.3578 19.9057 21.7663 19.7566 21.6072 19.6992C21.448 19.6417 21.1719 19.9738 20.889 19.8271C20.8039 19.8134 20.717 19.8149 20.6324 19.8317C21.4837 20.9318 22.3268 22.0379 23.1731 23.1416H25.4801C25.6525 23.1416 25.8178 23.0734 25.9397 22.9521C26.0616 22.8307 26.1301 22.6661 26.1301 22.4945V4.11618C26.1301 3.94455 26.0616 3.77995 25.9397 3.65859C25.8178 3.53723 25.6525 3.46906 25.4801 3.46906H0.520117ZM13.1795 4.84613C12.7609 5.0514 13.5032 5.86859 13.5238 5.08842C13.6005 5.20231 14.115 5.31724 13.9468 4.94993C13.5729 4.73069 13.6296 4.98281 13.1793 4.84639L13.1795 4.84613ZM19.1806 4.84665C18.729 5.06564 19.5758 5.06978 19.1806 4.84665V4.84665ZM4.83378 4.92094C4.49578 5.17099 5.32986 5.41845 4.87798 4.93414L4.83378 4.92094ZM7.60148 5.06926C7.51802 5.12129 7.68598 5.15002 7.60148 5.06926V5.06926ZM4.33692 5.3892C4.31612 5.39257 4.3767 5.43502 4.33692 5.3892V5.3892ZM5.4947 5.49585C5.4635 5.66151 5.90212 5.56625 5.4947 5.49585V5.49585ZM6.0654 5.54244C6.20762 5.63821 6.4528 5.51785 6.0654 5.54244V5.54244ZM4.9279 5.55952C4.89566 5.67575 5.17984 5.58541 4.9279 5.55952V5.55952ZM5.73442 5.92398C5.6091 6.00293 5.98922 5.98248 5.73442 5.92398V5.92398ZM5.91408 6.32753C5.76068 6.81469 6.4593 7.47423 5.9172 6.919C5.76822 6.69691 5.69074 6.48413 5.91408 6.32753ZM5.0046 6.37671C5.22794 6.74816 5.56802 6.8473 5.28332 6.97517C5.0943 6.88406 5.05062 6.60036 5.0046 6.37671ZM8.50914 6.75127C8.42438 6.75644 8.5406 6.77223 8.50914 6.75127V6.75127ZM3.23738 6.86853C3.19708 6.87034 3.20826 6.98604 3.23738 6.86853V6.86853ZM5.25082 7.05852C5.132 7.05412 5.23262 7.30339 5.25082 7.05852V7.05852ZM6.7453 7.06008C6.64806 7.53895 7.0339 7.5084 7.0079 7.55655C6.68914 7.69633 6.76532 8.27201 6.52144 7.83274C6.36752 7.7613 6.60048 7.12919 6.70526 7.07379L6.7453 7.06008ZM5.17828 7.06059C5.17594 7.17267 5.21234 7.06836 5.17828 7.06059V7.06059ZM23.9856 7.10356C23.9404 7.14757 23.996 7.12116 23.9856 7.10356V7.10356ZM5.197 7.1662C4.95936 7.33446 5.37432 7.35102 5.197 7.1662V7.1662ZM13.4593 7.42065C12.0415 7.43046 10.6653 7.89867 9.53796 8.75476C6.65456 10.9407 6.09348 15.0616 8.28918 17.9323C10.3445 20.6194 14.0976 21.2676 16.9342 19.547L17.476 20.2554C17.3694 20.5024 17.3793 20.7385 17.5033 20.901L21.4345 26.0405C21.6685 26.3462 22.2335 26.3097 22.6963 25.9587C23.1591 25.6079 23.3445 25.0755 23.1107 24.7695L19.1795 19.6301C19.0553 19.4675 18.8293 19.395 18.5618 19.4318L18.0199 18.7236C20.4403 16.4586 20.8113 12.6846 18.7563 9.9975C17.6583 8.56218 16.0744 7.70539 14.4046 7.48019C14.0913 7.43796 13.7754 7.41807 13.4593 7.42065ZM6.07814 8.06985C6.24064 8.45398 6.86828 8.22852 6.62258 8.75217C6.8961 9.00844 6.57916 9.91182 6.47282 9.142C5.79214 9.13864 5.46714 8.46252 6.03862 8.10764L6.07814 8.06985ZM6.6712 8.13352C6.3436 8.23163 6.8792 8.30954 6.6712 8.13352V8.13352ZM23.0065 8.6067C23.0247 8.59376 23.0699 8.68669 23.0065 8.6067V8.6067ZM13.7211 8.87099C14.4756 8.89962 15.2143 9.09466 15.884 9.44202C16.5536 9.78938 17.1374 10.2804 17.5933 10.8797C18.0017 11.4113 18.3006 12.0179 18.4729 12.6649C18.6452 13.3118 18.6875 13.9862 18.5973 14.6495C18.5071 15.3127 18.2862 15.9517 17.9473 16.5297C17.6084 17.1077 17.1582 17.6134 16.6224 18.0177C16.0885 18.4243 15.4791 18.722 14.8292 18.8935C14.1794 19.0651 13.5019 19.1072 12.8357 19.0174C12.1695 18.9276 11.5277 18.7076 10.9471 18.3702C10.3665 18.0328 9.85854 17.5845 9.45242 17.0512C9.04401 16.5195 8.74509 15.9128 8.57282 15.2659C8.40054 14.619 8.35831 13.9445 8.44854 13.2813C8.53877 12.6181 8.75968 11.9791 9.09861 11.4011C9.43753 10.8231 9.88778 10.3174 10.4235 9.91312C11.3671 9.19378 12.5335 8.82518 13.7211 8.87099ZM23.754 9.1376C23.3458 9.47385 24.2441 9.41224 23.754 9.1376V9.1376ZM24.2402 9.41768C23.7883 9.63744 24.6351 9.6377 24.2402 9.41768V9.41768ZM24.5345 9.52018C24.1315 9.8541 24.9453 9.6786 24.5345 9.52018V9.52018ZM24.5184 9.59266C24.5046 9.61621 24.5407 9.5924 24.5184 9.59266V9.59266ZM24.5569 9.63433C24.5244 9.63848 24.5691 9.65401 24.5569 9.63433V9.63433ZM13.5487 9.90406C12.9804 9.89396 12.4193 10.0205 11.9019 10.2478C11.9289 10.2807 11.9677 10.3123 12.0243 10.3407C11.5043 10.1725 11.353 10.8266 11.5719 11.1209L11.9237 11.1496L12.2178 11.0207C12.4078 10.824 12.4552 10.8579 12.5165 10.56L12.6312 10.5747L12.7222 10.5369L12.9294 10.6389C13.178 10.7357 13.1897 10.9444 13.1065 11.0055C12.9887 11.0777 13.1275 11.0883 13.139 11.1331C13.1977 11.1162 13.232 11.0658 13.269 11.0389L13.3355 11.015C13.5784 10.8564 13.4088 10.8041 13.2401 10.59L13.3295 10.6128C13.4603 10.7603 13.5373 10.9273 13.6148 11.1046C13.6236 11.1116 13.6317 11.1206 13.6418 11.1238C13.7006 11.1432 13.7835 11.1367 13.8545 11.1173C13.9247 11.0981 13.9294 10.9648 13.9174 10.8372C14.0175 11.2917 14.9993 11.1566 14.415 11.4339C14.0783 11.4414 13.5433 11.2576 13.4447 11.4898C13.2268 11.3914 13.1156 11.327 13.0714 11.2765C12.9372 11.2263 12.5511 11.0808 12.5373 11.0808C12.5209 11.0808 12.0295 11.1698 12.0295 11.1698L11.6239 11.3231C11.4921 11.746 11.2841 11.5198 11.2134 11.8478C11.158 12.0574 10.6814 12.5104 10.931 12.8671C11.1539 13.8989 12.4458 13.2119 12.7469 13.7073C12.6054 14.0125 13.3051 14.5931 12.9135 15.093C13.0981 15.819 13.5942 17.0328 14.3924 15.9994C14.603 15.3808 15.0565 15.0464 15.0403 14.4326C14.7993 13.8282 16.2181 13.3801 15.6506 12.8907C15.5146 12.9067 15.499 12.936 15.3911 12.9717C15.1644 12.9631 15.1059 12.7812 15.0286 12.6668C14.9697 12.5833 14.9175 12.4953 14.8726 12.4035C15.0169 12.6261 15.1659 12.8151 15.375 12.9313C15.7366 12.8505 16.1513 12.5842 16.3201 12.3888C16.3159 11.627 17.3445 12.4172 17.3237 12.9898C17.3874 13.1441 17.4682 13.2512 17.5493 13.3139C17.4917 12.9477 17.3819 12.5916 17.2233 12.2562C16.935 11.6262 16.4732 11.0852 15.9121 10.6803C15.9017 10.6964 15.8757 10.6974 15.8809 10.6586C15.805 10.6051 15.7274 10.5541 15.6482 10.5056C15.6568 10.5416 15.6672 10.5781 15.6792 10.6151C15.6451 10.5646 15.6092 10.5134 15.5796 10.4639C14.967 10.1047 14.2645 9.89862 13.549 9.9038L13.5487 9.90406ZM22.0083 9.93822C22.1968 10.473 21.3526 11.7124 21.2299 10.8988C21.3165 10.4966 22.0094 10.5571 22.0083 9.93822ZM6.18084 10.0793C6.17486 10.0987 6.2188 10.0749 6.18084 10.0793V10.0793ZM6.5815 10.2675C6.48998 10.3146 6.65716 10.3301 6.5815 10.2675V10.2675ZM14.3888 10.2846C14.5986 10.4606 15.2424 10.6935 14.5609 10.5077C14.2063 10.669 14.0965 10.5657 14.3888 10.2846ZM12.7669 10.5978C12.7211 10.6118 12.7599 10.7062 12.7313 10.736C12.9263 10.831 12.8171 10.6462 12.8459 10.6159C12.8064 10.5973 12.782 10.5929 12.7669 10.5978ZM15.7395 10.7906C15.7998 10.9467 15.8398 11.0464 15.6849 10.8527C15.6977 10.8465 15.7091 10.8378 15.7185 10.8272C15.7279 10.8165 15.735 10.8041 15.7395 10.7906ZM12.7851 10.81C12.7087 10.8017 12.6681 10.8527 12.6678 10.9239C12.8693 11.0329 12.8485 10.853 12.8732 10.8393C12.8458 10.8242 12.8161 10.8143 12.7851 10.81ZM15.8983 11.9187C16.0133 11.9233 15.7884 12.0843 15.8268 11.9277C15.8588 11.9208 15.882 11.9179 15.8983 11.9187ZM23.8182 12.9313C23.4438 13.3273 24.2644 13.397 23.8182 12.9313V12.9313ZM23.7922 12.9929C23.7852 13.0193 23.8307 12.9888 23.7922 12.9929V12.9929ZM23.8244 13.0496C23.7854 13.0431 23.8281 13.0763 23.8244 13.0496V13.0496ZM24.0967 13.1014C23.734 13.4156 24.5345 13.3012 24.0967 13.1014V13.1014ZM24.1357 13.1907C24.1305 13.2287 24.1632 13.186 24.1357 13.1907V13.1907ZM24.0844 13.2044C24.0634 13.2225 24.1084 13.2365 24.0844 13.2044V13.2044ZM21.1212 13.6113C21.1277 13.7728 21.129 13.9341 21.1254 14.0953C21.4236 14.1427 21.7972 14.1293 21.8042 14.4577C22.3388 14.4808 21.7491 15.2581 21.7296 14.5385C21.5118 14.5073 21.2897 14.5447 21.0944 14.6457C21.0402 15.2105 20.9241 15.7678 20.7481 16.3075C21.1849 16.1695 21.6306 16.183 21.8937 16.6057C22.5866 16.6031 21.9972 17.0734 22.4883 17.1694C22.6976 16.7439 22.3781 16.7975 22.7707 16.4506C23.1516 15.9658 22.9022 15.3396 22.5224 15.0748C22.4433 14.7751 22.1285 14.613 22.2767 14.4086C22.5653 14.7981 22.9742 14.5064 22.6329 14.2957C22.8848 14.0614 23.7849 14.8993 23.2795 14.2548C23.0299 14.2087 22.6869 13.6949 22.6092 14.0257C22.5868 14.3001 21.8991 13.6092 21.6454 13.8919C21.5721 13.6372 21.2133 13.7909 21.193 13.9046C21.3032 13.7337 21.2338 13.6455 21.1212 13.6113ZM22.4441 13.8326C22.0715 14.0433 22.7805 14.0361 22.4441 13.8326V13.8326ZM12.711 13.8507C12.7024 13.8619 12.7409 13.918 12.711 13.8507V13.8507ZM9.44722 13.8823C9.4395 14.2417 9.47963 14.6006 9.56656 14.9496C9.86556 14.4986 9.85386 14.0752 9.44722 13.8823ZM22.4249 13.8947C22.3973 13.901 22.4472 13.9108 22.4249 13.8947V13.8947ZM22.6768 13.9258C22.5551 14.0112 22.7982 14.0112 22.6768 13.9258V13.9258ZM22.6768 13.9284C22.566 14.0076 22.7873 14.0076 22.6768 13.9284V13.9284ZM22.4498 13.9509C22.4113 13.9462 22.454 13.9771 22.4498 13.9509V13.9509ZM21.1233 14.232C21.1207 14.2941 21.1152 14.3563 21.1111 14.4184C21.1951 14.3242 21.2315 14.2268 21.1233 14.232ZM15.1971 14.5004C14.8966 14.6648 15.5187 14.7399 15.2587 14.547L15.2476 14.5193L15.1971 14.5004ZM15.5486 14.5465C15.2517 14.7313 14.791 15.6125 15.4298 15.6402C15.5837 15.4579 15.974 14.6454 15.5486 14.5465ZM23.6024 15.1077C23.3645 15.5749 24.2932 15.388 23.6024 15.1077V15.1077ZM16.0244 15.1698C15.6381 15.4279 16.3991 15.3953 16.0244 15.1698V15.1698ZM24.2225 16.2353C24.4425 16.731 23.7129 17.0279 23.768 17.4881C24.1424 17.6677 24.3356 16.9916 24.5992 16.7848C24.911 16.5135 24.3538 16.4333 24.2225 16.2353ZM6.93042 17.7599C6.97306 18.0327 7.1015 18.2967 7.33082 18.3772C7.18743 18.178 7.05381 17.972 6.93042 17.7599Z" fill="#20AC69"/>
</g>
<defs>
<clipPath id="clip0_24_166">
<rect width="26" height="25.885" fill="white" transform="translate(0 0.362854)"/>
</clipPath>
</defs>
</svg>
