<svg width="29" height="37" viewBox="0 0 29 37" fill="none" xmlns="http://www.w3.org/2000/svg">
<path d="M26.3636 3.96429H22.4091V2.64286C22.407 1.94257 22.1286 1.27156 21.6346 0.776385C21.1407 0.281206 20.4713 0.00209146 19.7727 0H9.22727C8.52871 0.00209146 7.85935 0.281206 7.36539 0.776385C6.87142 1.27156 6.593 1.94257 6.59091 2.64286V3.96429H2.63636C1.9378 3.96638 1.26844 4.24549 0.774478 4.74067C0.280515 5.23585 0.00208632 5.90686 0 6.60714V34.3571C0.00208632 35.0574 0.280515 35.7284 0.774478 36.2236C1.26844 36.7188 1.9378 36.9979 2.63636 37H15.8182V34.3571H2.63636V6.60714H6.59091V10.5714H22.4091V6.60714H26.3636V18.5H29V6.60714C28.9979 5.90686 28.7195 5.23585 28.2255 4.74067C27.7316 4.24549 27.0622 3.96638 26.3636 3.96429ZM19.7727 7.92857H9.22727V2.64286H19.7727V7.92857Z" fill="#20AC69"/>
</svg>
